<svg xmlns="http://www.w3.org/2000/svg" viewBox="0 0 602.4 954.14"><defs><style>.cls-1{fill:#ebebeb;}</style></defs><title>back_kim_jestesmy</title><g id="Warstwa_2" data-name="Warstwa 2"><g id="kwadraty_polaczone_kopia_3" data-name="kwadraty polaczone kopia 3"><path class="cls-1" d="M391.86,954.14h.58l11-11h5l11,11H420l-11.3-11.29V938l25.8-25.77h4.93l25.79,25.75v4.94l-11.29,11.27h.57l11-11h4.94l11,11H482l-11.29-11.27v-4.94l25.79-25.75h5l25.78,25.74v4.93L516,954.14h.58l11-11h4.24l11,11h.55l-11-11h.44v-5.23l25.78-25.74h5l24.69,24.65h-.46v5.23l-12.09,12.08h.55L588,942.33h5l9.41,9.4v-.55L593.25,942v-4.92L602.4,928v-.56l-9.41,9.4h-4.23l-25-24.94V907l25.8-25.76h4.21l8.61,8.6v-.56l-8-8h.47V876l7.58-7.56v-.55l-7.87,7.85h-5L563.78,850V845l25.82-25.77h4.91l7.89,7.87v-.56L594.82,819v-5l7.58-7.57v-.56l-7.87,7.85h-5L563.78,788v-4.92l25.81-25.77h4.93l7.88,7.87v-.56l-7.58-7.57v-5l7.58-7.57V744l-7.88,7.87h-4.94l-25.8-25.76v-4.92l25.78-25.74h5l7.84,7.83v-.54l-7.58-7.57v-5l7.58-7.56v-.54l-7.86,7.85h-5l-25.79-25.75v-4.92l25.81-25.76h4.94l7.88,7.86v-.57l-7.58-7.57v-4.94l7.58-7.57v-.58L594.53,628h-4.93l-25.81-25.77V597.3l25.8-25.75h5l7.87,7.85v-.57l-7.58-7.57v-4.95l7.58-7.57v-.57L594.54,566h-5l-25.8-25.76v-4.92l25.79-25.75h5l7.86,7.85v-.55l-7.58-7.57v-5l7.58-7.57v-.55l-7.87,7.85h-5l-25.8-25.76v-4.9l25.84-25.77h4.9l7.88,7.86v-.59l-7.58-7.57v-4.9l7.58-7.56v-.6l-7.87,7.85H589.6L563.78,416.4v-4.93l25.77-25.72h5l7.89,7.89V393l-7-7-.55-.55v-5l7.58-7.57v-.59l-7.92,7.9h-4.89l-25.81-25.81v-4.86l25.83-25.77h4.94l7.86,7.84v-.58l-7.58-7.57V318.6L602.4,311v-.58l-7.86,7.85H589.6l-25.82-25.76v-4.9l25.82-25.76h4.94l7.86,7.85v-.58l-7.58-7.57v-4.91l7.58-7.57v-.58l-7.87,7.85h-4.92l-25.83-25.77v-5.2h-.48l26-26h5l8.12,8.11V207l-7.87-7.86v-4.92l7.87-7.86v-.54l-8.12,8.11h-5l-25.53-25.5v-5h-.23v-.24l25.76-25.73h5l8.12,8.11v-.55l-7.87-7.86v-4.91l7.87-7.86v-.55L594.28,132h-5l-25.77-25.74v-5l25.76-25.73h5l8.12,8.1v-.55l-7.87-7.86,0-4.94,7.85-7.84v-.55L594.28,70h-5L563.55,44.32v-5l25.76-25.73h5l8.12,8.11v-.54l-7.87-7.86,0-4.94L602.4.55V0l-8.13,8.12H589v5.23L563.28,39.08H558v5.24L532.25,70H527v5.23L501.21,101H496v5.5h.27v.2l-25.8,25.77h-5.23v5.22l-25.77,25.74h-5.24v5.2l-25.82,25.77h-5.19v5.18L377.38,225.4h-5.19v5.22L346.4,256.37h-5.22v5.21L315.4,287.33h-5.25v5.24L284.37,318.3h-5.22v5.22l-25.8,25.76h-5.23v5.22l-25.79,25.75h-5.22v5.21L191.33,411.2H186.1v5.21l-25.79,25.75h-5.24v5.23L129.3,473.14h-5.24v5.23L98.28,504.11H93.05v5.23L67.29,535.07H62v5.24L36.25,566H31v5.23L5.22,597H0v5.5H5.22L31,628.26v5.23h5.24L62,659.21v5.24h5.25l25.77,25.74v5.23h5.24l25.77,25.74v5.22h5.23l25.79,25.74v5.22h5.22l25.8,25.76v5.22h5.23l25.79,25.74v5.2h5.18L248.12,845v5.22h5.23L279.15,876v5.2h5.22L310.14,907v5.22h5.23L341.18,938v5.2h5.21l11,11H358l-11.31-11.29V938l25.81-25.77h4.92L403.22,938v4.85Zm42.63-47.47-25.78-25.75V876l25.79-25.75h5L465.23,876v5l-25.77,25.73ZM558.27,168.46v.23l-25.78,25.74h-4.93l-25.8-25.76v-5.21h-.46l26-26h5L558,163.22v5.24Zm0,306.08v3.82l-7.59,7.58-18.2,18.17h-4.91l-25.81-25.77V473.4l25.77-25.73h4.91Zm-12.56-13.66,12.56,12.53v.53Zm-199,110.39v-4.95l25.78-25.74h5l25.79,25.75v4.92L377.42,597h-5Zm25.51,26v4.94L346.4,628h-5l-25.78-25.74v-5l25.76-25.73h5Zm5.51-57v-5l25.78-25.73h5l25.78,25.74v5L408.44,566h-5Zm0,57,25.77-25.73h5l25.8,25.75v4.91L408.41,628h-4.93L377.7,602.24Zm31,31,25.81-25.78h4.92l25.79,25.74v4.94l-25.79,25.75h-4.93l-25.8-25.77ZM439.44,597h-4.92l-25.81-25.77v-4.91l25.79-25.74h5l25.77,25.74v4.94Zm-4.94-61.94-25.79-25.74v-4.93l25.8-25.75h4.95l25.78,25.74v4.95l-25.77,25.74Zm0-61.93-25.8-25.75v-4.92l25.81-25.76h4.92l25.79,25.75v4.94l-25.78,25.74Zm-.28.28v4.94l-25.79,25.75h-5L377.7,478.37v-5l25.79-25.74h4.93Zm-31,31v4.92l-25.79,25.75h-5l-25.78-25.74v-4.95l25.79-25.74h5Zm-31,31v5L346.41,566h-5l-25.77-25.73v-5l25.77-25.73h5Zm-31,31v4.92L315.39,597h-5l-25.79-25.75v-4.92l25.78-25.75h5Zm-31,30.95v5L284.37,628h-4.94l-25.79-25.76V597.3l25.78-25.75h5Zm-25.5,31,25.79-25.75h5l25.8,25.76v4.92L315.4,658.94h-5l-25.78-25.75Zm31,30.94,25.77-25.73h5l25.79,25.74v4.92l-25.8,25.76h-5l-25.77-25.73Zm31-26v-4.91l25.79-25.74h5l25.8,25.76v4.9l-25.81,25.77h-4.92Zm31,26.07,25.81-25.76h4.9l25.81,25.76v4.91l-25.8,25.76H403.5l-25.8-25.76Zm31,31,25.78-25.75h5l25.78,25.73v5l-25.79,25.75h-4.93l-25.8-25.77Zm56.78,5.22h5l25.78,25.74v4.93l-25.81,25.77h-4.93L439.74,726.1l0-4.93Zm5-5.51h-4.94l-25.8-25.77,0-4.92,25.77-25.73h5l25.79,25.74v4.93Zm0-61.93h-4.92l-25.79-25.75V597.3l25.78-25.75h4.94l25.8,25.77v4.89ZM465.52,566,439.74,540.3v-5l25.78-25.74h4.94l25.79,25.76v4.9L470.46,566Zm4.94-61.93h-4.93l-25.79-25.75,0-4.92,25.82-25.77h4.91l25.81,25.77v4.9Zm-4.94-61.94-25.8-25.76,0-4.91,25.78-25.75h4.94l25.79,25.77v4.88l-25.79,25.76Zm4.94-61.93h-4.93l-25.81-25.77v-4.89l25.8-25.76h4.94l25.8,25.77v4.9Zm-5.23.28v4.94l-25.78,25.75h-4.94l-25.8-25.76v-4.92l25.8-25.76h4.94Zm-31,31v4.93l-25.78,25.74h-5L377.7,416.44v-5l25.78-25.74h5Zm-31,31v4.91l-25.8,25.76h-5l-25.79-25.74v-4.93l25.8-25.75h4.93Zm-31,30.95v4.94L346.4,504.11h-5l-25.78-25.74v-5l25.79-25.74h4.93Zm-31,31v4.92L315.4,535.07h-5l-25.78-25.75v-4.92l25.79-25.75h5Zm-31,30.94v5L284.38,566h-5l-25.78-25.75v-4.93l25.78-25.75h5Zm-31,31v4.92L253.35,597h-4.93l-25.8-25.75v-4.94l25.79-25.74h5Zm-31,31v4.94L222.34,628h-4.95L191.6,602.24v-5l25.78-25.73h5Zm-25.5,31,25.8-25.74h4.94l25.8,25.76v4.92l-25.79,25.75h-5L222.62,633.2Zm31,31,25.78-25.75h5l25.77,25.73v5l-25.77,25.73h-5l-25.78-25.75Zm31,31,25.78-25.74h5l25.79,25.74v4.91l-25.81,25.77h-4.93l-25.8-25.76Zm31,31,25.78-25.74h5l25.78,25.74v4.92l-25.81,25.77h-4.91l-25.8-25.76Zm31-26.05v-4.9l25.8-25.75h4.93l25.8,25.76v4.91l-25.81,25.77h-4.92Zm31,26.06,25.78-25.74h5l25.78,25.74v4.92l-25.8,25.76h-4.91L377.7,726.09Zm31,31,25.79-25.77h4.94l25.78,25.75v4.94l-25.78,25.74h-5L408.71,757Zm31,30.95,25.79-25.76h4.92l25.81,25.77V788l-25.8,25.76h-4.94L439.74,788Zm31-26v-4.94l25.78-25.75h5l25.78,25.74v5l-25.77,25.73h-5Zm30.74-36.19h-5l-25.79-25.75v-5l25.77-25.73h5l25.76,25.72v5Zm0-61.94h-5l-25.79-25.75v-4.92l25.8-25.76h4.91l25.81,25.78v4.91ZM496.54,597l-25.8-25.76v-4.92l25.79-25.75h5l25.78,25.74v5L501.48,597Zm4.93-61.94h-4.94l-25.79-25.75V504.4l25.8-25.76h4.92l25.8,25.76v4.91Zm0-61.93h-4.88l-25.8-25.76v-4.91l25.81-25.76h5.2v-.95l25.51,26.53v5Zm.09-61.93h-5l-25.8-25.76v-4.91l25.79-25.76h5l25.76,25.76v5Zm0-61.94h-4.92l-25.8-25.76v-4.92l25.8-25.76h4.92l25.8,25.76v4.92Zm-4.93-61.94-25.79-25.75v-4.92l25.8-25.76h4.92l25.8,25.76v4.92l-25.79,25.75Zm-.27.3v4.91L470.46,318.3h-4.94l-25.8-25.76,0-4.93,25.78-25.74h4.94Zm-31,30.95v4.95l-25.78,25.74h-4.95l-25.8-25.75v-4.93l25.79-25.74h5Zm-31,31v4.94l-25.79,25.75h-5L377.7,354.5v-5l25.78-25.74h5Zm-31,31v4.91l-25.8,25.76h-5l-25.79-25.75v-4.94l25.79-25.75h5Zm-31,31v4.93l-25.78,25.74h-5l-25.77-25.73v-5l25.77-25.74h5Zm-31,31v4.91l-25.8,25.76h-5l-25.79-25.75v-4.91l25.8-25.76h4.93Zm-31,30.94v5l-25.78,25.74h-4.94l-25.79-25.76v-4.92l25.8-25.76h4.92Zm-31,31v4.92l-25.79,25.75h-5l-25.79-25.74v-4.94l25.8-25.74h4.94Zm-31,31v5L222.34,566h-5L191.6,540.31v-5l25.78-25.73h5Zm-31,31v4.92L191.32,597h-5L160.6,571.28v-5l25.75-25.72h5Zm-31,31v4.92L160.31,628h-5l-25.79-25.76V597.3l25.78-25.75h5Zm-25.5,30.94,25.76-25.73h5l25.8,25.76v4.92l-25.79,25.75h-5L160.6,633.22Zm31,31,25.78-25.73h5l25.78,25.74v5l-25.78,25.74h-5L191.6,664.18Zm31,31,25.79-25.73h5l25.79,25.74v4.93l-25.8,25.76h-4.94l-25.8-25.74Zm31,31,25.77-25.74h5l7.68,7.66,18.08,18.06v5l-12.7,12.69-13.09,13.07h-4.92l-25.79-25.76Zm31,31,25.8-25.76h4.94l25.8,25.77V757l-25.79,25.76h-5L297.7,770.1l-13.06-13Zm31,31,25.81-25.77h4.9l25.81,25.77V788l-25.8,25.76h-4.92L315.67,788Zm31-26.06v-4.9l25.81-25.77h4.93l25.81,25.77V757l-25.8,25.76h-4.94Zm31,26.06,25.81-25.77h4.9l25.81,25.77V788l-25.8,25.76H403.5L377.7,788Zm31,31,25.8-25.77h4.93l25.79,25.75V819l-25.78,25.74H434.5L408.71,819Zm31,30.94,25.8-25.76h4.9L496.26,845V850l-25.8,25.75h-4.95L439.74,850Zm31-26v-4.94l25.79-25.75h5l25.78,25.74v5l-25.78,25.73h-5Zm31,26,25.82-25.77h4.91L558.29,845l0,5L532.5,875.72h-5L501.75,850Zm25.8-31.25L501.75,788v-4.92l25.81-25.77h4.93l25.78,25.74v5L532.5,813.79Zm0-61.93-25.81-25.77v-4.92l25.78-25.74h5l25.74,25.71v5L532.5,751.85Zm4.92-62h-4.93l-25.8-25.76v-4.92l25.79-25.74h4.92l25.81,25.74v4.95Zm0-61.93h-4.9l-25.81-25.77v-4.9l25.8-25.76h5l25.76,25.73v5ZM527.55,566l-25.8-25.76v-4.91l25.8-25.76h4.93l25.79,25.74v5L532.5,566Zm.17-123.87-26-27v-3.61l25.84-25.8h4.9l25.81,25.81,0,4.83-25.83,25.78Zm-.16-61.93-25.81-25.81v-4.86l25.8-25.76h4.93l25.79,25.75v5l-25.75,25.71Zm0-61.94-25.8-25.76v-4.91l25.8-25.76h4.93l25.78,25.74,0,4.93-25.8,25.76Zm4.93-61.93h-4.92l-25.81-25.77V225.7l25.81-25.77h4.92l25.79,25.75,0,4.92Zm-31-87.41,25.8,25.76v4.92l-25.8,25.76h-4.92l-25.8-25.76v-4.92L496.54,169Zm-5.21,56.74v4.9l-25.8,25.77h-4.93l-25.81-25.77,0-4.92,25.79-25.75h4.93Zm-53.65,8.36h0l22.62,22.59v4.95l-25.77,25.74h-5l-25.75-25.75v-4.93l25.8-25.75h4.94Zm-8.39,53.59v4.91L408.44,318.3h-5L377.7,292.57v-5l25.78-25.73h5Zm-31,31v4.88l-25.8,25.76h-5l-25.79-25.74v-4.95l25.78-25.74h4.92Zm-31,30.91v4.94L346.4,380.24h-5L315.67,354.5v-5l25.77-25.73h5Zm-31,31v4.91L315.4,411.2h-5l-25.79-25.76v-4.91l25.79-25.77h5Zm-31,31v5l-25.77,25.73h-5l-25.78-25.75v-4.91l25.78-25.76h5Zm-31,31v4.92l-25.79,25.74h-4.94l-25.8-25.74v-4.93l25.81-25.75h4.91Zm-31,30.95v4.94l-25.79,25.75h-4.95L191.6,478.37v-5l25.8-25.74h4.92Zm-31,31v4.92l-25.79,25.75h-5L160.6,509.35v-5l25.76-25.73h5Zm-31,31v4.93L160.31,566h-5l-25.79-25.75v-4.93l25.79-25.75h5Zm-31,31v4.92L129.3,597h-5l-25.8-25.76,0-4.94,25.77-25.73h4.94Zm-31,30.93v5L98.28,628h-5L67.56,602.24v-5l25.76-25.73h5Zm-25.51,31,25.8-25.76h5l25.78,25.74v4.92l-25.81,25.77h-4.94L98.54,633.18Zm31,31,25.79-25.75h5l25.79,25.75v4.93l-25.79,25.75h-5l-25.79-25.75Zm31,30.94,25.75-25.71h5l25.79,25.74v4.88l-25.85,25.81h-4.91L160.6,695.15Zm31,31,25.77-25.72h5l25.77,25.73v5l-25.8,25.76h-4.91l-25.8-25.75Zm31,31,25.79-25.74h5l25.79,25.75v4.92l-25.8,25.76h-4.94l-20.78-20.74-5-5Zm31,31,25.8-25.77h4.92l25.79,25.75V788l-25.83,25.78h-4.89L253.64,788Zm31,31,25.8-25.76h4.93l25.81,25.77V819l-25.8,25.76h-4.95L284.64,819Zm31,31,25.82-25.77h4.88L372.19,845v4.87l-25.85,25.81h-4.88L315.67,850Zm31-26V814.1l25.81-25.77h4.92l25.81,25.77V819l-25.8,25.76h-4.93Zm31,26.05,25.82-25.77h4.88L434.22,845V850l-25.8,25.76H403.5L377.7,850ZM496.26,911.9l-25.8,25.75h-4.95l-25.78-25.74V907l25.78-25.75h4.94L496.26,907Zm.26-5.23-25.77-25.73v-5l25.78-25.73h5L527.26,876v5L501.5,906.67Zm61.76,5.24-25.8,25.74h-4.92l-25.8-25.76V907l25.8-25.76h5l25.76,25.73ZM589.33,876v4.9l-25.81,25.75h-5L532.79,881v-5l25.76-25.72h5Zm0-61.92V819l-25.8,25.76h-5L532.79,819v-5l25.78-25.74h5Zm0-61.94V757l-25.8,25.76h-5l-25.76-25.73v-5l25.77-25.74h5Zm0-61.95v4.9l-25.81,25.77h-5l-25.78-25.74v-5l25.77-25.72h5Zm0-61.91v4.87l-25.82,25.77h-5L532.79,633.2v-5l25.78-25.73h4.95Zm0-61.94v4.88L563.5,597h-4.93l-25.78-25.74v-5l25.77-25.74h5Zm0-62v4.9l-25.8,25.76h-5l-25.78-25.74v-4.95l25.79-25.74h4.94Zm0-61.91v4.87L563.5,473.14h-4.94L532.79,447.4v-5l25.75-25.7h5Zm0-61.93v4.82l-25.87,25.82h-4.93l-25.74-25.74v-4.91l25.83-25.79h4.92Zm0-62v4.89L563.5,349.27h-4.92l-25.79-25.74v-4.95l25.78-25.74h4.95ZM563.5,230.9l25.83,25.77v4.89L563.5,287.34h-4.93l-25.78-25.74v-4.95l25.79-25.74Zm.27-61.94L589,194.2v5L562.76,225.4h-4.18l-25.79-25.74v-4.95L558.58,169ZM589,132.26v5l-25.77,25.73h-5l-25.77-25.73v-5l25.78-25.74h5ZM532.53,70.32,558.3,44.59h5L589,70.32v5L563.27,101h-5L532.53,75.28Zm-31,31,25.78-25.75h5L558,101.29v5L532.24,132H527.3l-25.55-25.52v-4.94h-.24Zm-30.76,31.47L496.54,107h5.18L527,132.26v4.94l-26.3,26.25h-4.23l-25.74-25.7Zm-31,31L465.52,138h4.89l25.84,25.81v4.86l-25.79,25.76h-4.94l-25.8-25.76Zm-31,30.94L434.48,169h5l25.78,25.75v4.95L439.45,225.4h-5l-25.79-25.74Zm-31,31,25.75-25.7h5l25.79,25.76v4.93l-25.79,25.75H403.5L377.7,230.57Zm-31,31,25.78-25.74h5l25.74,25.74v4.94l-25.8,25.76h-5l-25.73-25.69Zm-31,31,25.76-25.73h4.92l25.83,25.79v4.9L346.41,318.3h-5l-25.77-25.73Zm-31,31,25.78-25.75h5l25.8,25.76v4.92l-25.8,25.76h-5l-25.79-25.76Zm-31,31,25.78-25.75h5l25.78,25.74v5l-25.78,25.74h-4.94l-25.79-25.76Zm-31,31,25.8-25.76h4.93l25.8,25.77v4.91l-25.8,25.76h-4.94l-25.79-25.75Zm-31,31,25.78-25.74h5l25.79,25.75v4.93l-25.78,25.74h-5L191.6,416.44Zm-31,31,25.78-25.73h4.93l25.81,25.76v4.91l-25.8,25.76h-5L160.6,447.4Zm-31,31,25.8-25.76h4.94l25.8,25.76v4.92l-25.79,25.76h-5l-25.79-25.76Zm-31,30.95,25.78-25.74h5l25.78,25.74v5l-25.77,25.73h-5L98.54,509.35Zm-31,31,25.76-25.73h4.92l25.81,25.77v4.93L98.29,566h-5L67.56,540.31Zm-31,31,25.77-25.73h5l25.77,25.73v4.92L67.22,597H62.27L36.54,571.32ZM36.19,628H31.31L5.51,602.22V597.3L31.3,571.55H36.2L62,597.33v4.85Zm26.11,31L36.54,633.21v-5l25.73-25.69h4.94l25.83,25.78v4.91L67.29,658.94Zm35.94,31H93.32L67.56,664.18v-5l25.76-25.73h5l25.76,25.73v4.93Zm26.09,31-25.8-25.76v-5l25.74-25.71h5l25.76,25.73v5L129.3,720.88Zm35.9,31h-4.87l-25.81-25.77v-4.93l25.78-25.74h5l25.78,25.74V726Zm31.08,30.95h-5L160.6,757.08v-5l25.71-25.68h5l25.79,25.75v4.92Zm26.08,31L191.6,788v-5l25.79-25.74h4.92l25.81,25.77V788l-25.8,25.76Zm35.9,31h-4.89L222.62,819v-4.92l25.79-25.76h4.93l25.8,25.76v4.86Zm26.12,31L253.64,850v-5l25.76-25.72h4.95L310.14,845v5l-25.78,25.74Zm35.93,30.95h-4.92l-25.79-25.74V876l25.79-25.74h5L341.18,876v4.86Zm56.84,5.23-25.8,25.76h-4.92l-25.8-25.75v-5l25.75-25.7h5L372.19,907Zm.28-5.23-25.79-25.75V876l25.8-25.75h4.95L403.22,876v4.9l-25.79,25.75Zm5.24,5.23V907l25.8-25.76h4.92L434.22,907v4.87l-25.84,25.81H403.5Z"/></g></g></svg>