<svg xmlns="http://www.w3.org/2000/svg" viewBox="0 0 1881.67 1200"><defs><style>.cls-1{fill:#ebebeb;}</style></defs><title>back_kontakt</title><g id="Warstwa_2" data-name="Warstwa 2"><g id="Warstwa_2-2" data-name="Warstwa 2"><path class="cls-1" d="M1859.52,54.89l-25.8-25.76V24.21L1858,0h-.57l-24,23.92h-5L1804.54,0H1804l24.25,24.21v4.91l-25.8,25.76h-5l-25.79-25.75V24.2L1795.92,0h-.55l-24,23.92h-5L1742.5,0h-.55l24.25,24.21v4.91L1740.4,54.88h-5l-25.79-25.76V24.21L1733.89,0h-.56l-24,23.92h-4.94L1680.49,0h-.58l24.25,24.21v4.91l-25.8,25.76h-4.95l-25.79-25.74V24.2L1671.87,0h-.58l-24,23.92h-4.95L1618.44,0h-.56l24.25,24.21v4.91l-25.79,25.75h-4.2l-25-24.94V25l25.1-25h-.59l-24.78,24.74h-5L1557.13,0h-.56l25.08,25V30l-25.8,25.76h-5L1525.09,30V25l25.08-25h-.55l-24.78,24.74h-5L1495.09,0h-.55l25.06,25,0,5-25.77,25.72h-5L1463.06,30V25l25.08-25h-.55L1462.8,24.74h-5L1433.06,0h-.56l25.07,25V30l-25.8,25.75h-4.95L1401.05,30V25L1426.1,0h-.57l-24.78,24.74h-4.94L1371,0h-.59l25.08,25V30l-25.8,25.76h-4.92L1339,30V25l25.08-25h-.59l-24.78,24.74h-4.93L1309,0h-.59l25.08,25V29.9l-25.85,25.81h-4.88L1277,30V25l25.07-25h-.59L1276.7,24.74h-4.95L1247,0h-.57l25.05,25v5l-25.78,25.74h-4.94L1214.95,30V25l25-25h-.57l-24.78,24.74h-4.89L1184.95,0h-.62l25.09,25.05V30l-25.8,25.75h-4.93L1152.9,30v-4.8L1178.12,0h-.67l-24.83,24.78h-4.92L1122.92,0h-.59l25.06,25.06V30L1121.6,55.75h-4.93l-24.29-24.24-1.5-1.5V25l25-25h-.59L1090.5,24.78h-4.86L1060.86,0h-.59l25.11,25.11v4.79l-25.91,25.86h-4.89L1028.84,30V25.14L1054,0h-.59l-24.82,24.78h-5L998.83,0h-.59l25.07,25.07v5L997.59,55.75h-5L966.79,30V25.08L991.9,0h-.59L966.51,24.78h-4.93L936.76,0h-.57l25.09,25.07V30L935.5,55.75h-4.94L904.76,30V25.07L929.87,0h-.57L904.49,24.78h-5L874.71,0h-.56l25.11,25.08V30l-25.8,25.76h-5L842.72,30V25.07L867.83,0h-.55L842.45,24.78h-5L812.68,0h-.55l25.11,25.08V30L811.45,55.74h-5L780.69,30V25.08L805.79,0h-.56L780.42,24.78h-4.94L750.67,0h-.58L775.2,25.08V30L749.4,55.75h-4.95L718.67,30V25.07L743.78,0h-.58L718.38,24.78h-5.22V30L687.38,55.74h-5.23V61L656.36,86.71h-5.24v5.23l-25.78,25.74h-5.24v5.23l-25.77,25.74H589.1v5.23l-25.77,25.73h-5.25v5.24L532.3,210.58h-5.24v5.23l-25.8,25.75H496v5.5h.27v.2L470.51,273h-5.23v5.22L439.52,304h-5.24v5.2L408.47,335h-5.19v5.18l-25.84,25.79h-5.19v5.22L346.46,396.9h-5.22v5.21l-25.79,25.75H310.2v5.24l-25.77,25.73h-5.22V464l-25.8,25.76h-5.23V495l-25.79,25.75h-5.22V526l-25.79,25.75h-5.23V557L160.37,582.7h-5.24v5.23l-25.78,25.74h-5.24v5.23L98.34,644.64H93.11v5.23L67.34,675.6H62.09v5.24L36.31,706.57H31.07v5.23L5.28,737.54H0V743H5.28l25.8,25.74V774h5.24l25.78,25.73V805h5.25l25.77,25.74V836h5.24l25.77,25.74v5.22h5.23l25.79,25.74v5.22h5.22l25.8,25.76v5.22h5.23l25.79,25.74v5.2h5.18l25.82,25.77v5.22h5.23l25.8,25.75v5.2h5.22l25.79,25.75v5.22h5.23l25.81,25.77v5.2h5.21l25.8,25.76v5.22h5.22l25.8,25.76v5.22h5.23l25.78,25.74v5.21h5.22L462.94,1200h.56l-23.73-23.7v-4.94l25.74-25.71h4.3l25,24.91v4.94L470.21,1200h.59L495,1175.78h5L524.27,1200h.56l-24.53-24.5v-5l25.77-25.73h5l25.77,25.73v4.91L532.21,1200h.61l24.25-24.22h5L586.3,1200h.55l-24.56-24.52,0-4.94,25.77-25.73h5l25.77,25.73v5L594.29,1200h.55l24.25-24.22h5L648.32,1200h.55l-24.52-24.49v-5l25.75-25.72h5l25.79,25.75v4.92L656.31,1200h.55l24.26-24.22h5L710.35,1200h.57l-24.56-24.51v-4.94l25.79-25.74h5l25.79,25.75v4.92L718.35,1200h.57l24.24-24.22h5L772.39,1200h.55l-24.55-24.52v-4.92l25.78-25.75h5l25.79,25.75v4.92L780.38,1200h.55l24.25-24.22h5L834.42,1200H835l-24.55-24.5v-4.95l25.78-25.74h5L867,1170.56v4.92L842.41,1200H843l24.26-24.22h5L896.44,1200H897l-24.56-24.53v-4.91l25.79-25.74h5L929,1170.55v4.94L904.43,1200H905l24.24-24.22h4.94L958.45,1200h.6l-24.56-24.52v-4.92l25.79-25.75h5L991,1170.55v5L966.47,1200H967l24.25-24.22h5l24.25,24.22h.57l-24.54-24.5v-5l25.77-25.74h5l25.82,25.77v4.88L1028.49,1200h.58l24.26-24.22h5l24.25,24.22h.59l-24.56-24.5v-4.95l25.79-25.74h5l25.78,25.75v4.93L1090.54,1200h.59l24.27-24.22h4.92l24.26,24.22h.59l-24.56-24.53v-4.88l25.79-25.77h4.95l25.78,25.74v5l-24.54,24.5h.59l24.24-24.22h5l24.26,24.22h.56l-24.54-24.5v-5l25.77-25.74h5l25.77,25.74v5l-24.54,24.5h.57l24.25-24.22h5l24.24,24.22h.59l-24.58-24.53v-4.88l25.81-25.77h4.94l25.8,25.77v4.88L1276.64,1200h.58l24.27-24.22h4.92l24.25,24.22h.59l-24.53-24.49v-5l25.78-25.75h4.93l25.77,25.74v4.85l-24.63,24.6h.64l24.26-24.22h5l24.25,24.22h.58l-24.56-24.52v-5l25.8-25.76h5.18L1425,1170v4.94L1399.91,1200h.58l24.82-24.78h5l24.83,24.78h.55l-25.09-25.06v-5l25.78-25.74h5l25.78,25.74v5L1462,1200h.54l24.82-24.78h5l24.82,24.78h.54l-25.11-25.08V1170l25.8-25.76h5l25.78,25.74v5L1524,1200h.54l24.82-24.78h5l24.82,24.78h.54l-25.08-25v-5l25.76-25.73h5l25.8,25.76v4.92L1586,1200h.54l24.83-24.78h5l24.82,24.78h.57l-25.11-25.06V1170l25.8-25.75h4.93l25.8,25.76v4.92L1648,1200h.57l24.82-24.78h5L1703.2,1200h.54l-25.1-25.07V1170l25.79-25.75h5l25.8,25.76v4.92L1710.08,1200h.54l24.82-24.78h5l24.82,24.78h.58l-25.14-25.1V1170l25.79-25.74h5l25.8,25.76v4.9l-25.14,25.1h.6l24.83-24.78h4.9l24.83,24.78h.59l-25.13-25.1V1170l25.81-25.78h4.92l25.79,25.74v4.94L1834.12,1200h.57l24.82-24.78h5l17.2,17.17v-.56l-16.93-16.9V1170l16.93-16.9v-.58l-17.22,17.19h-4.92L1833.74,1144V1139l25.78-25.75h4.94l17.21,17.2v-.59l-16.93-16.9v-4.92l16.93-16.9v-.58l-17.21,17.19h-4.94L1833.74,1082v-5l25.78-25.74h4.94l17.21,17.19V1068l-16.93-16.9v-4.92l16.93-16.9v-.58l-17.21,17.2h-4.93l-25.79-25.75,0-4.92,25.82-25.77h4.91l17.23,17.2V1006l-16.93-16.9v-4.91l16.93-16.9v-.59l-17.21,17.19h-4.94l-25.8-25.76,0-4.91,25.78-25.75h4.94l17.21,17.19v-.59l-16.93-16.9v-4.91l16.93-16.91v-.59L1864.46,922h-4.93l-25.81-25.77v-4.89l25.8-25.76h4.94l17.21,17.19v-.58l-16.93-16.9v-4.92l16.93-16.9v-.57L1864.47,860h-4.94l-25.8-25.76,0-4.93,25.78-25.74h4.94l17.21,17.19v-.57l-16.93-16.9v-4.87l16.93-16.9v-.63l-17.21,17.2h-4.93l-25.81-25.77,0-4.92,25.79-25.75h4.93l17.21,17.2v-.58l-16.93-16.9v-4.92l16.93-16.9V719l-17.21,17.19h-4.94l-25.8-25.76,0-4.93,25.72-25.68h5.06l17.16,17.13v-.57l-16.93-16.9v-5l16.93-16.91V657l-17.26,17.23h-4.88l-25.82-25.78v-4.89l25.79-25.76h4.94L1881.67,635v-.56l-17-16.93,0-4.92,16.93-16.91v-.57l-17.24,17.21h-4.91l-25.81-25.78v-4.9l25.8-25.77h4.93l17.23,17.2v-.61l-16.93-16.9v-4.91l16.93-16.91v-.56l-17.21,17.18h-5l-25.78-25.75v-4.91l25.79-25.75h5l17.21,17.18v-.56l-16.93-16.91v-4.95l16.93-16.9v-.57l-17.22,17.19h-4.94l-25.79-25.76v-4.9l25.8-25.77h4.93l17.23,17.2v-.57l-16.93-16.91v-4.94l16.93-16.91v-.57l-17.21,17.19h-5l-25.79-25.76v-4.9l25.79-25.77h4.94l17.22,17.2v-.57l-16.93-16.91,0-4.93,17-16.94v-.56l-17.23,17.2h-4.93l-25.8-25.77v-4.91l25.78-25.75h5l17.22,17.18v-.56l-17-16.93,0-4.92L1881.67,286v-.57l-17.23,17.2h-4.93l-25.8-25.77V272l25.81-25.78h4.92l17.22,17.19v-.57l-16.93-16.91V241l16.93-16.91v-.58l-17.23,17.2h-4.92l-25.81-25.77V210l25.79-25.74h5l17.2,17.18v-.56L1864.75,184v-5l16.93-16.9v-.56l-17.2,17.18h-5L1833.72,153v-4.93l25.8-25.75h4.95l17.21,17.19v-.57L1864.74,122l0-4.92,17-16.92v-.58l-17.21,17.19h-4.95l-25.8-25.75V86.15l25.81-25.76h4.92l17.23,17.2V77l-17-16.92,0-4.91,16.93-16.91v-.58l-17.21,17.2Zm-62,5.5h4.94l25.81,25.76v4.91l-25.8,25.76h-5l-25.79-25.74V86.14ZM1151.35,891.56v-.24l25.79-25.74h4.92l25.81,25.77v4.92L1195.14,909,1182.07,922h-4.93l-25.49-25.45v-5Zm-62.27,0,26-26H1120l25.8,25.76v5.22h.28v.2l-25.79,25.76h-4.93l-25.82-25.78v-5.18Zm.23-61.94v-.23l25.78-25.74h5l25.78,25.74v4.93L1120,860.1h-4.92l-25.53-25.5v-5Zm-62.25,0,26-26h5l25.77,25.74v5.22h.29v.23l-25.8,25.75h-4.92l-25.83-25.77v-5.2Zm.25-61.94v-.24l25.76-25.73h5l25.76,25.73v5L1058,798.15h-5l-25.53-25.5v-5Zm-62.26,0,26-26h5l25.78,25.73v5.24h.24v.23l-25.78,25.74H991.3l-25.8-25.76v-5.21Zm.22-61.93v-.22L991,679.79h5l25.78,25.73v5L996,736.22h-4.94L965.5,710.7v-4.94Zm-5.25,5v.2l-25.8,25.77h-4.93L904.6,712.09H905v-5.51h-.48l26-26h4.93l24.69,24.65h-.43v5.5Zm-458.2-29.93v-4.91l25.8-25.76h4.93l25.79,25.74v5l-25.76,25.72h-5Zm25.51,26v5l-25.79,25.74H496.6l-25.8-25.76v-4.92l25.79-25.75h5Zm31.31-87.68h4.94l25.82,25.76v4.9l-25.8,25.76h-5l-25.78-25.74v-4.95Zm-.31-4.7-12.56-13.06,12.56,12.53Zm346.43,30.17v-.22l25.79-25.76h4.94l25.78,25.74v5l-25.79,25.75h-4.93L905,649.61v-5Zm-62.25,0,26-26h4.93l25.8,25.76v5.22h.24v.23L873.74,675.6h-4.93L843,649.87v-5.22ZM625.88,618.88V614l25.82-25.76h4.92L682.43,614v4.93l-25.8,25.76h-4.92Zm25.51,26v5L625.62,675.6h-5l-25.79-25.73v-5l25.79-25.73h5Zm897.68-89.31-25.83,25.77h-4.93l-25.78-25.74v-5.07l25.66-25.62h5l25.84,25.78Zm.29.31h4.9L1575,576.63l5,5v4.92l-25.8,25.76h-5l-25.8-25.76v-4.9ZM1518,581.65v.52l-12.46-13Zm0,1.12v3.83l-7.61,7.6-18.19,18.15h-4.91l-25.81-25.77v-5l25.69-25.64h5Zm-31-27.28-25.93,25.88h-4.8l-25.8-25.76v-4.91l25.81-25.76h5.2v-1L1487,550.53Zm-31,26.18v4.9l-25.8,25.77h-4.93l-25.79-25.75,0-4.92,25.82-25.77h4.91Zm-31-26-25.78,25.74h-4.95l-25.8-25.75v-4.92l25.81-25.76h4.92L1425,550.7Zm-31,26v4.94l-25.79,25.75h-5l-25.78-25.74v-5l25.79-25.74h4.93Zm-31-26-25.8,25.76h-5l-25.79-25.74V550.7l25.8-25.75h4.93L1363,550.71Zm-31,26v4.94l-25.79,25.75h-5l-25.78-25.74v-5l25.79-25.74h4.93Zm-31-26-25.8,25.76h-5l-25.79-25.75v-4.91l25.8-25.76h4.93l25.81,25.76Zm-31,26v5l-25.78,25.74h-4.94l-25.79-25.76v-4.92l25.8-25.76h4.92Zm-31-26-25.79,25.74h-4.94l-25.8-25.74V550.7l25.81-25.75h4.91l25.81,25.76Zm-31,26v4.94l-25.79,25.75h-4.95l-25.79-25.74v-5l25.8-25.74h4.92Zm-31-26-25.8,25.76h-5l-25.76-25.73v-5l25.78-25.73h4.93l25.81,25.76Zm-31,26v4.92l-25.79,25.76h-5l-25.79-25.76v-4.92l25.8-25.76H1120Zm-31-26L1089,581.38h-4.23l-25-24.94v-4.92l25.8-25.76h4.21l25,24.94Zm-30.56,25.74h-.46v5.23L1058,612.35h-5l-24.68-24.65h.44v-5.23l25.78-25.74h5Zm-29.94-24.92-25.8,25.74h-4.92l-25.8-25.76v-4.92l25.8-25.76h5l25.76,25.73Zm-31,26v4.93L997.5,613.18h-4.91l-25.8-25.76v-4.94l25.79-25.75h5Zm-31-26-25.8,25.75h-4.95l-25.78-25.74V551.5l25.78-25.75h4.94l25.8,25.76Zm-31,26v4.94l-25.8,25.76h-4.91l-25.81-25.78v-4.9l25.8-25.77h4.93Zm-31-26-25.8,25.76h-4.92l-25.8-25.76v-4.92l25.8-25.76h4.92l25.8,25.76Zm-31,26.06v4.89l-25.82,25.78h-4.9L843,587.69v-5h-.3v-.2l25.81-25.77h4.92Zm-31-26.06-25.8,25.76h-4.92l-25.8-25.75v-4.93l25.8-25.76h4.92l25.8,25.76Zm-31,26.06v5.2h.28v.2l-25.8,25.77h-4.94L781,587.9v-5.2h-.48l26-26h4.93Zm-31-26L779.91,582.7h-4.16L750,556.95V552l25.79-25.74h5.2l25.26,25.22ZM775.47,583v5l-25.78,25.74h-5L719,587.94v-5l25.77-25.73h5Zm-31-26L718.67,582.7h-5L688,557v-5l25.75-25.72h5L744.44,552Zm-31,26v5l-25.78,25.74h-4.94l-25.8-25.77V583l25.79-25.76h4.94Zm-56.52,62,25.79-25.76h5l25.78,25.73v5L687.66,675.6h-5l-25.79-25.76Zm31-26v-5l25.77-25.73h4.94l25.78,25.73v5l-25.76,25.73h-5Zm31,26,25.77-25.73h5l25.78,25.74v5L749.7,675.6h-5L719,649.88Zm31-26V614l25.8-25.76h5l25.77,25.73v5l-25.77,25.74h-5Zm31,26.05,25.81-25.76h5l25.79,25.76v4.91L811.72,675.6h-5L781,649.84Zm31-26V614l25.8-25.75h5.15l25.29,25.25v4.92l-26.31,26.27H837.8Zm61.76-.51v-4.92l25.8-25.76h4.92l25.8,25.76v4.92L904.5,644.11h-5Zm62,0,0-4.92,25.78-25.74h4.94l25.8,25.77v4.9l-25.78,25.75h-5Zm31,31.28v-5.24l25.78-25.74h4.94l24.67,24.64h-.41v5.24L996,674.28h-5l-24.66-24.63Zm31-31.27v-4.92l25.8-25.76h4.24l25,24.92v5L1027,643.31h-4.26Zm29.51,25.2,25.76-25.73h5l25.76,25.73v5L1058,674.28h-5l-25.76-25.73Zm31-26,0-4.94,25.78-25.74h5l25.78,25.74v5l-25.77,25.73h-5Zm31,26,25.79-25.75h5l25.79,25.75v4.93l-25.79,25.75h-5l-25.79-25.75Zm31-26v-5l25.76-25.73h5l25.8,25.76v4.92l-25.79,25.75h-5Zm31,26,25.78-25.73h5l25.78,25.74v5l-25.78,25.74h-5l-25.78-25.73Zm31-26v-4.94l25.8-25.74h4.94l25.8,25.76v4.92l-25.79,25.75h-5Zm31,26,25.78-25.75h5l25.77,25.73v5l-25.77,25.73h-5l-25.78-25.75Zm31-26v-4.92l25.79-25.75h5l25.8,25.76v4.92l-25.79,25.75h-5Zm31,26,25.77-25.73h5l25.78,25.74v5l-25.78,25.74h-5l-25.77-25.73Zm31-26v-4.95l25.79-25.74h5l25.8,25.76v4.92l-25.79,25.75h-5Zm31,26,25.78-25.73h5L1394,643.59v5l-25.78,25.74h-5l-25.78-25.73Zm31-26v-4.93l25.8-25.75h4.95L1425,612.62v4.95l-25.77,25.74h-5Zm31,26,25.78-25.74h4.94L1456,643.61v4.9l-25.8,25.77h-4.94l-25.78-25.74Zm31-26v-4.92l25.8-25.76h4.92l25.8,25.76v4.91l-25.79,25.76h-4.94Zm31,26.05,25.8-25.76h4.93L1518,643.59v5l-25.76,25.72h-5l-25.8-25.76Zm31-26v-4.95l25.79-25.74h4.94l25.82,25.76v4.9l-25.8,25.76h-5Zm31,26,25.79-25.75h5l25.79,25.75v4.92l-25.8,25.76h-5l-25.8-25.76Zm31-26v-5l25.79-25.73h5l25.78,25.74v5l-25.78,25.74h-5Zm30.73-36.2h-4.91l-25.82-25.76v-4.9l25.83-25.77h4.91l25.78,25.74v4.94Zm0-61.93h-4.93L1558,497.17l-3.48-3.48v-5L1580.26,463h5.08l25.74,25.74v4.94Zm-5.21.35v4.85l-25.8,25.76h-4.94l-25.82-25.76v-5l25.7-25.65h5Zm-31-26.25-25.94,25.9h-4.87l-25.74-25.74v-4.85L1518.42,463h4.87l25.79,25.79Zm-31,26.25,0,4.74-25.91,25.86h-4.64l-26-27v-3.54l25.9-25.86h4.83Zm-31-26-25.69,25.66h-5l-25.8-25.76v-4.91L1456.28,463h5L1487,488.77Zm-31,26v4.89l-25.79,25.76h-4.94l-25.8-25.76,0-4.91L1425.26,494h4.94Zm-31-26.06-25.78,25.75h-4.94l-25.8-25.76v-4.92l25.8-25.76h4.94L1425,488.76Zm-31,26v4.93l-25.78,25.74h-5l-25.78-25.73v-5L1363.22,494h5Zm-31-26.05-25.8,25.76h-5l-25.79-25.75v-4.94L1332.21,463h5l25.8,25.77Zm-31,26.05v4.93l-25.78,25.74h-5l-25.77-25.73v-5L1301.19,494h5Zm-31-26.05-25.79,25.75h-5l-25.79-25.76v-4.91L1270.18,463h5l25.8,25.77Zm-31,26v5l-25.77,25.73h-5l-25.78-25.75v-4.91L1239.16,494h5Zm-31-26-25.8,25.76h-4.95l-25.79-25.74v-4.93l25.8-25.76h4.93l25.8,25.77Zm-31,26.05v4.93l-25.78,25.74h-5l-25.78-25.73v-5L1177.13,494h5Zm-31-26.05-25.79,25.75h-4.2l-25-24.94V489.6l25.84-25.78h4.15l25,25Zm-30.56,25.76h-.45v5.21l-25.79,25.75h-5l-24.69-24.65h.47v-5.23l25.78-25.72h5Zm-29.91-24.94-25.8,25.76h-5l-25.8-25.76v-4.92l25.82-25.77h4.91l25.82,25.77Zm-31,26v4.9l-25.81,25.75h-5l-25.76-25.72v-5l25.76-25.72h5Zm-31.06-26-25.77,25.72h-5l-25.8-25.76v-4.92l25.82-25.77h4.91l25.81,25.76Zm-31,26v5l-25.76,25.72h-5l-25.77-25.73v-5l25.78-25.73h5Zm-31-26-25.8,25.75h-4.95l-25.78-25.74v-4.95l25.8-25.76h4.9l25.82,25.77Zm-31,26v5l-25.77,25.73h-5l-25.78-25.75v-4.91l25.79-25.75h5Zm-31-26-25.8,25.76h-4.92l-25.8-25.76v-4.92l25.82-25.77h4.88l25.82,25.77Zm-31,26v4.9l-25.79,25.75h-5l-25.79-25.75v-4.9l25.8-25.75h4.95Zm-31-26-25.8,25.76h-4.92l-25.8-25.75v-4.93l25.82-25.77h4.88l25.82,25.77Zm-31,26v4.91l-25.79,25.75h-5L781,525.74v-5h-.27v-.23l25.79-25.74h5Zm-31-26-25.78,25.74h-4.94l-25.79-25.75v-4.93l25.81-25.77h4.9l25.8,25.76Zm-31,26v5.2h.28V526l-25.78,25.74h-4.95L719,526v-5.23h-.52l26-26h5Zm-31-26-26.31,26.26h-4.15L688,495v-5l25.77-25.74h5.15l25.3,25.25Zm-30.74-30.44L687.66,489.8h-.25l26-26ZM687.65,495.3,713.43,521l0,4.93-25.82,25.77h-4.93L656.91,526v-4.84l25.86-25.83Zm-5.22,56.78V557l-25.8,25.75H651.7l-25.82-25.76v-4.81l25.87-25.84h4.88Zm-31,30.9v4.94l-25.79,25.75H620.7l-25.82-25.76V583l25.83-25.77h4.91ZM615.32,608.9l5.07,5.06v4.92l-25.8,25.76h-5l-25.8-25.76V614l25.84-25.77h4.9Zm-82.48,98,25.77-25.74h5l25.82,25.77v4.88l-25.83,25.77h-4.93l-25.78-25.74Zm31-26V675.9l25.79-25.75h5l25.79,25.75v4.92l-25.8,25.76h-5Zm31,26,25.79-25.74h5l25.78,25.75v4.93l-25.79,25.75h-4.93l-25.8-25.74Zm31-26v-4.9l25.81-25.76h4.95l25.79,25.75v4.93l-25.8,25.75H651.7Zm31,26.08,25.79-25.77h4.95l25.78,25.74v5l-25.79,25.74h-4.93l-25.81-25.77Zm31-26v-5l25.75-25.73h5l25.75,25.72v5l-25.76,25.72h-5Zm31,26,25.77-25.74h5l25.77,25.74v5l-25.78,25.74h-4.95L719,711.81Zm31-26V675.9l25.79-25.75h5l25.77,25.74v5l-25.77,25.73h-5Zm31,26.07,25.81-25.77h4.94l25.8,25.77v4.88l-25.81,25.77h-4.93L781,711.77Zm31-26.05V675.9l25.79-25.75h4.94l25.78,25.74v4.94l-25.79,25.74h-4.95Zm31,26,25.78-25.75h4.93l25.77,25.74v4.89l-25.84,25.8h-4.87L843,711.82Zm31-26V675.9l25.79-25.75H905l25.28,25.24v4.93L904,706.57h-4.15Zm61.73-.51V675.4l25.78-25.75h4.27l25,24.91v4.94L965,705.25h-4.23Zm60.52-.8v-5l25.77-25.73h5l25.77,25.73v5L1027,705.25h-5Zm31,26,25.76-25.73h5l25.76,25.73v5L1058,736.22h-5l-25.77-25.74Zm31-26,0-4.94,25.77-25.73h5l25.77,25.73v5L1089,705.25h-5Zm31,26.05,25.78-25.75h5l25.78,25.75v4.92l-25.79,25.76h-5l-25.79-25.76Zm31-26v-5l25.75-25.72h5l25.79,25.75v4.92l-25.8,25.76h-5Zm31,26,25.78-25.73h5l25.78,25.74v4.94l-25.79,25.75h-4.95l-25.79-25.74Zm31-26v-4.94l25.79-25.74h5l25.79,25.75v4.92l-25.8,25.76h-4.94Zm31,26,25.78-25.75h5l25.76,25.73v5l-25.78,25.74h-4.94l-25.79-25.76Zm31-26v-4.92l25.78-25.75h5l25.79,25.75v4.92l-25.8,25.76h-5Zm31,26,25.76-25.73h5l25.78,25.74v4.94l-25.79,25.75h-5l-25.78-25.74Zm31-26v-4.95l25.78-25.74h5L1363,674.57v4.92l-25.8,25.76h-5Zm31,26,25.77-25.73h5l25.8,25.75v4.91l-25.81,25.77h-4.93l-25.78-25.74Zm31-26v-4.91l25.79-25.74h5L1425,674.56v4.94l-25.79,25.75h-4.92Zm31,26.06,25.78-25.75h4.94l25.8,25.77v4.89l-25.81,25.76h-4.92l-25.79-25.75Zm31-26v-4.92l25.79-25.75h5L1487,674.56v5l-25.79,25.74h-4.93Zm31,26.06,25.8-25.76h5L1518,705.52v5l-25.81,25.75h-4.9l-25.81-25.77Zm31-26v-5l25.77-25.74h5l25.82,25.77v4.88l-25.83,25.77h-4.93Zm31,26,25.8-25.75h5l25.8,25.76v4.9l-25.81,25.77h-4.93l-25.81-25.77Zm31-26v-4.95l25.79-25.74h5l25.78,25.75v4.93l-25.79,25.75h-4.93Zm31,26.05,25.82-25.77h4.92l25.8,25.76v4.91l-25.81,25.76h-4.9l-25.83-25.77Zm25.82-31.28-25.82-25.76v-4.9l25.81-25.76h4.95l25.79,25.75v4.93l-25.8,25.75Zm4.92-61.93h-4.92l-25.82-25.77v-4.91l25.82-25.76h4.92l25.8,25.75v4.93Zm0-61.94h-4.92l-25.82-25.76v-4.73L1611.52,494h4.79l25.8,25.8v4.87Zm-4.93-61.93-25.82-25.82v-4.83L1611.39,432h4.92l25.8,25.77v5l-25.66,25.64Zm-.3-56.72-25.78,25.75h-4.92l-25.82-25.76v-4.91l25.82-25.77h4.92l25.78,25.75Zm-31,26v4.81l-25.92,25.88h-4.82l-25.82-25.82v-4.85L1549.35,432h4.94Zm-31-26.06-25.83,25.77h-4.92l-25.79-25.74v-4.95l25.78-25.74h4.95l25.82,25.77ZM1518,457.79v5l-25.69,25.65h-5l-25.8-25.8v-4.86l25.8-25.76h4.93Zm-31-26-25.8,25.76h-4.92l-25.8-25.76v-4.92l25.8-25.76h4.92l25.8,25.76Zm-31,26.06v4.9l-25.8,25.77h-4.93l-25.81-25.77v-4.89l25.8-25.76h4.94Zm-31-26-25.78,25.74h-4.95l-25.8-25.75v-4.93l25.79-25.74h5L1425,426.81Zm-31,26v4.94l-25.79,25.75h-5l-25.78-25.74v-5L1363.23,432h5Zm-31-26-25.8,25.76h-5l-25.79-25.74v-4.95l25.78-25.74h5l25.8,25.76Zm-31,26v4.94l-25.79,25.75h-5l-25.78-25.74v-5L1301.18,432h5Zm-31-26-25.8,25.76h-5l-25.79-25.75v-4.92l25.78-25.75h5l25.8,25.76Zm-31,26v5l-25.78,25.74h-4.94l-25.79-25.76V457.8L1239.16,432h5Zm-31-26-25.8,25.76h-4.22l-24.93-24.91v-5l25.78-25.75h4.2l25,24.94Zm-30.57,25.76h-.46v5.22l-25.79,25.75h-4.95l-24.71-24.66h.48v-5.18l25.8-25.77h4.94Zm-29.9-24.93-25.8,25.76h-4.92l-25.82-25.77v-4.9l25.83-25.78h4.9l25.81,25.77Zm-31,26v4.94l-25.78,25.74h-5l-25.79-25.73v-5l25.79-25.74h4.94Zm-31-26-25.8,25.76h-5l-25.8-25.76v-4.92l25.81-25.77h4.93l25.81,25.77Zm-31,26.06v4.89l-25.8,25.76h-5l-25.77-25.73v-5l25.78-25.74h5Zm-31.06-26-25.76,25.73h-5l-25.8-25.76v-4.92l25.81-25.77h4.93l25.78,25.74Zm-31,26v5L997.54,489.3h-5l-25.78-25.74v-4.94l25.79-25.75h5Zm-31-26-25.8,25.76h-4.94l-25.78-25.75v-4.94l25.79-25.76h4.92l25.81,25.77Zm-31,26v4.94L935.5,489.3h-4.94l-25.79-25.76v-4.9l25.8-25.77h4.93Zm-31-26-25.8,25.76h-4.92l-25.8-25.76v-4.92l25.81-25.77h4.9l25.81,25.77Zm-31,26.06v4.89l-25.8,25.76h-4.93l-25.8-25.76v-4.89l25.81-25.77h4.92Zm-31-26.06-25.8,25.76h-4.92l-25.8-25.76v-4.93l25.81-25.77h4.9l25.81,25.77Zm-31,26.06v4.89l-25.8,25.76h-4.95l-25.8-25.75v-4.92l25.8-25.76h4.93Zm-31-26-25.78,25.74h-4.94l-25.79-25.75v-4.93l25.8-25.77h4.92l25.79,25.75Zm-31,26v4.92L749.4,489.3h-4.95L719,463.83v-5h-.29v-.2l25.79-25.76h4.93Zm-31-26.05-12.85,12.83-13,12.93h-4.93L688,432.89v-5h-.3v-.24l25.79-25.74h4.92l25.81,25.77Zm-56.3.79,25.29,25.25v4.93l-26.3,26.26h-4.16L656.91,464v-4.9l25.8-25.77Zm-5.45,56.74V495l-25.8,25.75h-4.92L625.88,495v-4.82l25.81-25.78h4.93Zm-31,30.95V526l-25.79,25.75h-4.93l-25.25-25.2-.55-.55v-5l25.76-25.72h5Zm-31,31.05v4.84L594.6,582.7h-4.94l-25.82-25.76V552l25.77-25.72h5Zm-31,30.92v4.87l-25.83,25.77h-4.94l-25.78-25.74v-5l25.75-25.7h5Zm-31.06,32v3.82l-7.59,7.58-18.2,18.17h-4.91l-25.81-25.77v-4.94l25.77-25.73h4.91Zm-31,29.86v4.91L501.53,675.6h-4.94L470.8,649.85v-4.92l25.8-25.76h4.92Zm-31,31v4.9l-25.8,25.77h-4.94L439.8,680.84v-5l25.78-25.74h4.94Zm-31,30.95v4.94l-25.79,25.75h-4.92l-25.81-25.77v-4.91l25.79-25.74h5Zm-31,31v4.91l-25.81,25.77h-4.93l-25.78-25.74v-5l25.77-25.73h5Zm-25.51,31L434.58,743h4.92l25.79,25.74v4.94L439.5,799.47h-4.93l-25.8-25.77Zm31-26.07v-4.92l25.78-25.75h4.94l25.8,25.77v4.89l-25.81,25.76h-4.92Zm31,26L496.6,743h4.91l25.81,25.78v4.91l-25.78,25.74h-5L470.8,773.73Zm31-26.06v-4.9l25.8-25.76h5l25.76,25.73v5l-25.81,25.75h-4.9Zm31,26L558.62,743h4.95l25.82,25.78v4.87l-25.82,25.77h-5l-25.77-25.74Zm31-26v-4.91l25.8-25.75h5l25.8,25.76v4.9l-25.81,25.77h-4.93Zm31,26L620.68,743h4.92l25.8,25.76v4.92l-25.78,25.75h-5l-25.79-25.74Zm31-26.06v-4.89l25.82-25.77h4.92l25.8,25.76v4.91l-25.81,25.76h-4.9Zm31,26.09L682.72,743h4.92l25.79,25.75v4.94l-25.78,25.74h-4.94L656.91,773.7Zm31-26.06v-4.95l25.77-25.74h5l25.76,25.72v5l-25.78,25.73h-4.93Zm31,26L744.75,743h4.95l25.78,25.73v5L749.7,799.47h-5L719,773.74Zm31-26v-4.9l25.8-25.76h5l25.77,25.74v4.95l-25.78,25.74h-4.93Zm31,26.06L806.77,743h4.93l25.81,25.78v4.87l-25.8,25.77h-4.94L781,773.7Zm31-26.06v-4.92l25.8-25.74h4.92l25.79,25.75v4.87l-25.85,25.81h-4.85ZM843,774v-5.27L868.77,743h5l24.67,24.64H898v5.16l-25.85,25.81h-4.89L842.55,774Zm31-31.26v-5l25.74-25.7H904L929,737v4.94l-25.77,25.74H899ZM903.49,768l25.78-25.74h4.94L960,768v4.91l-25.79,25.76h-4.94l-25.8-25.76Zm31-26V737l25.8-25.76h5.18l25.29,25.24v4.94l-26.3,26.25h-4.18Zm61.79-.49v-5l25.78-25.74h5l25.78,25.74v5L1027,767.18h-5Zm62,0v-4.91l25.8-25.76h5l25.78,25.74v5l-25.77,25.73h-5Zm31,26,25.79-25.75h5l25.79,25.75v4.93l-25.79,25.75h-5L1089.3,772.4Zm31-26v-5l25.76-25.73h5l25.8,25.76v4.92l-25.79,25.75h-5Zm31,26,25.78-25.73h5l25.78,25.74v5l-25.78,25.74h-5l-25.78-25.73Zm31-26v-4.94l25.8-25.74h4.94l25.8,25.76v4.92l-25.79,25.75h-5Zm31,26,25.78-25.75h5l25.77,25.73v5l-25.77,25.73h-5l-25.78-25.75Zm31-26V736.5l25.79-25.75h5l25.8,25.76v4.92l-25.79,25.75h-5Zm31,26,25.77-25.73h5l25.79,25.74v4.92l-25.8,25.76h-5l-25.77-25.73Zm31-26v-4.91l25.79-25.74h5l25.8,25.76v4.9l-25.81,25.77h-4.92Zm31,26.07,25.81-25.76h4.9L1394,767.48v4.91l-25.8,25.76h-4.92l-25.8-25.76Zm31-26.07v-4.87l25.81-25.78h4.92L1425,736.49v4.94l-25.79,25.75h-4.93Zm31,26,25.77-25.73h5L1456,767.46v4.93l-25.8,25.76h-4.94l-25.8-25.77Zm31-26v-4.92l25.8-25.76h4.91L1487,736.53v4.91l-25.78,25.74h-5Zm31,26,25.79-25.74h4.92L1518,767.46v4.95l-25.79,25.74h-4.93l-25.8-25.76Zm31-26v-5l25.78-25.73h4.95l25.82,25.78v4.87l-25.82,25.77h-5Zm31,26,25.81-25.76h4.94l25.81,25.76v4.92l-25.79,25.75h-5l-25.79-25.75Zm31-26V736.5l25.8-25.75h4.92l25.8,25.76v4.92l-25.78,25.75h-5Zm31,26,25.83-25.76h4.9l25.81,25.75v4.92l-25.8,25.76h-4.93l-25.81-25.76Zm31-26.08v-4.87l25.81-25.78h4.92l25.79,25.75v4.94l-25.78,25.74h-4.94Zm25.81-36.16-25.81-25.77v-4.89l25.79-25.77h4.95l25.78,25.74v5l-25.79,25.74Zm0-61.94-25.79-25.76v-4.91l25.79-25.76h5l25.78,25.73v5l-25.78,25.73Zm4.94-61.93h-4.94l-25.8-25.77v-4.9l25.79-25.76h4.94l25.78,25.74v5Zm0-61.93h-4.93l-25.81-25.77v-4.76L1642.53,463h4.8l25.78,25.74v4.95Zm0-62h-4.93l-25.79-25.75v-5L1642.4,401h4.92l25.81,25.77v4.93Zm-4.92-61.93-25.8-25.75v-5l25.77-25.72h5l25.77,25.73v5l-25.8,25.76Zm-.29.27v4.92l-25.8,25.76h-5l-25.76-25.73v-5l25.72-25.68h5Zm-31-26.08-25.85,25.82h-4.88l-25.81-25.77v-4.93l25.78-25.74h5l25.78,25.74Zm-31,26.12v4.95l-25.8,25.74h-4.94l-25.82-25.76v-4.9l25.82-25.76h4.94Zm-31-26-25.82,25.76h-4.93l-25.78-25.74v-4.95l25.79-25.74h4.92l25.82,25.76Zm-31.05,26,0,4.93-25.8,25.76h-4.93l-25.8-25.76v-4.91l25.8-25.76h4.93Zm-31-26-25.79,25.75h-4.94l-25.79-25.75v-4.92l25.8-25.76h4.92l25.8,25.76Zm-31,26.05v4.91l-25.79,25.76h-4.94l-25.8-25.76,0-4.93,25.78-25.74h4.94Zm-31-26-25.77,25.74h-5l-25.74-25.74v-4.93l25.8-25.75h4.95L1425,364.88Zm-31,26.06v4.91l-25.78,25.74h-5l-25.78-25.73v-5l25.78-25.73h5Zm-31-26.07-25.8,25.76h-5l-25.78-25.74v-5l25.78-25.74h5L1363,364.88Zm-31,26v5l-25.78,25.74h-5l-25.77-25.73v-5l25.76-25.73h5Zm-31-26-25.79,25.75h-4.23l-25-24.92v-4.93L1271.72,340H1276l25,24.93Zm-30.57,25.75h-.47v5.24l-25.77,25.73h-5l-24.68-24.65h.47v-5.22l25.77-25.74h5Zm-29.93-24.9-25.78,25.74h-4.93l-25.78-25.74v-5L1209.69,340h5l25.74,25.71Zm-31,26v5l-25.77,25.73h-5l-25.79-25.76v-4.9l25.79-25.77h4.95Zm-31-26-25.81,25.76h-4.91l-25.82-25.76v-4.91l25.8-25.75h5l25.78,25.74Zm-31,26v4.94l-25.78,25.74h-5l-25.78-25.73v-5l25.79-25.74h5Zm-31-26-25.81,25.77h-4.94l-25.8-25.76v-4.92L1085.61,340h5l25.78,25.74Zm-31,26.06v4.9l-25.8,25.76h-5l-25.76-25.73v-5l25.77-25.74h5Zm-31.06-26-25.77,25.73h-4.94L997.8,370.63v-4.92L1023.57,340h5l25.74,25.71Zm-31,26v5l-25.77,25.73h-5l-25.78-25.74v-4.94l25.78-25.75h5Zm-31-26L966.5,396.41h-4.93l-25.78-25.75,0-4.93L961.54,340h5l25.78,25.74Zm-31,26v4.94L935.5,427.35h-5l-25.79-25.76v-4.9l25.79-25.77h4.94Zm-31-26-25.8,25.76h-4.91l-25.81-25.77v-4.92L899.53,340h5l25.78,25.74Zm-31,26.06v4.9l-25.8,25.76h-4.94l-25.8-25.76v-4.9l25.81-25.77h4.93Zm-31-26.06-25.81,25.77h-4.91l-25.8-25.76V365.7L837.5,340h5l25.78,25.74Zm-31,26.06v4.9l-25.79,25.76h-5l-12.74-12.71-13.06-13v-4.91l25.8-25.76h4.94Zm-31-26-12.75,12.73-13,13h-4.92l-25.79-25.76V365.7L775.46,340h5l7.7,7.68,18.06,18Zm-31,26v4.92l-25.8,25.76h-4.93l-20.78-20.74-5-5v-4.94l25.79-25.74h5Zm-31-26-25.8,25.76h-4.91l-25.8-25.75v-5L713.42,340h5l25.77,25.73Zm-31,26v4.92l-25.8,25.76h-5l-25.76-25.73v-5l25.75-25.72h5Zm-31,31v5.22h.28v.2l-25.79,25.76H651.7L625.88,433v-5.18h-.5l26-26h4.94Zm-56.53,5.72,25.78,25.75v4.95L625.62,489.8H620.7L594.88,464v-4.91l25.82-25.77Zm-5.23,56.72V495l-25.85,25.81h-4.89L563.84,495v-4.86l25.83-25.77h4.94Zm-31,31v4.82l-25.87,25.82h-4.93L532.85,526v-4.91l25.83-25.79h4.92Zm-31,31,0,4.83L532.5,582.7h-4.73l-26-27v-3.61l25.84-25.8h4.9Zm-31,30.74v5l-25.84,25.8H496.6l-25.8-25.76V583l25.81-25.76h5.2v-.95Zm-31,31.15v4.9l-25.8,25.77h-4.93l-25.79-25.75,0-4.92,25.82-25.77h4.91Zm-31,30.94v4.95L439.52,675.6h-5l-25.79-25.74v-4.93l25.8-25.75h4.95Zm-31,31v5L408.5,706.57h-5l-25.78-25.73v-5l25.78-25.73h5Zm-31,31v4.92l-25.8,25.76h-5L346.73,711.8v-4.95l25.78-25.74h5Zm-31,31v4.94l-25.79,25.75h-5l-25.78-25.74v-5l25.76-25.73h5Zm-25.51,31L372.52,743h5l25.8,25.76v4.9l-25.81,25.77h-4.92L346.73,773.7Zm31,31L403.57,774h4.9l25.81,25.76v4.91l-25.8,25.76h-4.92l-25.8-25.76Zm31,31L434.55,805h5l25.78,25.73v5L439.5,861.42h-4.93l-25.8-25.77Zm31-26.06,0-4.92L465.56,774h5l25.79,25.74v4.93l-25.8,25.76h-4.94Zm31,26L496.57,805h5l25.76,25.72v5l-25.78,25.74h-5L470.8,835.67Zm31-26v-4.92L527.59,774h4.92l25.81,25.74v4.95l-25.79,25.74H527.6Zm31,26L558.61,805h5l25.82,25.75v4.9l-25.81,25.77h-5l-25.78-25.74Zm31-26v-4.92L589.65,774h4.94l25.81,25.76v4.92l-25.79,25.75h-5Zm31,26L620.66,805h5l25.78,25.73v5l-25.79,25.75h-4.95l-25.79-25.73Zm31-26v-4.9L651.72,774h4.9l25.81,25.75v4.92l-25.8,25.76h-4.93Zm31,26.05L682.71,805h5l25.77,25.72v5l-25.78,25.73h-5l-25.79-25.76Zm31-26v-5L713.73,774h4.93l25.77,25.72v5l-25.75,25.72h-5Zm31,26L744.72,805h5l25.77,25.72v5l-25.78,25.74h-5L719,835.69Zm31-26v-4.93L775.74,774h5l25.75,25.72v5l-25.77,25.74h-5ZM781,836v-5.22L806.77,805h5l24.67,24.64h-.46v5.22L810.15,860.6h-5L780.52,836Zm31-31.27v-4.92L837.81,774H842l25,24.93v4.85L841.1,829.63H837Zm29.46,25.14,25.71-25.67h5L898,829.91v4.94L872.19,860.6h-4.94l-25.79-25.79Zm31-25.95v-5l25.73-25.69h5L929,798.94v4.95L903.2,829.63h-4.95Zm31,26,25.79-25.75h4.93L960,829.93v4.9l-25.8,25.77h-4.93l-25.81-25.77Zm31-26v-4.92l25.8-25.76h4.92L991,798.95v4.92l-25.8,25.76h-4.92Zm31,26.06,25.81-25.77h4.92L1022,829.91l0,4.92L996.23,860.6h-4.92L965.5,834.82Zm31-26v-4.95l25.79-25.75h5.2l25.27,25.24v5l-26.28,26.25h-4.18Zm87.54,25.24-25.8-25.76v-4.92l25.79-25.75h5l25.76,25.73v5L1089,829.12Zm36.26-25.73v-5l25.75-25.71h5l25.79,25.74v4.93l-25.8,25.76h-5Zm31,26,25.77-25.72h5l25.77,25.73v5l-25.8,25.76h-4.91l-25.8-25.75Zm31-26v-4.95l25.79-25.73h5l25.79,25.74v4.93l-25.8,25.76h-4.94Zm31,26,25.77-25.74h5l7.6,7.59,18.15,18.13v5L1257,847.2l-12.92,12.9h-4.92l-25.79-25.76Zm31-26v-4.92l25.78-25.74h5l25.79,25.74v4.91l-25.81,25.77h-4.93Zm31,26,25.78-25.74h5l25.78,25.74v4.92l-25.81,25.77h-4.91l-25.8-25.76Zm31-26.05v-4.9l25.8-25.75h4.94l25.8,25.76v4.91l-25.81,25.77h-4.92Zm31,26.06,25.78-25.74h5L1394,829.4v4.92l-25.8,25.76h-4.91l-25.81-25.77Zm31-26.06v-4.91l25.78-25.75h5L1425,798.42v5l-25.79,25.75h-4.93Zm56.78.31h5L1456,829.4v4.93l-25.81,25.77h-4.93l-25.78-25.75,0-4.93Zm5.25-.29v-5l25.77-25.73h5L1487,798.41v5l-25.78,25.74h-5Zm31,26,25.78-25.74h5L1518,829.37v5l-25.77,25.73h-4.94l-25.81-25.77Zm31-26v-5l25.77-25.72h5l25.82,25.75v4.9l-25.81,25.77h-5Zm31,26,25.78-25.74h5l25.78,25.74v4.92l-25.81,25.77h-4.94l-25.8-25.76Zm31-26v-5l25.78-25.72h5l25.78,25.73v5l-25.79,25.75h-4.95Zm31,26,25.8-25.75h5l25.78,25.74v4.94L1616.3,860.1h-4.91l-25.82-25.76Zm31-26.05v-4.92l25.79-25.75h5l25.77,25.72v5l-25.78,25.73h-5Zm31,26,25.74-25.72h5l25.74,25.71v5L1678.38,860h-5l-25.71-25.67Zm30.73-31.23h-5l-25.75-25.73v-5l25.78-25.73h4.94l25.77,25.72v5Zm0-61.93h-4.93l-25.78-25.74v-4.95l25.77-25.74h5l25.76,25.72v5Zm0-61.94h-5l-25.76-25.73v-5l25.75-25.73h5l25.75,25.72v5Zm0-61.93h-5l-25.77-25.74v-5l25.76-25.73h4.94l25.78,25.73v5Zm-5-61.94-25.77-25.73v-5L1673.39,494h5l25.77,25.73v5l-25.76,25.72Zm4.9-62h-4.89l-25.78-25.73v-4.95L1673.42,432h4.93l25.8,25.76v4.86Zm-4.88-61.94-20.59-20.55-5.21-5.2V395.8l25.79-25.74h5l25.79,25.75v4.92l-25.8,25.76Zm4.94-61.93h-4.94l-25.8-25.75v-4.95l25.79-25.73h5l25.79,25.74v4.93Zm-5.23-56.71-25.78,25.74h-5l-25.78-25.73v-5l25.78-25.73h5l25.78,25.74Zm-31,26v4.88l-25.84,25.8h-4.91l-25.76-25.73v-5l25.75-25.71h5Zm-31-26-25.79,25.75h-5l-25.79-25.75v-4.93l25.79-25.75h5l25.79,25.75Zm-31,26v5l-25.78,25.74h-5l-25.8-25.76v-5l25.74-25.7h5Zm-31-26-25.81,25.77h-4.92l-25.76-25.73v-5l25.76-25.73h5l25.76,25.73ZM1518,333.92l0,4.92-25.81,25.77h-4.92l-25.81-25.77v-4.89l25.81-25.77h4.92Zm-31-26-25.8,25.76h-4.92l-25.8-25.76V303l25.8-25.76h4.92L1487,303Zm-31,26.06v4.9l-25.8,25.77h-4.93l-25.81-25.77,0-4.92,25.79-25.75h4.93Zm-31-26-25.78,25.74h-4.95l-25.8-25.75v-5l25.7-25.65h5L1425,302.94Zm-31,26v4.94l-25.79,25.75h-4.94l-25.79-25.79v-5l25.68-25.63h5.06Zm-31-26.14-25.91,25.86H1333l-25-24.94v-4.92L1333.8,278h4.2L1363,303Zm-30.57,25.86h-.46v5.22l-25.79,25.75h-5L1276.52,340h.43v-5.22L1302.76,309h5Zm-29.93-24.92-25.77,25.74h-5l-25.79-25.75v-4.93L1271.73,278h5l25.75,25.72Zm-31,26v5l-25.78,25.74h-5l-25.77-25.73v-5L1240.71,309h5Zm-31-26-25.75,25.72h-5l-25.75-25.73v-5L1209.72,278h4.93l25.77,25.72Zm-31,26v5l-25.78,25.73h-5l-25.79-25.76v-4.92L1178.7,309h5Zm-31-26-25.8,25.76h-4.93l-25.81-25.76v-4.9L1147.71,278h4.9l25.81,25.75Zm-31,26v5l-25.79,25.75h-4.95l-25.79-25.73v-5L1116.66,309h5Zm-31-26-25.79,25.75h-5l-25.79-25.75v-4.92L1085.64,278h4.94l25.81,25.76Zm-31,26v4.9l-25.81,25.77h-5l-25.78-25.74v-5L1054.61,309h5Zm-31.06-26-25.79,25.74h-4.93l-25.8-25.76v-4.92L1023.58,278h4.92l25.81,25.74Zm-31,26v5l-25.78,25.74h-5l-25.79-25.75v-5L992.56,309h5Zm-31-26-25.8,25.76h-4.94l-25.8-25.77,0-4.92L961.55,278h5l25.79,25.74Zm-31,26v5l-25.79,25.75h-4.93l-25.8-25.77v-4.91L930.54,309h5Zm-31-26-25.8,25.76h-4.92l-25.8-25.76v-4.91L899.56,278h4.9l25.81,25.76Zm-31,26.05v4.91l-25.81,25.77h-4.92l-25.81-25.77v-4.9L868.53,309h4.94Zm-31-26.05-25.8,25.76h-5l-25.77-25.73v-5L837.49,278h5l25.79,25.74Zm-31,26v4.91l-25.81,25.77H806.5l-25.8-25.76v-4.92L806.47,309h5Zm-31-26-25.77,25.73h-5L749.69,308.7v-4.93L775.47,278h5l25.77,25.73Zm-31,26v4.93l-25.8,25.76h-4.93l-25.8-25.75v-4.95L744.46,309h5Zm-31-26-25.78,25.74h-5l-25.78-25.73v-5L713.43,278h5l25.78,25.74Zm-31,26v4.93l-25.8,25.76h-5L656.65,339.7v-5L682.4,309h5Zm-31,31v4.93l-25.81,25.77h-4.92l-25.53-25.5v-5h-.28v-.23L651.38,340h5Zm-56.31,5.73,25.28,25.24v4.95l-26.29,26.25h-4.14L594.88,402.1V397.2l25.82-25.76Zm-5.45,56.71v4.95l-25.8,25.74h-4.94l-25.82-25.76v-4.9l25.82-25.76h4.94Zm-31,31V464L563.56,489.8h-4.92l-25.79-25.74v-4.95l25.78-25.74h4.95Zm-31.06,30.94v5l-25.75,25.71h-5L501.81,495v-4.86l25.8-25.76h4.93Zm-31,31v5l-25.76,25.72h-5L470.8,526v-4.91l25.79-25.76h5Zm-31,31v4.88L470.52,582.7h-4.94l-25.8-25.76,0-4.91,25.78-25.75h4.94Zm-31,30.94v4.94l-25.78,25.74h-4.95l-25.8-25.75V583l25.81-25.76h4.92Zm-31,31v4.94l-25.79,25.75h-5l-25.78-25.74v-5l25.79-25.74h4.93Zm-31,31v4.92L377.49,675.6h-5l-25.78-25.74v-4.95l25.79-25.74h5Zm-31,31v5l-25.78,25.74h-5l-25.77-25.73v-5l25.77-25.73h5Zm-31,31v4.92l-25.8,25.76h-5L284.7,711.79v-4.92l25.78-25.75h5Zm-31,30.95v5l-25.78,25.74h-4.94l-25.79-25.76v-4.92l25.78-25.75h5Zm-25.5,31L310.49,743h5l25.8,25.76v4.92l-25.79,25.75h-5L284.7,773.73Zm31,30.94L341.5,774h5l25.79,25.74v4.92l-25.8,25.76h-5l-25.77-25.73Zm31,31L372.54,805h4.93l25.8,25.76v4.91l-25.81,25.77h-4.92l-25.81-25.77Zm31,31L403.54,836h5l25.78,25.74v4.92l-25.8,25.76h-4.91l-25.81-25.77Zm31,31,25.79-25.77h4.94l25.78,25.75v4.94l-25.78,25.74h-5l-25.79-25.76Zm31-26.05,0-4.93L465.55,836h5l25.78,25.74v4.93L470.51,892.4h-4.93Zm31,26,25.78-25.75h5l25.78,25.74v5l-25.77,25.73h-5L470.8,897.61Zm31-26V861.7L527.58,836h5l25.74,25.71v5l-25.77,25.73h-4.94Zm31,26,25.77-25.74h5l25.81,25.77v4.9l-25.8,25.76h-5l-25.76-25.73Zm31-26V861.7L589.62,836h5l25.78,25.74v4.92L594.58,892.4h-4.94Zm31,26,25.79-25.74h5l25.78,25.75v4.94l-25.78,25.74h-5l-25.78-25.73Zm31-26v-4.91L651.68,836h5l25.78,25.74v4.94L656.62,892.4h-4.91Zm31,26.07,25.79-25.77h4.95l25.78,25.74v5l-25.77,25.73h-5l-25.79-25.76Zm31-26v-5L713.7,836h5l25.74,25.71v5L718.66,892.4h-4.93Zm31,31.22v-5.22l25.77-25.74h5l24.67,24.64h-.47v5.24l-25.77,25.73h-5l-24.68-24.65Zm31-31.25V861.7L775.73,836H780l25,24.93v4.92l-25.79,25.75h-4.23Zm29.47,25.19,25.76-25.73h5l25.78,25.74v5l-25.78,25.74h-5L779.42,896.8Zm31-26v-5l25.78-25.74h5L867,860.88v4.93l-25.8,25.76h-5Zm31,26,25.78-25.73h5L898,891.88v4.9l-25.78,25.74h-5L841.46,896.8Zm31-26v-4.94l25.8-25.75h4.95L929,860.87v4.95l-25.77,25.74h-5Zm31,26,25.78-25.74h4.94L960,891.86v4.91l-25.79,25.76h-4.94l-25.8-25.76Zm31-26v-4.92l25.8-25.76h4.92L991,860.88v4.92l-25.79,25.75h-4.94Zm31,26.05,25.8-25.76h4.93L1022,891.84l0,4.93-25.8,25.76H991.3l-25.8-25.76Zm31-26v-4.95l25.79-25.74h4.92l25.83,25.77v4.89l-25.83,25.78h-4.93Zm31,26,25.82-25.76h4.94l25.8,25.74v4.95l-25.8,25.74h-4.94l-25.82-25.76Zm31-26.06v-4.91l25.82-25.76h5.14l25.28,25.24v4.95l-26.29,26.25h-4.14ZM1146.11,891l-25.76-25.73v-5l25.75-25.72h5l25.79,25.75v4.92L1151.06,891Zm41.37-20.64-5.12-5.11v-4.94l25.79-25.74h5l25.79,25.75v4.92L1213.1,891h-4.94Zm25.9,20.94,25.8-25.77h4.92l25.79,25.75v5L1244.11,922h-4.94l-25.79-25.75Zm43.86-13.22-12.85-12.84v-4.91l25.8-25.76h4.94l25.8,25.77v4.9L1275.14,891h-5Zm18.18,13.22,25.81-25.77h4.9l25.81,25.77v4.92L1306.14,922h-4.92l-25.8-25.76Zm31-26.06v-4.89l25.81-25.77h4.93L1363,860.39v4.9L1337.16,891h-4.94Zm31,26.06,25.81-25.77h4.9L1394,891.35v4.92L1368.17,922h-4.92l-25.8-25.76Zm31-26.06v-4.9l25.79-25.77h4.94L1425,860.37v4.94L1399.2,891h-5Zm31,26.05,25.79-25.76h4.92L1456,891.35v4.93L1430.2,922h-4.94l-25.78-25.75Zm31-26v-4.94l25.78-25.75h5L1487,860.36v5L1461.24,891h-5Zm31,26,25.81-25.77h4.93L1518,891.32v5L1492.25,922h-5l-25.8-25.76Zm31-26v-5l25.77-25.74h5l25.81,25.77v4.89L1523.28,891h-5Zm31,26,25.81-25.77h4.93l25.81,25.77v4.92L1554.28,922h-5l-25.8-25.76Zm31-26v-5l25.79-25.74h5l25.78,25.75v4.94L1585.31,891h-5Zm31,26,25.83-25.78h4.9l25.81,25.76v4.89L1616.34,922h-5l-25.76-25.71Zm31-26.07v-4.9l25.79-25.77h4.95l25.78,25.74v4.92L1647.36,891h-5Zm31,26,25.78-25.75h5l25.74,25.69v5L1678.37,922h-4.94l-25.79-25.76Zm31-26.09v-4.88l25.77-25.74h5l25.74,25.7v4.92L1709.39,891h-5Zm30.76-36.18h-5l-25.72-25.67v-5l25.76-25.72h5l25.77,25.72v4.94Zm0-61.88h-5l-25.77-25.74V736.5l25.79-25.75h4.95l25.78,25.73v5Zm0-61.93h-4.95l-25.78-25.74v-5l25.77-25.74h5l25.77,25.74v5Zm-5-61.94-25.77-25.73v-5l25.77-25.73h5l25.78,25.74v5l-25.77,25.73Zm0-61.93-25.78-25.74v-5l25.77-25.73h4.95l25.78,25.74v5l-25.78,25.74Zm0-62-25.74-25.7v-5l25.76-25.71h5l25.8,25.76v5l-25.78,25.74Zm4.93-61.93h-4.89l-25.79-25.75v-4.93l25.8-25.77h4.92l25.79,25.75v4.91Zm0-61.93h-4.92l-25.79-25.76v-4.93l25.77-25.74h5l7.82,7.81,17.93,17.91v5l-12.79,12.77Zm0-62h-5l-25.78-25.75v-4.93l25.78-25.75h5l25.77,25.73v5Zm0-61.93h-4.94l-25.79-25.76V241l25.78-25.75h5L1735.15,241v5Zm-5.22.29v4.92l-25.79,25.75h-5l-25.79-25.74v-4.94l25.8-25.75h4.94Zm-31-26-25.79,25.75h-4.95l-25.79-25.74v-5l25.78-25.73h5L1673.13,241Zm-31,26v4.92l-25.79,25.75h-5l-25.75-25.72v-5l25.76-25.73h5Zm-31-26-25.79,25.76h-5l-25.79-25.76V241l25.78-25.75h5L1611.11,241Zm-31,26v4.92l-25.81,25.77h-4.93l-25.79-25.75V272l25.8-25.76h5Zm-31-26-25.77,25.74h-5l-25.77-25.74v-5l25.76-25.73h5L1549.06,241Zm-31,26v5l-25.77,25.73h-5l-25.77-25.73v-5l25.73-25.69h5Zm-31-26.07-25.85,25.8h-4.88l-25.79-25.76V241l25.78-25.75h5L1487,241ZM1456,272v4.91l-25.79,25.76h-4.94l-25.8-25.76,0-4.93,25.78-25.74h4.94Zm-30.78-31.31-24.63-24.59h.22l24.63,24.59Zm-.25.33V246l-25.77,25.74H1395l-25-24.93v-5l25.71-25.67H1400Zm-30.58,30.68H1394v5.13l-25.89,25.84h-4.86L1338.54,278h.48v-5.3l25.71-25.67h5Zm-29.89-25-25.88,25.84h-4.82L1308,246.76v-4.92l25.8-25.75h4.92l25.79,25.75Zm-31,26.16v4.87l-25.8,25.77h-4.94l-25.82-25.77v-4.89l25.82-25.76h4.93Zm-31-26.06-25.78,25.74h-4.93l-25.81-25.77v-4.9l25.8-25.76h5l25.77,25.74Zm-31,26v5l-25.77,25.74h-5l-25.77-25.74V272.8l25.79-25.75h4.95Zm-31-26-25.78,25.73h-4.93l-25.78-25.74v-4.95l25.77-25.74h5l25.76,25.72Zm-31,26v4.94l-25.78,25.74h-4.94l-25.79-25.77v-4.87l25.81-25.78h4.92Zm-31-26-25.81,25.76h-4.9l-25.83-25.77v-4.89l25.82-25.77h4.92l25.8,25.76Zm-31,26.05v4.92l-25.78,25.75h-5l-25.79-25.74v-4.94l25.8-25.75h4.92Zm-31-26.06-25.81,25.77h-4.93l-25.81-25.77v-4.91l25.8-25.75h5l25.8,25.76Zm-31,26.08v4.87l-25.82,25.77h-5l-25.77-25.74v-5l25.78-25.73h4.95Zm-31.06-26.07-25.81,25.75h-4.9L997.8,246.76v-4.9l25.8-25.76h5l25.76,25.73Zm-31,26.07v4.91l-25.78,25.74h-5l-25.79-25.75v-4.92l25.8-25.76h4.91Zm-31-26.08L966.5,272.52h-4.92l-25.79-25.75v-4.92l25.78-25.75h4.94l25.8,25.77Zm-31,26v4.94l-25.79,25.75h-4.93l-25.8-25.77v-4.87l25.81-25.78h4.92Zm-31-26-25.81,25.77h-4.93l-25.78-25.74v-5l25.77-25.73h5l25.8,25.75Zm-31,26.05v4.9l-25.81,25.77h-4.92l-25.81-25.77V272.8l25.79-25.74h5Zm-31-26-25.79,25.75h-5l-25.78-25.74v-5l25.76-25.73h5l25.78,25.74Zm-31,26v4.92l-25.79,25.75h-5l-25.78-25.75v-4.92l25.79-25.75h5Zm-31-26-25.78,25.74h-4.94l-25.79-25.76v-4.92l25.78-25.75h5l25.76,25.73Zm-31,26v4.92l-25.79,25.75h-5l-25.79-25.74V272.8l25.8-25.75h4.93Zm-31-26-25.79,25.75h-4.95l-25.79-25.74v-5l25.78-25.73h5l25.78,25.74Zm-31,26v4.92l-25.79,25.75h-5l-25.75-25.72v-5l25.76-25.73h5Zm-31,31v4.93l-25.79,25.75h-5L625.61,308.7v-4.93L651.4,278h5Zm-31,30.95v5l-25.78,25.74h-5l-25.8-25.76v-4.92L620.38,309h5Zm-31,31v5.22h.29v.23l-25.8,25.75h-4.92l-25.83-25.77v-5.2h-.48l26-26h5Zm-56.55,5.73,25.83,25.77v4.89l-25.83,25.78h-4.93l-25.78-25.74v-4.95l25.79-25.74Zm-5.23,56.71,0,4.93-25.8,25.76h-4.93l-25.8-25.76v-4.91l25.8-25.76h4.93Zm-31,31V464l-25.8,25.76H496.6L470.8,464v-4.92l25.8-25.76h4.92Zm-31,31V495l-25.8,25.77h-4.93L439.77,495v-4.89l25.8-25.76h4.94Zm-31,31V526l-25.78,25.75h-4.94L408.77,526v-4.92l25.8-25.76h4.94Zm-31,31V557L408.5,582.7h-5L377.76,557v-5l25.78-25.74h5Zm-31,31v4.91l-25.8,25.76h-5l-25.79-25.74V583l25.8-25.75h4.93Zm-31,30.95v4.94l-25.79,25.75h-5l-25.78-25.74v-5l25.79-25.74h4.93Zm-31,31v4.92L315.45,675.6h-5L284.7,649.86v-4.92l25.79-25.75h5Zm-31,30.94v5l-25.77,25.73h-5l-25.78-25.75V675.9l25.78-25.75h5Zm-31,31v4.92l-25.8,25.76h-4.93l-25.8-25.75v-4.94l25.79-25.74h5Zm-31,31v4.94l-25.79,25.75h-4.95l-25.79-25.74v-5l25.78-25.73h5Zm-25.5,31L248.48,743h4.94l25.8,25.76v4.92l-25.79,25.75h-5l-25.79-25.74Zm31,31L279.48,774h5l25.77,25.73v5l-25.77,25.73h-5L253.69,804.7Zm31,31L310.48,805h5l25.79,25.74v4.91l-25.81,25.77H310.5l-25.8-25.76Zm31,31L341.5,836h5l25.78,25.74v4.92L346.44,892.4h-4.91l-25.8-25.76Zm31,31,25.81-25.77h4.93l25.81,25.77v4.9l-25.8,25.76h-4.94l-25.8-25.76Zm31,31,25.81-25.77h4.9l25.81,25.77v4.92l-25.8,25.76h-4.92l-25.8-25.76Zm31,31,25.8-25.77h4.93l25.79,25.75v4.94l-25.78,25.74h-4.94l-25.79-25.76Zm31-26.05v-4.94l25.79-25.76h4.92l25.81,25.77v4.93l-25.8,25.76h-4.94Zm31,26,25.79-25.75h5l25.78,25.74v5l-25.78,25.73h-5L470.8,959.55Zm31-26v-4.92l25.81-25.77h4.93l25.78,25.74v5l-25.76,25.73h-5Zm31,26,25.78-25.74h5l25.81,25.77v4.89l-25.8,25.76h-5l-25.77-25.73Zm31-26v-4.92l25.81-25.77h4.93l25.81,25.77v4.92l-25.8,25.76h-5Zm31,26,25.79-25.74h4.94l25.79,25.75v4.94l-25.78,25.74h-5l-25.79-25.73Zm31-26v-4.9l25.83-25.78h4.9l25.81,25.77v4.93l-25.8,25.76h-4.92Zm31,31.25v-5.18l25.8-25.77h4.94l24.68,24.64h-.46v5.22l-25.79,25.75h-4.95l-24.71-24.66Zm31-31.22v-5l25.78-25.75h4.2l25,24.94v4.92l-25.8,25.76h-4.22Zm29.44,25.2L743.17,928h5l25.78,25.74v5l-25.78,25.74h-4.94l-25.79-25.76Zm31-26v-4.92l25.78-25.75h5l25.8,25.76v4.92l-25.8,25.76h-5Zm31,26L805.19,928h5l25.79,25.75v4.94l-25.79,25.75h-5l-25.78-25.74Zm31-26v-4.95l25.78-25.74h5L867,922.82v4.92l-25.8,25.76h-5Zm31,26L867.24,928h5L898,953.78v4.94l-25.79,25.75h-5l-25.78-25.74Zm31-26v-4.93l25.79-25.74h5L929,922.81v4.95L903.2,953.5h-4.95Zm31,26.05L929.27,928h4.94L960,953.8v4.9l-25.8,25.77h-4.93L903.47,958.7Zm31-26.06v-4.92l25.8-25.76h4.92L991,922.82v4.92l-25.8,25.76h-4.92Zm31,26.06L991.3,928h4.93L1022,953.78v5l-25.71,25.68h-5l-25.8-25.8Zm31-26v-4.95l25.78-25.74h4.95l25.82,25.77v4.89l-25.83,25.77h-4.92Zm31,26L1053.36,928h4.94l25.79,25.74v4.85l-25.89,25.84h-4.85l-25.81-25.81Zm31-26.07v-4.91l25.82-25.77h4.92l25.78,25.75v4.95l-25.78,25.74h-4.92Zm31,26.09L1115.39,928h4.93l25.8,25.77v4.92l-25.8,25.75h-4.93l-25.82-25.82Zm31-26.09v-4.9l25.8-25.77h5.16l25.29,25.25v4.93l-26.3,26.26h-4.16Zm56.52-.21v.25l-25.78,25.73h-.25Zm-25.48,26.24L1177.41,928h5.15l25.3,25.25v4.93l-26.31,26.26h-4.15l-25.77-25.73Zm31-26.24v-5h-.29v-.2l25.79-25.76h4.93l25.8,25.76v4.92L1213.1,953h-4.95Zm30.73,25.75,25.81-25.77h4.9l25.8,25.76v5L1244.11,984h-4.94l-25.79-25.75Zm31-26v-4.92l25.8-25.76h4.93l25.81,25.77v4.9L1275.13,953h-4.95Zm31,26,25.82-25.77h4.88l25.82,25.77v4.92L1306.14,984h-4.92l-25.8-25.75Zm31-26v-4.89l25.81-25.77h4.92L1363,922.33v4.89L1337.16,953h-4.93Zm31,26.05,25.82-25.77h4.88L1394,953.28v4.92L1368.17,984h-4.92l-25.8-25.76Zm31-26.05v-4.9l25.8-25.77h4.93L1425,922.31v4.94L1399.19,953h-4.94Zm31,26,25.8-25.76h4.9L1456,953.28v4.93L1430.2,984h-4.95l-25.78-25.74Zm31-26v-4.94l25.79-25.75h5L1487,922.3v5L1461.23,953h-5Zm31,26,25.82-25.77h4.91L1518,953.27l0,5L1492.25,984h-5l-25.8-25.76Zm31-26v-5l25.78-25.74h5l25.81,25.77v4.89L1523.27,953h-5Zm31,26,25.82-25.77h4.91l25.82,25.76v4.9l-25.76,25.73h-5l-25.74-25.7Zm31-26v-5l25.79-25.74h4.94l25.79,25.75v4.91l-25.75,25.72h-5Zm31,26,25.81-25.75h4.95l25.76,25.73v4.93l-25.78,25.74h-5l-25.78-25.73Zm31-26.06v-4.88l25.78-25.75h5l25.74,25.71v4.91l-25.8,25.76h-4.95Zm31,26.05,25.78-25.76h5l25.77,25.74v5l-25.77,25.73h-5l-25.78-25.75Zm31-26.06v-4.91l25.79-25.77h5l25.8,25.77v4.91l-25.79,25.75h-5Zm31,26,25.77-25.74h5l25.78,25.75v4.93l-25.78,25.74h-5l-25.77-25.73ZM1740.41,922h-5l-25.78-25.74v-5l25.77-25.73h5l25.79,25.75v4.94Zm-5-61.94-25.77-25.73v-4.93l25.74-25.71h5l25.73,25.68v5L1740.41,860Zm5-61.93h-5l-25.74-25.71v-4.93l25.79-25.74h5l25.75,25.73v4.94Zm0-61.88h-4.93l-25.81-25.77v-4.9l25.8-25.76h5l25.77,25.74v4.95Zm-4.94-61.94-25.8-25.76V643.6l25.79-25.75h5l25.77,25.74v5l-25.77,25.73Zm5-61.93h-5l-25.8-25.76v-4.92l25.8-25.76h5l25.77,25.73v5Zm0-62h-4.92l-25.79-25.74v-4.93l25.79-25.74h5l25.79,25.75v4.86Zm0-61.92h-4.95l-25.8-25.75v-4.92l25.8-25.76h4.93l25.81,25.77v4.9Zm-5-61.94-12.9-12.88-12.89-12.88v-4.91l25.8-25.76h4.94l25.8,25.77v4.9l-25.79,25.76Zm4.94-61.93h-4.93l-25.8-25.76v-4.92l25.78-25.74h5l25.79,25.74v4.91Zm0-61.94h-5l-25.78-25.75v-4.92l25.79-25.75h5l25.8,25.76v4.92Zm-5-61.93-25.79-25.75V210l25.78-25.75h5L1766.19,210v4.92l-25.8,25.76Zm-.28-56.7-25.77,25.73h-5L1678.64,184V179l25.78-25.75h5L1735.15,179Zm-31,26v4.92l-25.8,25.76h-4.94l-25.8-25.74V210l25.79-25.74h5Zm-31-26-25.78,25.74h-5L1616.61,184v-5l25.78-25.73h5L1673.13,179Zm-31,26v4.92l-25.8,25.76h-5L1585.61,215v-5l25.75-25.72h5Zm-31-26-25.79,25.75h-5L1554.57,184V179l25.79-25.75h5L1611.11,179Zm-31,26v5l-25.78,25.74h-5l-25.8-25.76,0-4.94,25.77-25.73h5Zm-31-26-25.76,25.73h-5L1492.57,184v-5l25.76-25.73h5L1549.06,179Zm-31,26v4.91l-25.84,25.79h-4.9L1461.55,215v-5l25.77-25.73h5Zm-31-31.25V184l-25.78,25.73h-5l-24.66-24.63h.41v-5.24l25.78-25.74h4.94l24.67,24.64ZM1456,210v4.94l-25.8,25.74H1426l-25-24.94V210.8l25.74-25.71h4.3Zm-29.48-25.25-25.83,25.8h-4.89L1370,184.78v-4.91l25.79-25.76h4.94l25.78,25.74Zm-31,26.11v4.86l-25.87,25.83h-4.84L1339,215.83v-5l25.78-25.75h4.94Zm-31-26-25.79,25.74h-4.95L1308,184.84V179.9l25.79-25.75h4.94l25.78,25.74Zm-31,26.05v4.88l-25.81,25.77h-4.93l-25.82-25.77V210.9l25.81-25.77h4.94Zm-31-26-25.77,25.73h-5l-25.8-25.76v-4.92l25.79-25.75h5l25.77,25.74Zm-31,26v5l-25.78,25.74h-4.95l-25.78-25.74v-5l25.77-25.74h5Zm-31-26-25.76,25.72h-5l-25.77-25.73v-5l25.75-25.73h5l25.75,25.72Zm-31,26v5l-25.79,25.74h-4.93l-25.81-25.77V210.9l25.79-25.77h4.95Zm-31-26-25.8,25.75h-4.92l-25.82-25.76v-4.9l25.81-25.76h4.95l25.79,25.75Zm-31,26v4.93l-25.79,25.75h-4.93l-25.8-25.74v-4.95l25.79-25.74h5Zm-31-26-25.8,25.76h-5l-25.8-25.76v-4.92l25.79-25.75h5l25.79,25.75Zm-31,26.07v4.88l-25.83,25.77h-4.93l-25.78-25.74v-5l25.77-25.74h5Zm-31.06-26-25.76,25.72h-5l-25.8-25.76v-4.91l25.8-25.76h4.93l25.79,25.74Zm-31,26v5l-25.79,25.74h-4.93l-25.8-25.76v-4.92l25.79-25.75h5Zm-31-26-25.8,25.77h-4.94l-25.78-25.74v-5l25.78-25.74h4.94l25.79,25.76Zm-31,26v4.94l-25.79,25.75h-4.92l-25.81-25.77v-4.91l25.79-25.74h5Zm-31-26-25.78,25.74h-5l-25.78-25.73v-5l25.78-25.73h5l25.78,25.74Zm-31,26v4.92l-25.8,25.76h-5l-25.79-25.74v-4.95l25.78-25.74h5Zm-31-26-25.78,25.74h-5l-25.77-25.73v-5l25.77-25.73h5l25.78,25.74Zm-31,26v4.92l-25.8,25.76h-5L780.69,215.8v-4.92l25.78-25.75h5Zm-31-26-25.77,25.73h-5l-25.78-25.75V179.9l25.78-25.75h5l25.77,25.73Zm-31,26v4.92l-25.8,25.76h-4.94l-25.8-25.74v-4.94l25.79-25.74h5Zm-31-26-25.78,25.74h-5l-25.78-25.73v-5l25.78-25.73h5l25.78,25.74Zm-31,26v4.92l-25.8,25.76h-5l-25.76-25.73v-5l25.75-25.72h5Zm-31,31v4.92l-25.79,25.76h-5l-25.79-25.76v-4.92l25.78-25.75h5Zm-31,30.95v5l-25.77,25.73h-5l-25.79-25.75v-4.91l25.8-25.76h5Zm-31,31v5l-25.76,25.73h-5L563.84,309v-5h-.23v-.24L589.37,278h5Zm-56.27,5.74,25.27,25.24v5l-26.28,26.25h-4.18l-25.79-25.74v-4.95l25.79-25.75Zm-5.5,56.72,0,4.92L532.54,396.9h-4.92l-25.81-25.77v-4.89l25.81-25.77h4.92Zm-31,31v4.92l-25.79,25.75h-4.94L470.8,402.11v-4.92l25.8-25.76h4.92Zm-31,31v4.91l-25.79,25.76h-4.94l-25.8-25.76,0-4.93,25.78-25.74h4.94Zm-31,30.95v4.95L439.51,489.8h-4.95l-25.8-25.75v-4.93l25.79-25.74h5Zm-31,31V495l-25.79,25.75h-5L377.76,495v-5l25.78-25.74h5Zm-31,31V526l-25.8,25.76h-5L346.73,526v-4.94l25.79-25.75h5Zm-31,31V557L346.47,582.7h-5L315.73,557v-5l25.77-25.74h5Zm-31,31v4.91l-25.8,25.76h-5L284.7,587.92V583l25.8-25.76h4.93Zm-31,30.94v5l-25.78,25.74h-4.94l-25.79-25.76V614l25.8-25.76h4.92Zm-31,31v4.92L253.42,675.6h-5l-25.79-25.74v-4.94l25.8-25.74h4.94Zm-31,31v5L222.4,706.57h-5l-25.78-25.73v-5l25.78-25.73h5Zm-31,31v4.92l-25.8,25.76h-5l-25.76-25.73v-5l25.75-25.72h5Zm-31,31v4.92l-25.79,25.76h-5l-25.79-25.76v-4.92l25.78-25.75h5Zm-25.5,30.94L186.42,743h5l25.8,25.76v4.92l-25.79,25.75h-5l-25.75-25.72Zm31,31L217.44,774h5l25.78,25.74v5L222.4,830.45h-5l-25.78-25.73Zm31,31L248.46,805h5l25.79,25.74v4.93l-25.8,25.76h-4.94l-25.8-25.74Zm31,31L279.47,836h5l7.68,7.66,18.08,18.06v5l-12.7,12.69L284.41,892.4h-4.92l-25.79-25.76Zm31,31,25.8-25.76h4.94l25.8,25.77v4.9l-25.79,25.76h-5l-12.74-12.71-13.06-13Zm31,31,25.81-25.77h4.9l25.81,25.77v4.92l-25.8,25.76h-4.92l-25.8-25.76Zm31,31,25.81-25.77h4.92l25.81,25.77v4.89l-25.8,25.76h-4.93l-25.8-25.76Zm31,30.95,25.82-25.77h4.88l25.82,25.77v4.92l-25.8,25.76h-4.92l-25.8-25.76Zm31,31,25.79-25.75h5l25.78,25.73v5l-25.77,25.73h-5l-25.78-25.75Zm31-26v-4.95l25.8-25.76h4.9l25.82,25.77v4.93l-25.8,25.75h-4.95Zm31,26,25.78-25.73h5l25.77,25.72v5l-25.76,25.72h-5l-25.77-25.73Zm31-26v-4.92l25.82-25.77h4.91l25.81,25.76,0,5-25.77,25.72h-5Zm31,26,25.76-25.72h5l25.8,25.75v4.9l-25.81,25.75h-5l-25.76-25.72Zm31-26v-4.92l25.82-25.77h4.91l25.82,25.77v4.92l-25.8,25.76h-5Zm31,31.25v-5.23l25.78-25.72h5l24.68,24.64h-.45v5.21l-25.79,25.75h-5l-24.69-24.65Zm31-31.25v-4.91l25.84-25.78h4.15l25,25v4.91l-25.79,25.75h-4.2Zm29.47,25.23L681.14,990h5l25.78,25.75v4.93l-25.78,25.74h-5l-25.78-25.73Zm31-26v-4.93L712.17,959h4.93l25.8,25.77v4.91l-25.8,25.76h-4.95Zm31,26.05L743.17,990h5l25.77,25.74v5l-25.77,25.73h-5l-25.78-25.75Zm31-26.06v-4.91L774.18,959h5l25.8,25.77v4.91l-25.79,25.75h-5Zm31,26L805.19,990h5l25.78,25.75v4.93l-25.78,25.74h-5l-25.77-25.73Zm31-26v-4.94L836.22,959h5L867,984.77v4.91l-25.8,25.76h-5Zm31,26L867.23,990h5L898,1015.73v4.93l-25.78,25.74h-5l-25.78-25.73Zm31-26v-4.92L898.26,959h4.94L929,984.75v4.94l-25.78,25.75h-4.94Zm31,26L929.27,990h4.94L960,1015.75v4.88l-25.79,25.76h-4.94l-25.8-25.76Zm31-26.05v-4.91L960.28,959h5L991,984.77v5l-25.72,25.68h-5Zm31,26.14L991.38,990h4.85l25.81,25.81,0,4.79-25.86,25.82H991.5l-26-27Zm31-26.12v-4.88L1022.4,959h4.89l25.79,25.79v4.79l-25.9,25.86h-4.9Zm31,26L1053.27,990h5l25.81,25.81v4.85l-25.8,25.76h-4.94l-25.82-25.76Zm33.62-23.4-2.58-2.58v-5L1084.3,959h5l25.74,25.74v4.93l-25.79,25.75h-4.93Zm28.43,23.59L1115.49,990h4.83l25.8,25.8v4.86l-25.8,25.75h-4.92l-25.82-25.76Zm31-26.19v-4.8L1146.5,959h4.85l25.78,25.74,0,4.93-25.82,25.77h-4.93Zm31,26L1177.4,990h5l25.75,25.71v5l-25.76,25.72h-5l-25.77-25.73Zm31-26v-5.23h-.52l26-26h5l25.8,25.75v5.2h.28v.25l-25.78,25.74h-4.95Zm31,26L1239.43,990h5.2l25.26,25.22v5l-26.28,26.25h-4.16l-25.8-25.76Zm31-26.29v-5h-.27v-.23l25.79-25.74h5l25.79,25.75v4.91l-25.79,25.75h-5Zm30.76,25.77,25.8-25.76h4.92l25.8,25.76v4.92l-25.8,25.76h-4.92l-25.8-25.75Zm31-26v-4.9l25.8-25.75h4.95l25.8,25.75v4.9l-25.79,25.75h-5Zm31,26.05,25.8-25.76h4.92l25.8,25.76v4.92l-25.8,25.76h-4.92l-25.8-25.76Zm31-26.05v-4.91l25.79-25.75h5L1425,984.23v5l-25.77,25.73h-5Zm31,26,25.78-25.75h4.94l25.8,25.76v4.93l-25.8,25.75h-4.95l-25.78-25.74Zm31-26v-5l25.78-25.73h5L1487,984.22v5l-25.76,25.72h-5Zm31,26,25.8-25.76h5l25.76,25.72v5l-25.75,25.69h-5l-25.75-25.71Zm31-26v-5l25.76-25.72h5l25.8,25.75v4.88l-25.78,25.74h-5Zm31,26,25.76-25.73h5l25.75,25.71v4.92l-25.79,25.76h-5l-25.79-25.76Zm31-26v-5l25.74-25.68h5l25.75,25.7v4.91l-25.8,25.76h-5Zm31,26,25.8-25.74h4.92l25.8,25.75v4.94l-25.79,25.75h-4.95l-25.79-25.74Zm31-26V984.2l25.81-25.75h4.91l25.81,25.76v4.92l-25.79,25.74h-4.93Zm31,26,25.8-25.76h4.92l25.79,25.74v5l-25.78,25.74h-4.94l-25.79-25.76Zm31-26v-4.91l25.8-25.76h4.93l25.81,25.76v4.91l-25.8,25.76h-5Zm31,26,25.79-25.74h4.94l25.8,25.75v4.94l-25.79,25.75h-5l-25.78-25.74Zm31-26V984.2l25.8-25.75h4.94l25.81,25.76v4.91l-25.8,25.76h-5Zm25.79-36.19-25.79-25.75v-4.94l25.79-25.75h5l25.8,25.77v4.91l-25.8,25.76Zm0-61.94-25.79-25.74v-4.95l25.78-25.74h5l25.8,25.76v4.92L1771.42,891Zm0-61.94-25.78-25.74v-4.92l25.77-25.72h5.09l25.68,25.68v4.94l-25.8,25.76Zm4.89-61.93h-4.94l-25.76-25.73v-4.89l25.82-25.76h4.93l25.81,25.78v4.8Zm-4.88-61.88-25.82-25.77v-4.88l25.81-25.77h4.94l25.8,25.77v4.88l-25.81,25.77Zm0-61.94-25.8-25.76v-4.91l25.81-25.76h5l25.79,25.76v4.91l-25.79,25.76Zm5-62h-4.92l-25.8-25.75v-5l25.74-25.7h5l25.8,25.76v4.92Zm0-61.93h-4.87l-25.8-25.75v-4.93l25.82-25.77h4.88l25.82,25.77v4.87Zm-4.87-61.93-25.8-25.76v-4.93L1766.49,401h4.9l25.81,25.77v4.92l-25.8,25.76Zm0-61.94-25.8-25.76v-4.93l25.78-25.74h5l25.78,25.74v4.92l-25.81,25.77Zm4.92-61.94h-5l-25.77-25.73v-5l25.77-25.73h5l25.79,25.74v4.92Zm0-61.93h-5l-25.78-25.74v-5l25.76-25.73h5L1797.2,241v4.94Zm0-61.94h-5L1740.68,184v-5l25.77-25.73h5L1797.2,179v5Zm0-61.93h-5L1740.68,122v-5l25.79-25.74h4.93l25.8,25.75V122Zm-5.22.29V153l-25.79,25.75h-5L1709.65,153v-4.92l25.79-25.75h5Zm-31-26-25.78,25.74h-4.94L1678.64,122v-4.92l25.8-25.76h4.92l25.79,25.74Zm-31,26V153l-25.79,25.75h-5L1647.63,153v-4.94l25.8-25.75h4.94Zm-31-26-25.79,25.75h-4.95L1616.61,122v-5l25.8-25.74h4.92l25.8,25.75Zm-31,26V153l-25.79,25.75h-5L1585.61,153v-5l25.76-25.73h5Zm-31-26-25.79,25.76h-5L1554.57,122v-4.92l25.8-25.76h4.93l25.8,25.76Zm-31,26v5l-25.77,25.73h-5L1523.55,153l0-4.94,25.78-25.74h5Zm-31-31.24V122l-25.77,25.74h-5l-24.68-24.65h.44V117.9l25.78-25.74h5l24.69,24.65Zm-31,31.24v5l-25.77,25.73H1488l-25-24.93v-4.92l25.8-25.76h4.24Zm-29.48-25.22-25.81,25.78h-4.91l-25.8-25.76v-4.94l25.79-25.75h5l25.78,25.74Zm-31,26.07v4.87l-25.82,25.78h-4.94L1401,153.81l0-4.92,25.78-25.74h4.94Zm-31-26-25.8,25.76h-4.91L1370,122.84v-4.9l25.8-25.77h4.93l25.79,25.75Zm-31,26v4.92l-25.78,25.74h-5L1339,153.82v-5l25.75-25.71h5Zm-31-26.1-25.87,25.83h-4.85L1308,122.83v-4.89l25.81-25.77h4.92l25.81,25.77Zm-31,26.15v4.91l-25.79,25.76h-5l-25.8-25.76v-4.9l25.81-25.76h5Zm-31-26-25.77,25.74h-5l-25.8-25.76V118l25.8-25.76h5l25.77,25.73Zm-31,26v5l-25.77,25.73h-5l-25.77-25.73v-5l25.77-25.73h5Zm-31-26-25.76,25.73h-5l-25.77-25.74v-5l25.77-25.73h4.94l25.78,25.73Zm-31,26v5l-25.78,25.73h-5l-25.79-25.76v-4.91l25.79-25.76h5Zm-31-26-25.8,25.76h-4.92l-25.82-25.77V118l25.82-25.76h4.92l25.8,25.75Zm-31,26v5l-25.78,25.74h-5l-25.79-25.73v-5l25.79-25.73h5Zm-31-26-25.8,25.76h-5l-25.8-25.76V118l25.84-25.77h4.9l20.65,20.6,5.16,5.16Zm-31,26.05v4.9l-25.8,25.76h-5l-25.78-25.74v-4.95l25.79-25.74h4.94Zm-31.06-30.42-13.63-14.18,13.63,13.6Zm0,.6v3.78l-7.72,7.71-18.08,18h-4.91L997.8,122.88v-5l25.72-25.68h4.91Zm-31,29.81v4.91l-25.79,25.76h-4.94l-25.79-25.75v-4.92l25.8-25.76h4.92Zm-31-26.06-25.8,25.77h-4.93L935.79,122.9l0-4.92,25.82-25.77h4.91L992.31,118Zm-31,26v4.95l-25.77,25.74h-5l-25.79-25.74v-4.93l25.8-25.75h4.95Zm-31-26-25.79,25.75h-5l-25.78-25.74v-5l25.79-25.74h4.93L930.27,118Zm-31,26v4.92l-25.79,25.75h-5l-25.78-25.74v-4.95l25.79-25.74h5Zm-31-26-25.79,25.75h-5l-25.78-25.74v-5l25.79-25.74h4.93L868.24,118Zm-31,26v4.92l-25.79,25.75h-5l-25.78-25.75v-4.92l25.79-25.75h5Zm-31-26-25.78,25.74h-4.94l-25.79-25.76V118l25.8-25.76h4.92L806.19,118Zm-31,26v4.92l-25.79,25.75h-5l-25.79-25.74v-4.94l25.8-25.74h4.94Zm-31-26-25.79,25.75h-4.95l-25.79-25.74v-5l25.8-25.74h4.92L744.17,118Zm-31,26v4.92l-25.79,25.75h-5l-25.75-25.72v-5l25.76-25.73h5Zm-31,31v4.93l-25.79,25.75h-5l-25.79-25.75V179.9l25.79-25.75h5Zm-31,31v5l-25.78,25.74h-5l-25.8-25.76,0-4.94,25.77-25.73h5Zm-31,31v5l-25.77,25.74h-5l-25.77-25.74v-5l25.76-25.73h5Zm-31,31v5l-25.77,25.73h-5l-25.77-25.73v-5l25.78-25.74h5Zm-31,31V309h.24v.23L532.54,335h-4.93l-25.8-25.76V304h-.46l26-26h5Zm-56.56,5.74,25.8,25.76v4.92l-25.8,25.76H496.6l-25.8-25.76v-4.92l25.8-25.76Zm-5.21,56.74v4.9l-25.8,25.77h-4.93l-25.81-25.77,0-4.92,25.79-25.75h4.93Zm-53.65,8.36h0l22.62,22.59v4.95l-25.77,25.74h-5l-25.75-25.75v-4.93l25.8-25.75h4.94Zm-8.39,53.59v4.91L408.5,458.83h-5L377.76,433.1v-5l25.78-25.73h5Zm-31,31V464l-25.8,25.76h-5l-25.79-25.74v-4.95l25.78-25.74h4.92Zm-31,30.91V495l-25.79,25.75h-5L315.73,495v-5l25.77-25.73h5Zm-31,31V526l-25.79,25.75h-5L284.7,526v-4.91l25.79-25.77h5Zm-31,31v5L284.43,582.7h-5L253.69,557V552l25.78-25.76h5Zm-31,31v4.92l-25.79,25.74h-4.94l-25.8-25.74V583l25.81-25.75h4.91Zm-31,30.95v4.94l-25.79,25.75h-4.95l-25.79-25.74v-5l25.8-25.74h4.92Zm-31,31v4.92L191.39,675.6h-5l-25.75-25.72v-5l25.76-25.73h5Zm-31,31v4.93l-25.79,25.75h-5l-25.79-25.75V675.9l25.79-25.75h5Zm-31,31v4.92l-25.78,25.74h-5L98.6,711.79l0-4.94,25.77-25.73h4.94Zm-31,30.93v5L98.34,768.52h-5L67.62,742.78v-5l25.76-25.73h5Zm-25.51,31L124.4,743h5l25.78,25.74v4.92l-25.81,25.77h-4.94L98.6,773.72Zm31,31L155.4,774h5l25.79,25.75v4.93l-25.79,25.75h-5L129.62,804.7Zm31,30.94L186.41,805h5l25.79,25.74v4.88l-25.85,25.81h-4.91l-25.76-25.73Zm31,31L217.43,836h5l25.77,25.73v5l-25.8,25.76h-4.91l-25.8-25.75Zm31,31,25.79-25.74h5l25.79,25.75v4.92l-25.8,25.76h-4.94L227.69,902.6l-5-5Zm31,31,25.8-25.77h4.92l25.79,25.75v4.92l-25.83,25.78h-4.89l-25.79-25.75Zm31,31,25.8-25.76h4.93l25.81,25.77v4.9l-25.8,25.76H310.5l-25.8-25.75Zm31,31,25.82-25.77h4.88l25.82,25.77v4.87l-25.85,25.81h-4.88l-25.8-25.75Zm31,31,25.8-25.75h4.95l25.8,25.75v4.9l-25.79,25.75h-5l-25.79-25.75Zm31,31,25.8-25.76h4.92l25.8,25.76v4.87l-25.84,25.81h-4.88l-25.8-25.76Zm31,31,25.8-25.77h4.93l25.79,25.75v4.94l-25.8,25.76h-4.91l-25.81-25.78Zm31-26v-4.95l25.78-25.75h4.94l25.8,25.76v4.93l-25.8,25.75h-4.95Zm31,26,25.79-25.75h5l25.78,25.74v4.93l-25.81,25.78H496.6l-25.8-25.76Zm31-26v-4.92l25.8-25.76h5l25.76,25.73v5l-25.8,25.74H527.6Zm31,31.26v-5.23l25.78-25.74h5l24.69,24.65h-.46v5.23L562,1108.34h-5l-24.68-24.65Zm31-31.26v-4.92l25.8-25.76h4.21l25,24.94v4.95L593,1077.37h-4.23Zm29.47,25.23,25.8-25.76H624l25.8,25.76v4.92l-25.79,25.76h-5l-25.79-25.76Zm31-26v-5l25.78-25.73h4.93l25.81,25.76v4.91l-25.8,25.76h-5Zm31,26,25.8-25.74h4.92l25.8,25.75v4.94l-25.79,25.75h-4.95l-25.79-25.74Zm31-26v-4.93l25.81-25.75h4.91l25.81,25.76v4.92l-25.79,25.74h-4.94Zm31,26,25.8-25.76h4.92l25.79,25.74v5l-25.78,25.74h-4.94l-25.79-25.76Zm31-26v-4.91l25.8-25.76h4.93l25.81,25.76v4.91l-25.8,25.76h-5Zm31,26,25.79-25.74h4.93l25.8,25.75v4.94l-25.79,25.75h-5l-25.78-25.74Zm31-26v-4.93l25.8-25.75h4.94L867,1046.7v4.91l-25.8,25.76h-5Zm31,26,25.79-25.74h4.93l25.8,25.75v4.94l-25.79,25.75h-5l-25.78-25.74Zm31-26v-4.92l25.81-25.76h4.92L929,1046.69v4.94l-25.78,25.74h-4.95Zm56.83.28h4.91L960,1077.67v4.9l-25.8,25.77h-4.93l-25.79-25.75,0-4.92Zm5.21-.29v-4.91l25.81-25.76h5.2v-1L991,1046.49v5l-25.88,25.83h-4.84Zm31,26,25.74-25.69h5l25.8,26.83v3.86l-7.83,7.82-18,17.93h-4.91l-25.81-25.77Zm44.87-11.58,11.65,11.63v.49Zm-13.83-14.38v-5l25.71-25.67h5l25.84,25.78v4.87l-25.83,25.77h-4.94Zm31,26,25.84-25.77h4.9l20.59,20.54,5.23,5.22v4.92l-25.8,25.76h-5l-25.8-25.76Zm31-26.07v-4.9l25.83-25.77h4.91l25.78,25.74v4.94l-25.79,25.75h-4.91Zm31,26.06,25.82-25.76h4.92l25.8,25.75v4.93l-25.8,25.76h-4.92l-25.82-25.77Zm31-26.07v-4.9l25.79-25.76h4.94l25.78,25.74v5l-25.78,25.74h-4.94Zm31,26,25.77-25.73h4.94l25.78,25.73v5l-25.76,25.73h-5l-25.77-25.74Zm31-26v-5l25.77-25.73h5l25.77,25.73v5l-25.78,25.74h-5Zm31,26,25.8-25.76h5l25.77,25.73v5l-25.77,25.74h-5l-25.8-25.76Zm31-26.06v-5.2h-.48l26-26h4.93l25.81,25.77v5.2h.28v.2l-25.8,25.77h-4.94Zm31,26.05,25.8-25.75h5.15l25.29,25.25v4.92l-26.31,26.27h-4.14l-25.8-25.76Zm31-26.26v-5h-.3v-.2l25.81-25.77h4.92l25.81,25.77v4.89l-25.82,25.78h-4.9Zm30.73,25.76,25.8-25.76h4.92l25.8,25.76v4.92l-25.78,25.74h-5l-25.78-25.74Zm31-26.06v-4.9l25.8-25.77h4.93l25.79,25.75v4.94l-25.8,25.76h-4.91Zm31,26,25.78-25.74h4.94l25.8,25.77v4.9l-22.12,22.09-3.63,3.62h-5.05l-25.74-25.71Zm31-26v-4.94l25.79-25.75h5l25.78,25.74v4.93l-25.74,25.71h-5Zm31.07,26,25.73-25.69h5l25.72,25.68v5l-25.76,25.73h-5L1461.56,1082Zm31-26,0-4.93,25.74-25.7h5l25.73,25.69v5l-25.77,25.73h-5Zm31,26,25.79-25.75h5l25.79,25.75V1082l-25.79,25.75h-5L1523.56,1082Zm31-26v-5l25.76-25.73h5l25.8,25.76v4.92l-25.79,25.75h-5Zm31,26,25.78-25.73h5l25.78,25.74v5l-25.78,25.74h-5L1585.61,1082Zm31-26v-4.94l25.8-25.75h4.94l25.8,25.76v4.92l-25.79,25.75h-5Zm31,26,25.78-25.75h5l25.77,25.73v5l-25.77,25.73h-5L1647.64,1082Zm31-26v-4.92l25.79-25.75h5l25.8,25.76v4.92l-25.79,25.75h-5Zm31,26,25.77-25.73h5l25.78,25.74v5l-25.78,25.74h-5L1709.67,1082Zm31-26v-4.95l25.79-25.74h5l25.8,25.76v4.92l-25.79,25.75h-5Zm31,26,25.78-25.73h5l25.78,25.74v5l-25.78,25.74h-5L1771.71,1082Zm30.73-31.23h-5l-25.78-25.74v-5l25.79-25.74h4.93l25.8,25.75v4.94Zm-5-61.94-25.78-25.73v-5l25.78-25.74h5l25.78,25.75v4.93l-25.78,25.74Zm5-61.93h-5l-25.78-25.74v-5l25.78-25.74h5l25.79,25.75v4.94Zm-5-61.94-25.78-25.73v-5l25.78-25.73h5l25.78,25.78v4.91L1802.44,860Zm5-61.93h-4.94l-25.8-25.8v-4.86l25.79-25.73h5l25.73,25.69v4.94Zm-.1-61.94h-4.9l-25.75-25.7v-4.92l25.8-25.74h4.92l25.79,25.75v4.8Zm-4.88-61.88-25.78-25.74V643.6l25.79-25.75h4.94l25.78,25.74v4.94l-25.79,25.75Zm4.9-62h-4.85l-25.82-25.78v-4.89l25.81-25.77h4.92l25.81,25.77v4.85Zm-4.88-62-25.79-25.75v-4.9l25.8-25.75h4.95l25.8,25.75v4.9l-25.79,25.75Zm4.95-61.92h-4.93l-25.8-25.76v-4.89L1797.49,432h4.92l25.81,25.77v4.89Zm-4.94-61.94-25.8-25.76v-4.9l25.81-25.77h4.93l25.81,25.77v4.89l-25.8,25.76Zm4.93-61.93h-4.92l-25.81-25.77v-4.9l25.8-25.75h4.94l25.8,25.76v4.91Zm0-61.94h-4.92l-25.81-25.77v-4.91l25.79-25.74h5l25.8,25.76v4.9Zm-4.95-61.93-25.79-25.74V210l25.78-25.74h5L1828.23,210v4.92l-25.8,25.76Zm5-61.94h-5L1771.68,153v-4.95l25.79-25.74h5l25.8,25.76V153ZM1740.68,55.17l25.77-25.74h5l25.78,25.75v4.93l-25.78,25.74h-5l-25.77-25.73Zm-5.23,5.22h4.93l25.81,25.76v4.91l-25.8,25.76h-5l-25.79-25.75V86.15Zm-56.8-5.2,25.78-25.76h5l25.77,25.74v5l-25.77,25.73h-5L1678.64,60.1Zm-5.21,5.2h4.91l25.81,25.76v4.92l-25.79,25.74h-4.94l-25.8-25.75V86.14Zm-56.83-5.22,25.78-25.74h5l25.78,25.75v4.93l-25.78,25.74h-5l-25.78-25.73Zm-.3,5.22,25.81,25.76v4.91l-25.8,25.76h-5l-25.76-25.73v-5l25.78-25.73Zm-60.18.81V56l25.78-25.72h5l24.68,24.64h-.45V60.1l-25.79,25.75h-5L1555.67,61.2Zm-5.24,0h4.21l25,24.94v4.95l-25.78,25.74h-4.23l-25-24.94V87ZM1494.1,56l25.76-25.72h5L1550.64,56v4.9l-25.81,25.75h-5L1494.1,60.94Zm-5.24,5.23h5l25.76,25.73v5l-25.8,25.74h-4.92l-25.8-25.76V87ZM1432.06,56l25.78-25.73h5L1488.58,56v5l-25.76,25.72h-5l-25.77-25.73Zm-5.23,5.22h4.94L1457.57,87v4.93l-25.8,25.75h-4.95l-25.78-25.74V86.94ZM1370,56l25.79-25.75h5L1426.54,56v5l-25.77,25.73h-5L1370,60.9Zm-5.21,5.2h4.92L1395.54,87v4.87l-25.84,25.81h-4.88L1339,91.88V87ZM1308,56l25.8-25.75h4.95L1364.53,56v4.9l-25.79,25.75h-5L1308,60.9Zm-.28,5.2L1333.5,87v4.92l-25.8,25.76h-4.92L1277,91.89v-5l25.75-25.7ZM1246,56l25.79-25.74h5L1302.5,56v4.86l-25.83,25.8h-4.92L1246,60.91Zm-.27,5.27L1271.46,87v5l-25.78,25.74h-5l-25.78-25.74V87l25.77-25.73ZM1183.94,56l25.75-25.72h5L1240.43,56v5l-25.76,25.73h-5L1183.94,61Zm-.3,5.24L1209.42,87v5l-25.78,25.74h-4.94l-25.8-25.77V87l25.79-25.76Zm-61.77-5.07,25.91-25.89h4.84l25.79,25.79V61l-25.8,25.75h-4.92l-25.82-25.76Zm-5.17,5.07h4.91L1147.39,87v4.94l-25.79,25.75h-4.91l-25.82-25.76V87ZM1059.83,56l25.73-25.69h5l25.82,25.82V61l-25.8,25.76h-4.94l-25.82-25.76Zm-.29,5.27L1085.38,87v4.87l-25.83,25.77h-4.93l-25.78-25.74v-5l25.7-25.65ZM997.8,56.14l25.88-25.84h4.86l25.8,25.8,0,4.78-25.87,25.83h-4.72l-25.92-27Zm-5.2,5.12h5.2v-.9l25.51,26.53v5l-25.89,25.85h-4.83l-25.8-25.76V87ZM935.79,56l25.78-25.75h4.94l25.79,25.77V61L966.51,86.71h-4.94L935.77,61Zm-5.22,5.21h4.92L961.28,87v4.94L935.5,117.68h-4.95l-25.8-25.75V87ZM873.75,56l25.78-25.74h5L930.27,56V61L904.49,86.71h-5L873.75,61Zm-5.23,5.22h4.94L899.27,87v4.91l-25.8,25.76h-5L842.72,91.94V87ZM811.72,56l25.77-25.74h5L868.24,56V61L842.46,86.71h-5L811.72,61Zm-5.23,5.22h4.93L837.23,87v4.91l-25.8,25.76h-5L780.69,91.93V87Zm-56.8-5.2,25.78-25.76h5L806.19,56v5L780.42,86.71h-5L749.69,61Zm-5.21,5.2h4.91L775.2,87v4.92L749.4,117.68h-4.93l-25.8-25.75V87ZM687.65,56l25.78-25.74h5L744.17,56V61L718.39,86.71h-5L687.65,61Zm-31,31,25.78-25.73h4.93L713.17,87v4.91l-25.8,25.76h-5L656.65,92Zm-31,31,25.8-25.76h4.94L682.15,118v4.92l-25.79,25.76h-5l-25.79-25.76Zm-31,30.95,25.78-25.74h5l25.78,25.74v5l-25.77,25.73h-5l-25.79-25.75Zm-31,31,25.76-25.73h5l25.76,25.73v5l-25.76,25.73h-5l-25.76-25.73Zm-31,31,25.77-25.73h5l25.77,25.73v5l-25.78,25.74h-5l-25.78-25.74Zm-31,31,25.78-25.75h5l25.78,25.73v5L532.3,272.52h-4.94L501.81,247v-4.94h-.24ZM470.8,273.32l25.8-25.76h5.18l25.29,25.24v4.94L500.77,304h-4.23l-25.74-25.7Zm-31,31,25.78-25.74h4.89l25.84,25.81v4.86L470.52,335h-4.94l-25.8-25.76Zm-31,30.94,25.77-25.72h5l25.78,25.75v4.95l-25.78,25.74h-5l-25.79-25.74Zm-31,31,25.75-25.7h5l25.79,25.76v4.93L408.49,396.9h-4.94l-25.79-25.79Zm-31,31,25.78-25.74h5l25.74,25.74v4.94l-25.8,25.76h-5l-25.73-25.69Zm-31,31,25.76-25.73h4.92l25.83,25.79v4.9l-25.78,25.74h-5l-25.77-25.73Zm-31,31,25.78-25.75h5l25.8,25.76V464l-25.8,25.76h-5L284.7,464Zm-31,31,25.78-25.75h5l25.78,25.74v5l-25.78,25.74h-4.94L253.69,495Zm-31,31,25.8-25.76h4.93l25.8,25.77V526l-25.8,25.76h-4.94L222.68,526Zm-31,31,25.78-25.74h5L248.18,552V557L222.4,582.7h-5L191.66,557Zm-31,31,25.78-25.73h4.93L217.18,583v4.91l-25.8,25.76h-5l-25.77-25.74Zm-31,31,25.8-25.76h4.94L186.16,614v4.92l-25.79,25.76h-5l-25.79-25.76Zm-31,30.95,25.78-25.74h5l25.78,25.74v5L129.37,675.6h-5L98.6,649.89Zm-31,31,25.76-25.73h4.92l25.81,25.77v4.93L98.35,706.57h-5L67.62,680.85Zm-31,31,25.77-25.73h5l25.77,25.73v4.92L67.28,737.54H62.33L36.6,711.85Zm-.35,61.67H31.37L5.57,742.76v-4.92l25.78-25.75h4.91l25.83,25.78v4.85Zm26.11,31L36.6,773.74v-5L62.33,743h4.94l25.83,25.78v4.91L67.34,799.47Zm35.94,31H93.38L67.62,804.72v-5L93.38,774h5l25.76,25.73v4.93Zm26.09,31L98.6,835.66v-5L124.34,805h5l25.76,25.73v5l-25.78,25.74Zm35.9,31h-4.87l-25.81-25.77V861.7L155.39,836h5l25.78,25.74v4.88Zm31.08,30.95h-5l-25.76-25.73v-5l25.71-25.68h5l25.79,25.75v4.92Zm26.08,31-25.79-25.75v-5l25.79-25.74h4.92l25.81,25.77v4.93l-25.8,25.76Zm35.9,31h-4.89l-25.79-25.75v-4.92l25.79-25.76h4.93l25.8,25.76v4.86Zm26.12,31-25.79-25.75v-5l25.76-25.72h4.95l25.8,25.76v5l-25.78,25.74Zm35.93,30.95h-4.92l-25.79-25.74v-4.93l25.79-25.74h5l25.79,25.75v4.86Zm31,31h-4.92l-25.8-25.75v-5l25.75-25.7h5l25.8,25.76v4.92Zm31,31h-4.85l-25.82-25.78v-4.89l25.81-25.77h4.92l25.81,25.77v4.85Zm26.13,30.94-25.78-25.74v-5l25.75-25.71h5l25.8,25.76v4.92l-25.78,25.74Zm61.75,5.2-25.83,25.8h-4.89l-25.8-25.77v-4.91l25.79-25.76h4.94l25.78,25.74Zm.26-5.2-25.78-25.75,0-4.92,25.78-25.74h4.94l25.8,25.77v4.87l-25.82,25.78Zm60.24-.81v5.24L500,1170.27h-5l-24.66-24.63h.41v-5.24l25.78-25.74h4.94l24.67,24.64Zm1,0-25-24.93v-4.92l25.8-25.76h4.24l25,24.92v5L531,1139.3Zm61,5.24L562,1170.27h-5l-25.76-25.73v-5l25.76-25.73h5l25.76,25.73Zm.27-5.24-25.79-25.75,0-4.94,25.78-25.74h5l25.78,25.74v5l-25.77,25.73Zm61.77,5.22-25.79,25.75h-5l-25.79-25.75v-4.93l25.79-25.75h5l25.79,25.75Zm.25-5.22-25.75-25.72v-5l25.76-25.73h5l25.8,25.76v4.92l-25.79,25.75Zm61.77,5.23-25.78,25.74h-5l-25.78-25.73v-5l25.78-25.73h5l25.78,25.74Zm.28-5.23-25.79-25.74v-4.94l25.8-25.75h4.93l25.8,25.76v4.92l-25.79,25.75Zm61.74,5.24-25.77,25.73h-5l-25.78-25.75v-4.93l25.78-25.75h5l25.77,25.73Zm.27-5.24-25.78-25.75v-4.92l25.79-25.75h5l25.8,25.76v4.92l-25.79,25.75Zm61.77,5.23-25.78,25.74h-5l-25.77-25.73v-5l25.77-25.73h5l25.78,25.74Zm.26-5.23-25.78-25.74v-4.95l25.79-25.74h5l25.8,25.76v4.92l-25.79,25.75Zm61.77,5.23-25.78,25.74h-5l-25.78-25.73v-5l25.78-25.73h5L898,1139.58Zm.27-5.23-25.79-25.74v-4.93l25.8-25.75h4.95L929,1108.61v4.95l-25.77,25.74Zm61.76,5.2-25.8,25.77h-4.94l-25.78-25.74v-5l25.78-25.74h4.94L960,1139.6Zm5.21-5.2h-4.94l-25.79-25.75v-4.92l25.8-25.76h4.92l25.8,25.76v4.91Zm56.8,5.25-25.76,25.72h-5l-25.8-25.76v-4.91l25.8-25.76h4.93l25.79,25.74Zm.3-5.25-25.78-25.74v-4.95l25.79-25.74h4.94l25.82,25.76v4.9l-25.8,25.76Zm61.77,5.22-25.8,25.76h-5l-25.8-25.76v-4.92l25.79-25.75h5l25.79,25.75Zm.27-5.22-25.79-25.73v-5l25.79-25.73h5l25.78,25.74v5l-25.78,25.74Zm61.76,5.22-25.8,25.75h-4.92l-25.82-25.76v-4.9l25.81-25.76h4.95l25.79,25.75Zm.28-5.22-25.79-25.76v-4.91l25.79-25.76h5l25.78,25.73v5l-25.78,25.73Zm61.73,5.25-25.76,25.72h-5l-25.77-25.73v-5l25.75-25.73h5l25.75,25.72Zm.29-5.25-25.77-25.73v-5l25.77-25.73h5l25.78,25.74v5l-25.77,25.73Zm61.74,5.24-25.77,25.73h-5l-25.8-25.76v-4.92l25.79-25.75h5l25.77,25.74Zm.28-5.24-25.8-25.76v-4.91l25.81-25.76h5l25.79,25.76v4.91l-25.79,25.76Zm61.75,5.23-25.79,25.74h-4.95l-25.78-25.74v-4.94l25.79-25.75h4.94l25.78,25.74Zm.3-5.23-25.78-25.74v-5.22h-.52l26-26h4.93l25.8,25.76v5.22h.24v.23l-25.77,25.73Zm31,30.92-25.75-25.71v-4.92l25.79-25.75h5.18l25.28,25.24V1144l-26.25,26.21Zm30.79-25.77-25.8,25.77h-.17l26-25.93h0Zm-.07-5.71-25.47-25.44v-5h-.28v-.22l25.79-25.76h4.94L1425,1108.1V1113l-25.75,25.7ZM1456,1144l-25.79,25.74h-4.94l-25.55-25.52v-4.94h-.24V1139l25.72-25.69h5.08L1456,1139Zm.28-5.23L1430.54,1113v-5l12.74-12.73,13-13h5.07l25.72,25.69v5l-25.78,25.74Zm61.74,5.23-25.77,25.74h-5L1461.56,1144v-5l25.76-25.73h5l25.76,25.73Zm.28-5.23-25.8-25.76,0-4.94,25.77-25.73h5l25.77,25.73v5l-25.78,25.74Zm61.76,5.21-25.79,25.76h-5L1523.56,1144V1139l25.78-25.75h5L1580.1,1139Zm.26-5.21L1554.6,1113v-5l25.75-25.72h5l25.79,25.75V1113l-25.8,25.76Zm61.76,5.22-25.79,25.75h-4.95L1585.61,1144v-5l25.78-25.73h5l25.78,25.74Zm.29-5.22-25.8-25.75v-4.94l25.79-25.74h5l25.79,25.75V1113l-25.8,25.76Zm61.73,5.23-25.78,25.74h-4.94L1647.64,1144V1139l25.78-25.75h5l25.76,25.73Zm.28-5.23L1678.64,1113v-4.92l25.78-25.75h5l25.79,25.75V1113l-25.8,25.76Zm61.76,5.22-25.79,25.75h-5L1709.67,1144v-5l25.76-25.73h5l25.78,25.74Zm.27-5.22L1740.68,1113v-4.95l25.78-25.74h5l25.79,25.75V1113l-25.8,25.76Zm61.76,5.2-25.81,25.77h-4.93L1771.71,1144v-5l25.77-25.73h5l25.8,25.75Zm31-35.89V1113l-25.79,25.75h-4.92L1802.71,1113v-4.91l25.79-25.74h5Zm0-61.94v4.95l-25.77,25.74h-5l-25.79-25.74v-4.93l25.8-25.75h4.95Zm0-61.92v4.94l-25.78,25.74h-4.95l-25.8-25.75V984.2l25.81-25.76h4.92Zm0-61.94v4.94l-25.78,25.75h-4.94l-25.8-25.76v-4.92l25.8-25.76h4.94Zm0-61.95v4.95L1833.45,891h-4.95l-25.8-25.75v-4.93l25.79-25.74h5Zm0-61.94v4.95l-25.77,25.74h-5l-25.75-25.75v-4.93l25.8-25.75h4.95Zm0-61.94v4.95l-25.78,25.74h-4.95l-25.8-25.75v-5l25.68-25.64h5.12Zm0-61.88v4.82l-25.85,25.81h-4.92l-25.72-25.67v-5l25.79-25.75h4.93Zm0-62v4.92l-25.78,25.74h-5l-25.79-25.75v-5l25.75-25.71h5Zm0-61.94v4.87l-25.84,25.81h-4.88l-25.8-25.76v-4.92l25.8-25.76h4.92Zm0-61.93v4.92l-25.8,25.76h-4.92l-25.8-25.76v-4.92l25.82-25.77h4.88Zm0-61.93v4.92l-25.8,25.76h-4.92l-25.8-25.76v-4.92L1828.52,401h4.9Zm0-61.95v4.92l-25.8,25.76h-4.91l-25.81-25.77v-4.92l25.78-25.74h5Zm0-61.93v4.91l-25.8,25.76h-4.92l-25.8-25.76v-4.91l25.81-25.76h4.9Zm0-61.94v4.91l-25.81,25.77h-4.93l-25.78-25.74v-5l25.77-25.73h5Zm0-62v5l-25.78,25.74h-5L1802.71,184v-5l25.78-25.73h5Zm0-61.93V122l-25.79,25.75h-5L1802.71,122v-5l25.79-25.74h4.93Zm0-57-25.78,25.74h-5l-25.78-25.73v-5l25.78-25.74h5l25.78,25.75Z"/></g></g></svg>