<svg xmlns="http://www.w3.org/2000/svg" viewBox="0 0 1520.24 384.24"><defs><style>.cls-1{fill:#ebebeb;}</style></defs><title>back_wizualizacje</title><g id="Warstwa_2" data-name="Warstwa 2"><g id="kwadraty_polaczone_kopia" data-name="kwadraty polaczone kopia"><path class="cls-1" d="M1494.47,248.32l25.76-25.72h0v-5.52l-25.77-25.72v-5l25.77-25.73v-5.52h0l-25.76-25.73v-5l25.77-25.73V93.21l-25.77-25.73v-5l25.77-25.71V31.27L1494.47,5.54v-5l.58-.58h-.59l-.32.32h-4.9l-.32-.32h-.61l.63.63V5.54l-25.78,25.74h-5L1432.43,5.53V.61L1433,0h-.59l-.32.32h-4.92l-.32-.32h-.57l.59.59V5.53l-25.79,25.75h-4.93l-25.8-25.77V.63L1371,0h-.61l-.32.32h-4.93l-.32-.32h-.55l.61.61v4.9l-25.81,25.77h-4.92L1308.36,5.51V.59L1309,0h-.55l-.32.32h-5l-.32-.32h-.55l.61.61V5.53l-25.79,25.75h-5L1246.33,5.53V.61l.61-.61h-.56l-.32.32h-4.94l-.32-.32h-.56l.61.61V5.53L1215,31.28h-5L1184.3,5.54V.6l.6-.6h-.56l-.32.32h-4.95l-.32-.32h-.56l.61.61V5.53L1153,31.28h-5L1122.28,5.56v-5l.58-.58h-.55l-.32.32h-5l-.32-.32h-.55l.59.59v5L1091,31.28h-5L1060.23,5.52V.61l.61-.61h-.55l-.32.32h-5l-.32-.32h-.55l.59.59v5L1029,31.28h-5L998.23,5.55v-5l.59-.59h-.56l-.32.32H993L992.67,0h-.57l.6.6V5.54l-26.3,26.25h-4.18L936.44,6V1.11L937.55,0H937l-.83.83h-4.93L930.39,0h-.58l1.11,1.11V6L905.16,31.79h-4.21L876,6.86v-5L877.86,0h-.6l-1.65,1.65h-4.87L869.1,0h-.59l1.94,1.94V6.81L844.6,32.62h-4.85L813.94,6.85V1.93L815.88,0h-.58l-1.65,1.65h-4.93L807.07,0h-.59l1.93,1.93V6.87L782.64,32.62H777.7L751.89,6.85V1.95l2-1.95h-.57l-1.65,1.65h-4.95L745,0h-.56l1.91,1.9v5L720.6,32.62h-4.93L689.89,6.87V1.93L691.82,0h-.59l-1.65,1.65h-4.93L683,0h-.59l1.95,1.94V6.85L658.56,32.62h-4.9L627.82,6.84V2l2-2h-.59l-1.65,1.65h-4.93L621,0h-.59l2,1.95v4.9L596.52,32.62h-4.93L565.78,6.85V1.94L567.72,0h-.58L565.5,1.65h-4.93L558.92,0h-.57l1.92,1.92v5L534.46,32.62h-4.9L503.75,6.85V1.95l2-1.95h-.58l-1.65,1.65h-4.93L496.89,0h-.6l2,2V6.85L472.45,32.62h-4.92L441.74,6.86V1.94L443.68,0h-.59l-1.65,1.65h-4.92L434.86,0h-.59l1.94,1.94V6.85L410.41,32.62h-4.93L379.7,6.88v-5L381.62,0h-.55l-1.65,1.65h-5L372.81,0h-.55l1.93,1.93V6.87L348.4,32.62h-5L317.67,6.88v-5L319.59,0H319l-1.65,1.65h-5L310.78,0h-.55l1.92,1.92v5L286.37,32.62h-4.94L255.63,6.86V1.94L257.57,0H257l-1.65,1.65h-4.93L248.77,0h-.57l1.93,1.93V6.87L224.33,32.62h-4.95L193.6,6.88v-5L195.52,0H195l-1.65,1.65h-5L186.71,0h-.55l1.94,1.94V6.86L162.31,32.62h-5L131.56,6.86V1.94L133.5,0h-.55l-1.65,1.65h-5L124.69,0h-.55l1.92,1.91v5L100.28,32.62h-5L69.56,6.88v-5L71.47,0h-.61L69.22,1.65H64.27L62.62,0h-.57l2,2V6.82L38.19,32.62H33.31L7.51,6.86V1.94L9.45,0H8.84L7.19,1.65h-5L.57,0H0L2,2V7.19h5.3L33,32.89v5.23h5.24L64,63.85v5.24h5.25L95,94.83v5.23h5.24l25.77,25.74V131h5.23l25.79,25.74V162h5.22l25.8,25.76V193h5.23l25.79,25.74v5.2h5.18l25.82,25.77v5.22h5.23l25.8,25.75v5.2h5.22l25.79,25.75v5.22h5.23l25.81,25.77v5.2h5.21l25.8,25.76v5.22h5.22l5.49,5.48.53,0-5.73-5.72v-5l25.75-25.71h5l25.8,25.76v4.92l-1.12,1.12.63-.06.77-.77h4.94l.22.22.52,0-.47-.47,0-4.92,25.78-25.74h4.94l25.8,25.77v.18l5-.46h-4.71l-25.8-25.76v-4.94l25.79-25.75h5l25.78,25.74v4.93l-25.79,25.76.63-.06,25.44-25.4h4.24l20.76,20.73.5,0-20.71-20.68h.44v-5.23l25.78-25.74h5l24.69,24.65h-.46v5.23l-20.48,20.45.61-.06L590,347h5l16.31,16.28.5,0-16.55-16.53v-4.92L621.06,316H626l25.8,25.76v4.92l-14.15,14.13.61-.06L652.06,347h5l11,11,.51,0L657.3,346.7v-5L683.09,316H688l25.8,25.75v4.94l-7.8,7.79.63-.06,7.46-7.45H719l5.77,5.76.52,0-6-6v-4.92L745.13,316h4.92l25.79,25.74v5l-1.44,1.44.61-.06,1.11-1.11h5l.5.5.51,0-.72-.72v-5L807.15,316h4.93l25.8,25.75v.5l5.51-.51h0L869.19,316h4.93l21,20.95.52,0L874.4,315.72V310.8L900.21,285h4.92l25.79,25.75v4.94l-19.76,19.74.63-.06L931.23,316h4.91l15.71,15.69.54,0-16-15.93V310.8L962.25,285h5.2v-1L993,310.59v5l-13.52,13.5.65-.06L993.18,316h5l10.06,10.47.92-.09-10.66-10.65v-5L1024.19,285h5L1055,310.82v4.87l-7.11,7.09.65-.06,6.74-6.73h4.9l5.18,5.17.54-.05-5.42-5.41v-4.9L1086.35,285h4.91L1117,310.78v4.94l-.73.73.65-.06.39-.39h3.79l1.57-.15-.16-.16v-4.9L1148.34,285h4.94l25.65,25.6,1.57-.15h-1.14l-25.77-25.73v-5l25.75-25.72h5l25.75,25.71v5l-25.37,25.33.61-.06,25.05-25h5l20.37,20.34.51,0-20.63-20.59v-4.92l25.79-25.74h5.2l25.26,25.22v5l-19.63,19.6.63-.06,19.3-19.27h4.93l15.6,15.58.53,0-15.84-15.81v-4.93l25.8-25.76h4.92l25.8,25.76v4.92l-13.3,13.28.65-.06,13-12.93h4.92l10.33,10.32.54,0-10.57-10.56v-4.92l25.8-25.76h4.92l25.8,25.76v4.92l-7,6.94.64-.06,6.6-6.6h4.93l5.06,5.06.52,0-5.29-5.28V279.3l25.78-25.75h4.94l25.8,25.76v4.93l-.6.6.61-.06.26-.26h2.54l2.72-.25,0,0v-4.92l25.8-25.76h5l25.54,25.5.51,0-25.77-25.72Zm25.48-92.9v5l-25.76,25.73h-5l-25.8-25.76v-4.92l25.81-25.77h4.93ZM1184.3,186.63v-.2l25.79-25.76H1215l25.8,25.76v4.92L1215,217.09h-4.95l-25.5-25.46v-5ZM193.6,125.78l25.77-25.72h5l25.77,25.73v5l-25.8,25.76H219.4l-25.8-25.75Zm-.33-.26h-4.91L162.6,99.79v-5l25.75-25.71h5l25.79,25.74v4.88ZM1086,98.72v.23l-25.8,25.75h-4.92l-25.83-25.77v-5.2H1029l26-26h5l25.77,25.74v5.22Zm371.91-.29-25.81,25.77h-4.93l-25.78-25.75,0-4.93,25.78-25.75h5l25.78,25.74Zm.27.29h5l25.78,25.74v5l-25.77,25.73h-5l-25.78-25.74v-4.94Zm-31.3,25.75v4.94l-25.78,25.74h-5l-25.79-25.76v-4.9l25.79-25.77h4.94Zm-31-26-25.8,25.76h-4.91l-25.81-25.77V93.51l25.78-25.74h5l25.78,25.74Zm-31,26.06v4.9l-25.8,25.76h-4.94l-25.8-25.76v-4.89l25.81-25.77h4.93Zm-31-26.06-25.81,25.77h-4.91l-25.8-25.76V93.5l25.78-25.74h5l25.78,25.74Zm-31,26.06v4.9l-25.79,25.76h-5l-12.86-12.84-12.93-12.92v-4.91l25.8-25.76h4.94Zm-31-26L1259,111.26l-13,12.94h-4.92l-25.79-25.76V93.5l25.77-25.74h5l7.6,7.59,18.15,18.13Zm-31,26v4.92L1215,155.15h-4.94l-20.74-20.7-5.05-5v-4.94l25.79-25.74h5Zm-31-26L1184,124.2h-4.91l-25.8-25.75v-5l25.77-25.72h5l25.77,25.73Zm-31,26v4.92L1153,155.15h-5l-25.76-25.73v-5L1148,98.72h5ZM1091,155.67l26-26H1122l25.8,25.76v5.22h.28v.2l-25.79,25.76h-4.93l-25.82-25.78v-5.18Zm56.77-57.24L1122,124.2h-4.92l-25.53-25.5v-5h-.28V93.5L1117,67.76h5l25.78,25.74Zm-56.31.8,25.28,25.24v4.95l-26.29,26.25h-4.14l-25.81-25.76V125l25.82-25.76ZM1086,155.94v4.95l-25.8,25.74h-4.94l-25.82-25.76V156l25.82-25.76h4.94Zm-56.84-56.71L1055,125v4.89l-25.83,25.78h-4.93l-25.78-25.74V125l25.79-25.74ZM1024,160.87l-25.8,25.76h-4.93l-25.8-25.76V156l25.8-25.76h4.93L1024,155.94ZM998.17,124.7h-4.92L967.44,98.93V94l25.81-25.77h4.92L1024,94l0,4.92ZM993,125v4.92l-25.79,25.75h-4.94l-25.79-25.75V125l25.8-25.76h4.92Zm-31,31v4.91l-25.79,25.76h-4.94l-25.8-25.76,0-4.93,25.78-25.74h4.94Zm0-57-25.8,25.77h-4.93L905.41,98.93l0-4.92,25.79-25.75h4.93L962,94Zm-31,26v4.95l-25.77,25.74h-5L874.4,129.92V125l25.8-25.75h4.95ZM317.67,187.75,343.48,162h4.9l25.81,25.77v4.92l-25.8,25.76h-4.92l-25.8-25.76Zm-.28-.3h-5l-12.82-12.8-13-13v-4.91L312.44,131h4.94l25.8,25.77v4.9Zm31.28-25.76v-4.89L374.48,131h4.93l25.81,25.77v4.9l-25.8,25.76h-4.94Zm0,57L374.48,193h4.92l25.81,25.77v4.89l-25.8,25.76h-4.93l-25.8-25.76Zm31-26.06v-4.92L405.51,162h4.9l25.81,25.77v4.92l-25.8,25.76H405.5Zm31-31v-4.9L436.5,131h4.94l25.78,25.75v4.94l-25.78,25.74h-5Zm0,57L436.51,193h4.93l25.79,25.75v4.94l-25.78,25.74H436.5l-25.79-25.76Zm31-26.05v-4.94L467.52,162h4.92l25.81,25.77v4.93l-25.8,25.76h-4.94Zm31-31v-4.94L498.52,131h5l25.78,25.74v5l-25.77,25.73h-5Zm31,26L529.56,162h4.93l25.78,25.74v5L534.5,218.43h-5l-25.8-25.76Zm31-26v-5L560.56,131h5l25.81,25.77v4.89l-25.8,25.76h-5Zm31,26L591.59,162h4.93l25.81,25.77v4.92l-25.8,25.76h-5l-25.8-25.76Zm31-26v-5L622.61,131h5l25.78,25.75v4.94l-25.78,25.74h-5Zm31,26L653.66,162h4.9l25.81,25.77v4.93l-25.8,25.76h-4.92l-25.82-25.77Zm31-26.07v-4.9L684.65,131h4.95l25.78,25.74v5L689.6,187.45h-5Zm31,26L715.67,162h4.2l25,24.94v4.92L719,217.6h-4.22l-24.93-24.91ZM720.43,162h.47v-5.22L746.67,131h5l24.67,24.64h-.47v5.24l-25.77,25.73h-5Zm29.9,24.94,25.78-25.75h5l25.8,25.76v4.92l-25.8,25.76h-5l-25.79-25.75Zm31-26v-5l25.76-25.73h5l25.78,25.74v5L812.1,186.63h-5Zm31,26,25.78-25.74h5l25.8,25.76v4.92l-25.8,25.76h-5l-25.79-25.74Zm31-26v-5l25.78-25.73h5L899.92,156v4.9l-25.78,25.74h-5Zm56.52-62L874.13,124.7h-4.94L843.4,98.91v-5l25.71-25.67h5L899.92,94Zm-31,26v4.93l-25.8,25.76h-5l-25.78-25.74v-5l25.78-25.74h5Zm-31-31.25v5.22L812.1,124.7h-5l-24.67-24.64h.43V94.84l25.81-25.75h5l24.67,24.64Zm-31,31.26v4.92l-25.79,25.75h-4.23l-25-24.92V125.8l25.78-25.74h4.24ZM777.41,99.78l-25.78,25.74h-5L720.9,99.79v-5l25.76-25.72h5l25.77,25.72Zm-31,26v5L720.6,156.5h-4.93l-25.78-25.74v-5l25.74-25.72h5Zm-31-26L689.6,125.52h-5L658.85,99.76V94.84l25.79-25.75h5l25.77,25.72Zm-31,26v4.94L658.56,156.5h-4.91l-25.82-25.76v-4.91l25.8-25.75h5Zm-31-26-25.79,25.75h-4.95L596.82,99.79v-5L622.6,69.09h5l25.78,25.73Zm-31,26v4.92L596.52,156.5h-4.94l-25.8-25.76V125.8l25.78-25.74h5Zm-31-26.06-25.81,25.77h-5L534.79,99.78v-5l25.77-25.72h5l25.82,25.75Zm-31.06,26v5L534.5,156.49h-4.94l-25.81-25.77V125.8l25.78-25.74h5Zm-31-26-25.78,25.74h-5L472.74,99.77v-5l25.77-25.73h5l25.76,25.72Zm-31,26v4.93L472.45,156.5h-4.93l-25.78-25.75,0-4.93,25.78-25.75h5Zm-31-26-25.79,25.75h-4.93l-25.8-25.77V94.84l25.78-25.75h5l25.78,25.73Zm-31,26v4.92l-25.8,25.76h-4.91L379.7,130.73V125.8l25.78-25.74h5Zm-31-26.06-25.81,25.77h-4.92L348.67,99.74v-4.9l25.8-25.75h4.94l25.8,25.76Zm-31,26.06v4.92L348.38,156.5h-4.91l-25.8-25.76V125.8l25.78-25.74h5Zm-31-26.06-25.81,25.77h-4.93l-25.8-25.76V94.83l25.78-25.74h5l25.79,25.74ZM294,107.65l18.15,18.13v5L299.4,143.47l-13,13h-4.92l-25.79-25.76V125.8l25.77-25.74h5Zm-12.84-7.89-25.8,25.76h-4.94l-25.8-25.74V94.82L250.4,69.09h5l25.79,25.74Zm-56.53,57L250.4,131h5l25.79,25.75v4.92l-25.8,25.76h-4.94l-20.74-20.7-5.05-5Zm31,31L281.43,162h4.92l25.79,25.75v4.92l-25.83,25.78h-4.89l-25.79-25.75Zm31,31L312.44,193h4.93l25.81,25.77v4.9l-25.8,25.76h-4.95l-25.8-25.75Zm31,31,25.82-25.77h4.88l25.82,25.77v4.87l-25.85,25.81h-4.88l-25.8-25.75Zm31,31,25.8-25.75h4.95l25.8,25.75v4.9l-25.79,25.75h-5l-25.79-25.75Zm31-26v-4.92l25.82-25.77h4.88l25.82,25.77v4.92l-25.8,25.76H405.5Zm31,26,25.79-25.75h5l25.78,25.73v5l-25.77,25.73h-5l-25.78-25.75Zm31-26v-4.95l25.8-25.76h4.9l25.82,25.77v4.93l-25.8,25.75h-4.95Zm31-31v-4.94L498.53,193h5l25.78,25.74v5l-25.78,25.73h-5Zm31,26,25.82-25.77h4.91l25.81,25.76,0,5L534.5,280.36h-5l-25.8-25.76Zm31-26v-5L560.56,193h5l25.81,25.77v4.89l-25.8,25.76h-5Zm31,26,25.82-25.77h4.91l25.82,25.77v4.92l-25.8,25.76h-5l-25.8-25.76Zm31-26v-5L622.61,193h4.94l25.79,25.75v4.94l-25.78,25.74h-5Zm31,26,25.84-25.78h4.15l25,25v4.91L657,279.53h-4.2l-25-24.94Zm30.55-25.78h.48v-5.18L684.65,193h4.94l24.68,24.64h-.46v5.22L688,248.57h-4.95Zm29.94,24.95,25.8-25.76H719l25.8,25.77v4.91L719,279.54H714.1l-25.79-25.74Zm31-26v-4.92l25.78-25.75h5l25.78,25.74v5l-25.78,25.74h-4.94Zm31,26.06,25.79-25.77h5l25.8,25.77v4.91l-25.79,25.75h-5l-25.79-25.76Zm31-26v-5l25.77-25.73h5l25.79,25.75v4.94L812.1,248.57h-5Zm31,26,25.79-25.75h5l25.8,25.77v4.91l-25.8,25.76h-5l-25.79-25.75Zm31-26v-5l25.78-25.74h5l25.79,25.75v4.94l-25.79,25.75h-5Zm31-31v-4.93l25.79-25.74h5l25.78,25.75v4.95L905.15,217.6H900.2Zm31,26.05,25.8-25.76h4.94L962,217.9v4.9l-25.8,25.77h-4.93L905.41,222.8Zm31-26.06v-4.92l25.8-25.76h4.92L993,186.92v4.92l-25.8,25.76h-4.92Zm31,26.06,25.8-25.76h4.93L1024,217.88v5l-25.71,25.68h-5l-25.8-25.8Zm31-26v-4.95l25.78-25.74h4.95L1055,186.94v4.89l-25.83,25.77h-4.92Zm31,26,25.83-25.77h4.94L1086,217.88v4.85l-25.89,25.84h-4.85l-25.81-25.81Zm31-26.07v-4.91l25.82-25.77h4.92L1117,186.91v4.95l-25.78,25.74h-4.92Zm31,26.09,25.81-25.78h4.93l25.8,25.77v4.92l-25.8,25.75h-4.93l-25.82-25.82Zm31-26.09v-4.9l25.8-25.77h5.16l25.29,25.25v4.93l-26.3,26.26h-4.16Zm56.52-.21v.25l-25.78,25.73H1153Zm-25.48-30.94v-5h-.3v-.24l25.79-25.74H1184l25.81,25.77v4.92L1197,173.16l-13,13h-4.93Zm61.73-.3v-4.93l25.8-25.77H1246l25.79,25.75v5l-25.78,25.74h-4.94Zm31,26,25.8-25.76h4.93l25.81,25.77v4.89l-25.8,25.76h-4.95l-25.8-25.75Zm31-26v-4.93l25.81-25.77h4.9l25.81,25.77v4.92l-25.8,25.76h-4.92Zm31,26.06,25.81-25.77h4.92l25.81,25.77v4.89l-25.8,25.76h-4.93l-25.8-25.76Zm31-26.06v-4.92l25.81-25.77h4.9l25.81,25.77v4.92l-25.8,25.76h-4.92Zm31,26.06,25.8-25.77h4.93l25.79,25.75v4.94l-25.78,25.74h-4.94l-25.79-25.76Zm31-26.05v-4.94l25.79-25.76h4.92l25.81,25.77v4.93l-25.8,25.76h-4.94Zm31,26,25.79-25.75h5l25.78,25.74v5l-25.78,25.73h-5l-25.78-25.74ZM1520,93.47v5l-25.77,25.73h-4.94l-25.81-25.77V93.51l25.78-25.74h5Zm-56.52-61.91,25.79-25.74h4.92L1520,31.56v4.95l-25.79,25.74h-4.93l-25.8-25.76Zm-.25,5.23,25.76,25.72v5l-25.78,25.74h-5l-25.79-25.75v-5l25.77-25.73Zm-61.76-5.24,25.77-25.73h5l25.79,25.74v4.93l-25.8,25.76h-4.94l-25.8-25.77Zm-.29,5.24,25.78,25.73v5l-25.79,25.75h-4.93l-25.8-25.77V62.54l25.78-25.75Zm-61.74-5.21L1365.2,5.82h4.9l25.81,25.76v4.91l-25.8,25.76h-4.92l-25.8-25.76Zm-.29,5.2,25.8,25.76v4.91l-25.81,25.77h-4.92l-25.81-25.77v-4.9l25.8-25.75Zm-61.74-5.23,25.77-25.73h5l25.79,25.74v4.92l-25.8,25.76h-5l-25.77-25.73Zm-.27,5.24,25.79,25.74v4.91l-25.81,25.77h-4.93l-25.8-25.76V62.54l25.78-25.74Zm-61.76-5.22L1241.1,5.82h5l25.77,25.73v5l-25.77,25.73h-5L1215.32,36.5Zm-.27,5.22,25.79,25.74v4.93L1215,93.22h-4.93l-25.8-25.75V62.53l25.79-25.73Zm-61.76-5.24,25.78-25.73h5l25.78,25.74v5L1184,62.25h-5l-25.78-25.73Zm-.27,5.24,25.79,25.74v4.93L1153,93.22h-5l-25.76-25.73v-5L1148,36.79Zm-61.77-5.22L1117,5.82h5l25.79,25.75V36.5L1122,62.25h-5L1091.24,36.5Zm-.25,5.22,25.76,25.73v5L1091,93.22h-5l-25.8-25.76V62.54L1086,36.79Zm-61.75-5.24L1055,5.82h5l25.76,25.73v5L1060,62.25h-5l-25.53-25.5v-5h-.23Zm-5,5.74h5.2l25.27,25.24v5l-26.28,26.25h-4.18L998.48,68V63ZM993,5.82h5l25.78,25.73v5.24h.24V37L998.18,62.76h-4.93L967.44,37V31.79H967ZM962.23,37.29h4.92L993,63V68l-25.8,25.76h-4.92L936.44,68V63Zm-56.81-5.22L931.21,6.33h4.94L962,32.09V37L936.16,62.76h-4.94L905.41,37Zm-.28,5.22L930.92,63V68L905.15,93.73H900.2L874.4,68V63l25.73-25.69ZM845,38.12V32.85L870.71,7.15h5l24.67,24.64h-.42V37L874.07,62.76h-4.89L844.49,38.12Zm-1,0,25,24.93V67.9L843,93.73h-4.13l-25-24.94V63.87l25.81-25.75Zm-61-5.21L808.71,7.15h4.93l25.81,25.78V37.8l-25.8,25.77h-4.94L782.9,37.8Zm-.24,5.21,25.75,25.72v5L782.65,94.55h-5L751.89,68.79V63.86l25.79-25.74ZM720.9,32.9,746.69,7.15h4.95l25.78,25.73v5L751.64,63.58h-5L720.9,37.84Zm-.29,5.22,25.77,25.72v5L720.62,94.55h-5L689.89,68.82v-5l25.78-25.73Zm-61.75-5.19L684.66,7.15h4.92L715.37,32.9v4.94L689.59,63.58h-4.94L658.85,37.8Zm-.29,5.19,25.81,25.75v4.92l-25.8,25.76h-4.93L627.82,68.78v-4.9l25.83-25.76ZM596.82,32.9l25.8-25.75h4.92l25.8,25.76v4.92L627.56,63.58h-5L596.82,37.84Zm-.29,5.22,25.81,25.76v4.92L596.55,94.55h-5L565.78,68.79V63.88l25.81-25.76Zm-61.74-5.24L560.56,7.15h4.95l25.82,25.78V37.8L565.51,63.58h-5L534.79,37.84Zm-.33,5.24,25.81,25.74v4.95L534.48,94.55h-4.93l-25.8-25.76V63.86l25.79-25.74Zm-61.72-5.21,25.8-25.76h4.91l25.81,25.78v4.91L503.48,63.58h-5L472.74,37.83Zm-.27,5.21,25.79,25.74v4.93l-25.8,25.76h-4.94l-25.8-25.77,0-4.92L467.5,38.12Zm-61.76-5.19L436.52,7.15h4.92l25.79,25.74v4.94L441.44,63.58h-4.93L410.71,37.8Zm-5.2,5.19h4.9l25.81,25.76v4.91l-25.8,25.76H405.5L379.7,68.79V63.88Zm-56.84-5.23L374.46,7.15h5l25.8,25.76v4.9L379.41,63.58h-4.92L348.67,37.8Zm-.27,5.23,25.79,25.74v4.92l-25.8,25.76h-5L317.67,68.82v-5l25.77-25.73ZM286.64,32.9,312.43,7.15h5l25.8,25.76v4.92L317.4,63.58h-5L286.64,37.83Zm-.27,5.22,25.77,25.73v5L286.37,94.55h-5L255.63,68.8V63.87l25.78-25.75Zm-61.76-5.23,25.8-25.74h4.94l25.8,25.76v4.92L255.36,63.58h-5L224.62,37.84Zm-.28,5.23,25.78,25.74v5L224.34,94.55h-5L193.6,68.82v-5l25.78-25.73ZM162.6,32.87,188.36,7.15h5l25.8,25.76v4.92L193.33,63.58h-5L162.6,37.86Zm-.28,5.24L188.1,63.87V68.8L162.31,94.55h-5L131.56,68.8V63.87l25.79-25.75Zm-61.77-5.21,25.8-25.76h5l25.78,25.74v4.92L131.26,63.58h-4.94L100.54,37.82ZM64.31,63.58,38.54,37.84v-5L64.27,7.15h4.94L95,32.93v4.91L69.28,63.58Zm35.94,31H95.32L69.56,68.82v-5L95.32,38.12h5l25.76,25.73v4.93Zm26.09,31-25.8-25.76v-5l25.74-25.71h5l25.76,25.73v5l-25.78,25.74Zm35.9,31h-4.88l-25.81-25.77V125.8l25.78-25.74h5L188.1,125.8v4.88Zm31.08,30.95h-5L162.6,161.72v-5L188.31,131h5l25.79,25.75v4.92Zm26.08,31L193.6,192.68v-5L219.39,162h4.92l25.81,25.77v4.93l-25.8,25.76Zm35.9,31h-4.89l-25.79-25.75v-4.92L250.41,193h4.93l25.8,25.76v4.86Zm26.12,31-25.79-25.75v-5l25.76-25.72h4.95l25.8,25.76v5l-25.78,25.74Zm35.93,30.95h-4.92l-25.79-25.74v-4.93l25.79-25.74h5l25.79,25.75v4.86Zm26.12,31-25.8-25.75v-5l25.75-25.7h5l25.8,25.76v4.92l-25.8,25.76Zm61.75,5.15-25.87,25.83H374.5l-25.82-25.78v-4.89l25.81-25.77h4.92l25.81,25.77Zm5.16-5.15H405.5l-25.8-25.76v-4.92l25.8-25.76h4.92l25.8,25.76v4.87Zm56.85,5.22-25.8,25.76h-4.91l-25.81-25.78v-4.9l25.8-25.77h4.93l25.79,25.75Zm31-31-25.8,25.75h-4.95l-25.78-25.74V311.6l25.78-25.75h4.94l25.8,25.76Zm.26-5.23-25.77-25.73v-5l25.78-25.73h5l25.77,25.72v5L503.5,311.31Zm61.76,5.24-25.8,25.74h-4.92l-25.8-25.76v-4.92l25.8-25.76h5l25.76,25.73Zm.28-5.24-25.76-25.72v-5l25.76-25.72h5l25.8,25.75v4.9l-25.81,25.75Zm60.22,4.43L595,341.47h-4.23l-25-24.94v-4.92l25.8-25.76h4.21l25,24.94Zm.27-5.23-24.69-24.65h.47v-5.23L622.6,254.9h5l24.68,24.64h-.45v5.21L626,310.5Zm61.77,5.22L657,341.47h-5l-25.76-25.73v-5L652.07,285H657l25.81,25.76Zm.27-5.22L657.3,284.77v-5l25.78-25.74h5l25.78,25.75v4.93L688,310.5Zm61.76,5.23L719,341.47h-4.94l-25.8-25.74v-4.93L714.12,285H719l25.81,25.76Zm.28-5.23-25.78-25.75v-4.91l25.78-25.76h5l25.77,25.74v5L750.07,310.5Zm61.77,5.22-25.8,25.76h-5l-25.79-25.75V310.8L776.13,285h4.93l25.81,25.76Zm.26-5.22-25.77-25.73v-5l25.77-25.74h5l25.78,25.75v4.93L812.1,310.5Zm61.78,5.22-25.8,25.76h-5l-25.79-25.74v-4.93L838.17,285h4.93l25.81,25.76Zm31-31L874.14,310.5h-5L843.4,284.77v-5l25.78-25.74h5l25.78,25.75Zm.28-5.22-25.8-25.76v-4.92l25.8-25.76h4.94l25.78,25.75v4.94l-25.78,25.75Zm61.75,5.2L936.16,310.5h-4.94l-25.8-25.76,0-4.91,25.78-25.75h4.94L962,279.85Zm5.29-5.2h-5l-25.8-25.76v-4.91l25.79-25.76h5L993,248.87v5Zm56.73,5.14L998.1,310.5h-4.66l-26-27v-3.54l25.87-25.84h4.85L1024,279.9Zm5.16-5.14h-4.9l-25.73-25.73v-4.88l25.86-25.82h4.89L1055,248.89v4.79Zm56.91,5.2-25.8,25.76h-4.94l-25.82-25.76v-5l25.73-25.69h5L1086,279.9Zm5.21-5.2h-4.93l-23.25-23.2-2.54-2.54v-5l25.73-25.68h5L1117,248.86v4.93Zm56.82,5.21-25.8,25.75h-4.92l-25.82-25.76V280l25.91-25.88h4.83l25.8,25.8Zm5.22-5.21h-4.93l-25.81-25.77V249l25.89-25.87h4.85l25.78,25.74,0,4.93Zm26.07-31-25.77-25.73v-5l25.77-25.74h5.15l25.3,25.25v4.93l-26.31,26.26Zm61.75,5.23-25.78,25.74h-4.95l-25.78-25.74v-5.23h-.52l26-26h5l25.8,25.75v5.2h.28Zm0-5.74-25.79-25.75v-4.93l25.81-25.77h4.9l25.8,25.76v5l-25.78,25.74Zm61.76,5.2L1277.08,279h-5l-25.52-25.47v-5h-.27v-.23l25.79-25.74h5l25.79,25.75Zm.28-5.2-25.8-25.75v-4.93l25.82-25.77h4.88l25.82,25.77v4.92l-25.8,25.76Zm61.75,5.2L1339.11,279h-5l-25.79-25.75v-4.9l25.8-25.75h4.95l25.8,25.75Zm.28-5.2-25.8-25.76v-4.92l25.82-25.77h4.88l25.82,25.77v4.92l-25.8,25.76Zm61.73,5.22L1401.14,279h-5l-25.78-25.75v-4.91l25.79-25.75h5l25.78,25.73Zm.28-5.22-25.78-25.74v-4.95l25.8-25.76h4.9l25.82,25.77v4.93l-25.8,25.75Zm61.75,5.23L1463.18,279h-5l-25.77-25.73v-5l25.78-25.73h5l25.77,25.72Zm.28-5.23-25.8-25.76v-4.92l25.82-25.77h4.91L1520,217.37l0,5-25.77,25.72Z"/></g></g></svg>