<?xml version="1.0" encoding="UTF-8"?>
<!DOCTYPE svg PUBLIC "-//W3C//DTD SVG 1.1//EN" "http://www.w3.org/Graphics/SVG/1.1/DTD/svg11.dtd">
<!-- Creator: CorelDRAW 2017 -->
<svg xmlns="http://www.w3.org/2000/svg" xml:space="preserve" width="34px" height="41px" version="1.1" style="shape-rendering:geometricPrecision; text-rendering:geometricPrecision; image-rendering:optimizeQuality; fill-rule:evenodd; clip-rule:evenodd"
viewBox="0 0 3.65 4.46"
 xmlns:xlink="http://www.w3.org/1999/xlink">
 <defs>
  <style type="text/css">
   <![CDATA[
    .fil0 {fill:#B0CB1F}
   ]]>
  </style>
 </defs>
 <g id="Layer_x0020_1">
  <metadata id="CorelCorpID_0Corel-Layer"/>
  <path class="fil0" d="M3.11 3.92l0 0.54 -0.37 0 0 -0.54 -0.54 0 0 -0.38 0.54 0 0 -0.54 0.37 0 0 0.54 0.54 0 0 0.38 -0.54 0zm-1.15 -0.38l0 0 0 0.38 0 0.04 -0.43 0 -0.02 0 -1.51 0c0,-1.03 0.56,-1.39 0.93,-1.72 0.18,0.09 0.38,0.15 0.6,0.15 0.21,0 0.41,-0.06 0.59,-0.15 0.17,0.14 0.37,0.3 0.54,0.52l-0.16 0 0 0.24 0 0.3 -0.3 0 -0.24 0 0 0.24zm-0.43 -3.54c0.57,0 1.04,0.47 1.04,1.05 0,0.57 -0.47,1.04 -1.04,1.04 -0.58,0 -1.05,-0.47 -1.05,-1.04 0,-0.58 0.47,-1.05 1.05,-1.05z"/>
 </g>
</svg>
