<?xml version="1.0" encoding="UTF-8"?>
<!DOCTYPE svg PUBLIC "-//W3C//DTD SVG 1.1//EN" "http://www.w3.org/Graphics/SVG/1.1/DTD/svg11.dtd">
<!-- Creator: CorelDRAW 2017 -->
<svg xmlns="http://www.w3.org/2000/svg" xml:space="preserve" width="32px" height="35px" version="1.1" style="shape-rendering:geometricPrecision; text-rendering:geometricPrecision; image-rendering:optimizeQuality; fill-rule:evenodd; clip-rule:evenodd"
viewBox="0 0 3.24 3.58"
 xmlns:xlink="http://www.w3.org/1999/xlink">
 <defs>
  <style type="text/css">
   <![CDATA[
    .fil0 {fill:#B0CB1F}
   ]]>
  </style>
 </defs>
 <g id="Layer_x0020_1">
  <metadata id="CorelCorpID_0Corel-Layer"/>
  <path class="fil0" d="M3.24 0.43l0 2.72 0 0.22c0,0.12 -0.1,0.21 -0.21,0.21l-0.06 0c0.03,-0.06 0.06,-0.13 0.06,-0.21l0 -0.22 0 -2.72 0 -0.21c0,-0.08 -0.03,-0.16 -0.06,-0.22l0.06 0c0.11,0 0.21,0.1 0.21,0.22l0 0.21zm-0.43 2.72l0 0.22c0,0.12 -0.1,0.21 -0.22,0.21l-0.21 0 -1.2 0 -0.75 0c-0.24,0 -0.43,-0.19 -0.43,-0.43l0 -2.72c0,-0.24 0.19,-0.43 0.43,-0.43l0.75 0 1.2 0 0.21 0c0.12,0 0.22,0.1 0.22,0.22l0 0.21 0 0 0 2.72zm-0.74 -1.07c0,0 -0.08,-0.1 -0.17,-0.03 -0.07,0.05 -0.19,0.16 -0.22,0.19 0,0 -0.2,-0.11 -0.32,-0.21 -0.17,-0.15 -0.29,-0.33 -0.35,-0.43l-0.05 -0.09c0.02,-0.01 0.14,-0.15 0.19,-0.22 0.07,-0.09 -0.03,-0.17 -0.03,-0.17 0,0 -0.27,-0.27 -0.33,-0.33 -0.07,-0.05 -0.14,-0.02 -0.14,-0.02 -0.13,0.08 -0.27,0.16 -0.27,0.51 -0.01,0.34 0.25,0.68 0.52,0.94 0.27,0.3 0.65,0.6 1.01,0.6 0.36,0 0.43,-0.14 0.52,-0.27 0,0 0.03,-0.07 -0.03,-0.14 -0.05,-0.06 -0.33,-0.33 -0.33,-0.33z"/>
 </g>
</svg>
