<?xml version="1.0" encoding="UTF-8"?>
<!DOCTYPE svg PUBLIC "-//W3C//DTD SVG 1.1//EN" "http://www.w3.org/Graphics/SVG/1.1/DTD/svg11.dtd">
<!-- Creator: CorelDRAW 2017 -->
<svg xmlns="http://www.w3.org/2000/svg" xml:space="preserve" width="38px" height="33px" version="1.1" style="shape-rendering:geometricPrecision; text-rendering:geometricPrecision; image-rendering:optimizeQuality; fill-rule:evenodd; clip-rule:evenodd"
viewBox="0 0 4.43 3.94"
 xmlns:xlink="http://www.w3.org/1999/xlink">
 <defs>
  <style type="text/css">
   <![CDATA[
    .fil0 {fill:#B0CB1F}
   ]]>
  </style>
 </defs>
 <g id="Layer_x0020_1">
  <metadata id="CorelCorpID_0Corel-Layer"/>
  <path class="fil0" d="M4.43 3.54l0 0c0,0.22 -0.18,0.4 -0.39,0.4l-3.64 0c-0.22,0 -0.4,-0.18 -0.4,-0.4l0 -2.09c0,-0.02 0,-0.04 0.01,-0.07l2.09 1.31c0,0 0,0 0.01,0 0,0 0,0.01 0,0.01 0.02,0 0.03,0.01 0.05,0.01 0,0 0,0 0,0.01 0.02,0 0.04,0 0.06,0l0 0c0,0 0,0 0,0 0.01,0 0.03,0 0.05,0 0,-0.01 0,-0.01 0,-0.01 0.02,0 0.03,-0.01 0.05,-0.01 0,0 0,-0.01 0.01,-0.01 0,0 0,0 0,0l2.1 -1.31c0,0.03 0,0.05 0,0.07l0 2.09zm-2.21 -3.54l2.18 1.36 -4.37 0 2.19 -1.36z"/>
 </g>
</svg>
