<?xml version="1.0" encoding="UTF-8"?>
<svg width="30px" height="31px" viewBox="0 0 30 31" version="1.1" xmlns="http://www.w3.org/2000/svg" xmlns:xlink="http://www.w3.org/1999/xlink">
    <!-- Generator: Sketch 52.5 (67469) - http://www.bohemiancoding.com/sketch -->
    <title>amazon</title>
    <desc>Created with Sketch.</desc>
    <g id="Page-1" stroke="none" stroke-width="1" fill="none" fill-rule="evenodd">
        <g id="amazon" transform="translate(0.000000, 1.000000)">
            <path d="M15.7143605,8.6649887 C14.9275129,8.60264978 13.2146424,8.58126606 10.5761114,9.12890623 C6.8162049,9.90959248 5.0808634,13.3806379 5.0808634,16.099992 C5.0808634,18.8182587 7.68351319,21.9710856 11.588394,21.9710856 C14.5763128,21.9710856 16.2609134,20.1748551 16.8857523,19.3314675 C17.0260149,19.1440882 17.3083521,19.1535116 17.435567,19.3506765 C17.590327,19.5920587 17.8110503,19.9120892 18.0955622,20.2640142 C18.4007329,20.6427593 18.8081105,21.0200547 19.1382893,21.303117 C19.4572326,21.5767558 19.9320232,21.5608087 20.2371939,21.2719475 L22.8253464,18.8059359 C23.1250805,18.5203366 23.1667606,18.057144 22.9210293,17.7240657 C22.7782297,17.5308876 22.5980992,17.2815319 22.3755638,16.9676627 C21.6811372,15.9840126 21.7104945,15.2033263 21.7104945,15.2033263 L21.7104945,6.06342625 C21.7104945,4.96452161 21.0450628,0.45292367 14.0457072,0.45292367 C8.32973582,0.45292367 6.58787054,4.52271263 6.14098741,6.01522225 C6.05545262,6.30082157 6.24138204,6.59475674 6.53531731,6.64404798 L10.0846489,7.24387887 C10.300298,7.28012242 10.5144974,7.17247908 10.6112677,6.97603896 C11.0005235,6.18810408 12.1320474,4.27009506 13.9010954,4.27009506 C16.1289868,4.27081989 16.2156088,6.09278351 16.2156088,6.09278351 L16.2156088,8.19889661 C16.2156088,8.47072324 15.9861872,8.68601001 15.7143605,8.6649887 Z M16.273961,12.0450628 L16.273961,14.7100515 C16.273961,16.1018041 15.3156814,17.3217623 13.9572729,17.6233087 C13.6060728,17.7019572 13.2044942,17.7483489 12.7445634,17.7483489 C9.79470043,17.7483489 10.3441527,13.9594475 11.7040109,12.8311856 C12.7344152,11.9758376 14.8274807,11.6858892 15.7806862,11.5963676 C16.0456266,11.5713595 16.273961,11.7793975 16.273961,12.0450628 Z" id="Shape" stroke="#B3B3B3" stroke-width="2" fill-rule="nonzero"></path>
            <path d="M24.5592381,23.1345039 C25.9912211,22.9612597 26.6204092,22.7811292 27.053882,23.164586 C27.4880799,23.547318 27.335857,24.3280042 27.053882,25.2174211 C26.772632,26.1061131 26.0760309,26.8480186 26.7501611,27.2133537 C27.538096,27.6399404 30.5713193,23.7169378 29.3104059,21.7684842 C28.2618799,20.1483972 23.865174,21.963837 23.5400693,22.180211 C23.2149645,22.3976724 23.2149645,22.6571762 23.2149645,22.6571762 C23.2149645,22.6571762 23.1283425,23.3084729 24.5592381,23.1345039 Z" id="Path" fill="#B3B3B3"></path>
            <path d="M13.7006685,29.5470763 C18.9918654,29.5470763 21.2193943,28.449259 23.5045506,27.1767477 C25.788982,25.903874 26.2231798,24.9499436 25.9049613,24.3530123 C25.5867429,23.7564433 24.2845119,24.3714964 23.1283425,24.8625966 C21.9710856,25.3544217 18.4145055,26.7142799 13.2951031,26.7142799 C8.17570073,26.7142799 3.02730353,23.0982603 1.92803638,22.332434 C0.829131742,21.5655203 0.43878866,22.332434 0.43878866,22.332434 C0.43878866,22.332434 0.10679768,22.9685083 1.1190802,24.2123872 C2.13027547,25.4562661 7.27069905,29.5470763 13.7006685,29.5470763 Z" id="Path" fill="#B3B3B3"></path>
        </g>
    </g>
</svg>