<?xml version="1.0" encoding="UTF-8"?>
<svg width="26px" height="18px" viewBox="0 0 26 18" version="1.1" xmlns="http://www.w3.org/2000/svg" xmlns:xlink="http://www.w3.org/1999/xlink">
    <!-- Generator: Sketch 52.5 (67469) - http://www.bohemiancoding.com/sketch -->
    <title>behance</title>
    <desc>Created with Sketch.</desc>
    <g id="Page-1" stroke="none" stroke-width="1" fill="none" fill-rule="evenodd">
        <g id="behance" fill="#B3B3B3">
            <path d="M11.828125,5.484375 C11.828125,2.89953609 9.72546391,0.796875 7.140625,0.796875 L0.109375,0.796875 L0.109375,17.203125 L7.140625,17.203125 C9.72546391,17.203125 11.828125,15.1004639 11.828125,12.515625 C11.828125,11.1166992 11.2113648,9.85968016 10.236023,9 C11.2113648,8.14031984 11.828125,6.88330078 11.828125,5.484375 Z M9.484375,12.515625 C9.484375,13.8080445 8.43304445,14.859375 7.140625,14.859375 L2.453125,14.859375 L2.453125,10.171875 L7.140625,10.171875 C8.43304445,10.171875 9.484375,11.2232055 9.484375,12.515625 Z M2.453125,7.828125 L2.453125,3.140625 L7.140625,3.140625 C8.43304445,3.140625 9.484375,4.19195555 9.484375,5.484375 C9.484375,6.77679445 8.43304445,7.828125 7.140625,7.828125 L2.453125,7.828125 Z" id="Shape" fill-rule="nonzero"></path>
            <path d="M20.03125,5.484375 C16.800354,5.484375 14.171875,8.11285398 14.171875,11.34375 C14.171875,14.574646 16.800354,17.203125 20.03125,17.203125 C22.1165161,17.203125 24.0610962,16.0809937 25.106018,14.274353 L23.0772095,13.100647 C22.449768,14.1855469 21.2824707,14.859375 20.03125,14.859375 C18.5032348,14.859375 17.2001343,13.8797608 16.7164306,12.515625 L25.890625,12.515625 L25.890625,11.34375 C25.890625,8.11285398 23.262146,5.484375 20.03125,5.484375 Z M16.7164306,10.171875 C17.2001343,8.80773922 18.5032348,7.828125 20.03125,7.828125 C21.5592652,7.828125 22.8623657,8.80773922 23.3460694,10.171875 L16.7164306,10.171875 Z" id="Shape" fill-rule="nonzero"></path>
            <polygon id="Path" points="15.34375 0.796875 24.71875 0.796875 24.71875 3.140625 15.34375 3.140625"></polygon>
        </g>
    </g>
</svg>