<?xml version="1.0" encoding="UTF-8"?>
<svg width="30px" height="30px" viewBox="0 0 30 30" version="1.1" xmlns="http://www.w3.org/2000/svg" xmlns:xlink="http://www.w3.org/1999/xlink">
    <!-- Generator: Sketch 52.5 (67469) - http://www.bohemiancoding.com/sketch -->
    <title>facebook</title>
    <desc>Created with Sketch.</desc>
    <g id="Page-1" stroke="none" stroke-width="1" fill="none" fill-rule="evenodd">
        <g id="facebook" fill="#B3B3B3" fill-rule="nonzero">
            <path d="M4.39453125,30 L14.1796875,30 L14.1796875,19.3359375 L10.6640625,19.3359375 L10.6640625,15.8203125 L14.1796875,15.8203125 L14.1796875,11.4257812 C14.1796875,9.00260924 16.1510467,7.03125 18.5742188,7.03125 L22.96875,7.03125 L22.96875,10.546875 L19.453125,10.546875 C18.4838104,10.546875 17.6953125,11.3353729 17.6953125,12.3046875 L17.6953125,15.8203125 L22.8101349,15.8203125 L22.2241974,19.3359375 L17.6953125,19.3359375 L17.6953125,30 L25.6054688,30 C28.0286408,30 30,28.0286408 30,25.6054688 L30,4.39453125 C30,1.97135924 28.0286408,0 25.6054688,0 L4.39453125,0 C1.97135924,0 0,1.97135924 0,4.39453125 L0,25.6054688 C0,28.0286408 1.97135924,30 4.39453125,30 Z M1.7578125,4.39453125 C1.7578125,2.94067383 2.94067383,1.7578125 4.39453125,1.7578125 L25.6054688,1.7578125 C27.0593262,1.7578125 28.2421875,2.94067383 28.2421875,4.39453125 L28.2421875,25.6054688 C28.2421875,27.0593262 27.0593262,28.2421875 25.6054688,28.2421875 L19.453125,28.2421875 L19.453125,21.09375 L23.7133026,21.09375 L24.8851776,14.0625 L19.453125,14.0625 L19.453125,12.3046875 L24.7265625,12.3046875 L24.7265625,5.2734375 L18.5742188,5.2734375 C15.1817321,5.2734375 12.421875,8.03329465 12.421875,11.4257812 L12.421875,14.0625 L8.90625,14.0625 L8.90625,21.09375 L12.421875,21.09375 L12.421875,28.2421875 L4.39453125,28.2421875 C2.94067383,28.2421875 1.7578125,27.0593262 1.7578125,25.6054688 L1.7578125,4.39453125 Z" id="Shape"></path>
        </g>
    </g>
</svg>