<?xml version="1.0" encoding="UTF-8"?>
<svg width="30px" height="29px" viewBox="0 0 30 29" version="1.1" xmlns="http://www.w3.org/2000/svg" xmlns:xlink="http://www.w3.org/1999/xlink">
    <!-- Generator: Sketch 52.5 (67469) - http://www.bohemiancoding.com/sketch -->
    <title>Path</title>
    <desc>Created with Sketch.</desc>
    <g id="Page-1" stroke="none" stroke-width="1" fill="none" fill-rule="evenodd">
        <g id="github-logo" fill="#B3B3B3">
            <path d="M27.9589066,7.40703263 C26.6189522,5.13597436 24.8013895,3.33797436 22.5057403,2.01262704 C20.2097494,0.687212121 17.7032118,0.0246736597 14.9843508,0.0246736597 C12.2658314,0.0246736597 9.7584738,0.687414918 7.46296128,2.01262704 C5.16710706,3.33790676 3.34961276,5.13597436 2.00965831,7.40703263 C0.669908884,9.67802331 0,12.1579627 0,14.8467832 C0,18.0766667 0.95261959,20.9810606 2.85833713,23.5607086 C4.76384966,26.1405594 7.22548975,27.9257156 10.2430524,28.91638 C10.5943052,28.9808695 10.854328,28.9355105 11.0233941,28.7814522 C11.1925285,28.6271911 11.2769932,28.433993 11.2769932,28.202669 C11.2769932,28.1640699 11.2736446,27.8168135 11.2671526,27.1604942 C11.2604556,26.5041748 11.2573121,25.9316107 11.2573121,25.4430723 L10.8085421,25.5198648 C10.5224146,25.5717133 10.1614579,25.593683 9.72567198,25.5874639 C9.29009112,25.5814476 8.83790433,25.5362914 8.36972665,25.4523333 C7.90134396,25.3691189 7.46569476,25.1761235 7.06243736,24.8737529 C6.65938497,24.5713823 6.3732574,24.1755897 6.20412301,23.6869837 L6.0090205,23.2428578 C5.87897494,22.9471795 5.6742369,22.6187156 5.39453303,22.258683 C5.11482916,21.8983124 4.83198178,21.6540093 4.54585421,21.5253683 L4.40924829,21.428634 C4.31822323,21.3643473 4.23375854,21.2868112 4.1556492,21.1968368 C4.0776082,21.1068625 4.01917995,21.0168205 3.98015945,20.9266434 C3.94107062,20.8363986 3.97346241,20.7623776 4.07767654,20.70431 C4.18189066,20.6462424 4.37022779,20.6180536 4.64350797,20.6180536 L5.03357631,20.6757156 C5.29373576,20.7272937 5.61553531,20.881352 5.99938497,21.1388368 C6.38302961,21.3961189 6.69840547,21.7305991 6.94558087,22.1421422 C7.24489749,22.6698205 7.60551253,23.0718998 8.02845103,23.3485828 C8.45104784,23.6252657 8.87712984,23.7633706 9.30628702,23.7633706 C9.73544419,23.7633706 10.1061048,23.7311935 10.4184055,23.6671772 C10.7303645,23.6028228 11.0230524,23.5060886 11.2963326,23.3775152 C11.4133941,22.5150862 11.7321185,21.8525478 12.2522323,21.3894266 C11.5109112,21.3123636 10.8444191,21.196296 10.2524146,21.0419674 C9.66075171,20.8874359 9.04933941,20.6366434 8.4185877,20.2889138 C7.78749431,19.9416573 7.26396355,19.5104429 6.84785877,18.996014 C6.43168565,18.4813147 6.09013667,17.8055944 5.82369021,16.9694615 C5.55710706,16.1329907 5.42378132,15.1680816 5.42378132,14.0744639 C5.42378132,12.5173193 5.93767654,11.1922424 6.96526196,10.0984895 C6.48389522,8.92780886 6.52933941,7.61544056 7.10173121,6.16151981 C7.47895216,6.04558741 8.03835991,6.13258741 8.77968109,6.42197902 C9.52113895,6.71150583 10.0640091,6.95952681 10.4088383,7.16516317 C10.7536674,7.37073193 11.0299544,7.54493473 11.2381093,7.68621678 C12.4480182,7.3518042 13.6966059,7.1845641 14.9842141,7.1845641 C16.2718223,7.1845641 17.5206834,7.3518042 18.7306606,7.68621678 L19.4720501,7.22323077 C19.9790433,6.91430303 20.5777449,6.63119814 21.2667198,6.37384848 C21.9561048,6.11663403 22.4832574,6.04579021 22.847631,6.16172261 C23.4327335,7.61571096 23.4848747,8.92801166 23.0033713,10.0986923 C24.0308884,11.1924452 24.5449886,12.5178601 24.5449886,14.0746667 C24.5449886,15.1682844 24.4111845,16.1362354 24.1450114,16.9791282 C23.8784966,17.8221562 23.5340091,18.4972005 23.1114123,19.0056807 C22.6883371,19.5140932 22.1614579,19.9419277 21.5307062,20.2891166 C20.8998178,20.6365758 20.2882005,20.8873683 19.6965376,21.0418998 C19.1046014,21.1964312 18.4381093,21.3125664 17.6967882,21.3897646 C18.3729157,21.9685478 18.7110478,22.8821492 18.7110478,24.1301632 L18.7110478,28.2021282 C18.7110478,28.4334522 18.792369,28.6265828 18.9551481,28.7809114 C19.1177221,28.9349697 19.3744647,28.9803287 19.7257175,28.9157716 C22.7436902,27.9252424 25.2053303,26.1400186 27.1107745,23.5601678 C29.0160137,20.9805198 29.9689749,18.0761259 29.9689749,14.8462424 C29.9682916,12.1577599 29.298041,9.67802331 27.9589066,7.40703263 Z" id="Path"></path>
        </g>
    </g>
</svg>