<?xml version="1.0" encoding="UTF-8"?>
<svg width="50px" height="43px" viewBox="0 0 50 43" version="1.1" xmlns="http://www.w3.org/2000/svg" xmlns:xlink="http://www.w3.org/1999/xlink">
    <!-- Generator: Sketch 52.5 (67469) - http://www.bohemiancoding.com/sketch -->
    <title>icon_1.1</title>
    <desc>Created with Sketch.</desc>
    <g id="Page-1" stroke="none" stroke-width="1" fill="none" fill-rule="evenodd">
        <g id="icon_1.1" fill="#A9A9A9" fill-rule="nonzero">
            <path d="M3.38252258,33.7775341 L3.38252258,41.8471591 C3.38252258,42.3382727 3.7823929,42.7472614 4.28476778,42.7472614 L10.5379564,42.7472614 C11.0298758,42.7472614 11.4398941,42.3483977 11.4398941,41.8471591 L11.4398941,27.6509886 L6.89863424,32.181875 C5.93519382,33.1331136 4.70524152,33.6853864 3.38252258,33.7775341 Z M14.5562379,27.5489205 L14.5562379,41.8471591 C14.5562379,42.3382727 14.9560057,42.7472614 15.4583806,42.7472614 L21.7113642,42.7472614 C22.2035912,42.7472614 22.6135069,42.3483977 22.6135069,41.8471591 L22.6135069,33.4297045 C21.1885909,33.3989205 19.8561341,32.8365227 18.8512818,31.8343523 L14.5562379,27.5489205 Z M25.7298508,32.5399318 L25.7298508,41.8471591 C25.7298508,42.3382727 26.1296186,42.7472614 26.6317885,42.7472614 L32.8849771,42.7472614 C33.3768965,42.7472614 33.7869147,42.3483977 33.7869147,41.8471591 L33.7869147,24.67475 L26.621538,31.8239205 C26.3449807,32.1001591 26.0474099,32.3352841 25.7298508,32.5399318 Z M44.3558531,14.1195909 L36.9034636,21.5553295 L36.9034636,41.8471591 C36.9034636,42.3382727 37.3030264,42.7472614 37.8054013,42.7472614 L44.0585899,42.7472614 C44.5505093,42.7472614 44.9605276,42.3483977 44.9605276,41.8471591 L44.9605276,14.6822955 C44.7557235,14.5083295 44.6016591,14.3549205 44.4890066,14.2526477 L44.3558531,14.1195909 Z M49.4709335,0.946147727 C49.1737728,0.629 48.7227527,0.465465909 48.1486246,0.465465909 C48.0974749,0.465465909 48.0358696,0.465465909 47.9847198,0.465465909 C45.0732826,0.598625 42.1723009,0.741806818 39.2611712,0.874556818 C38.8714488,0.895113636 38.33863,0.915465909 37.9181563,1.33498864 C37.7851054,1.46773864 37.6824983,1.62135227 37.6002897,1.80544318 C37.1699755,2.73602273 37.7746499,3.33963636 38.0616627,3.62579545 L38.7895476,4.36246591 C39.2919225,4.87382955 39.8044454,5.38519318 40.3170707,5.88622727 L22.7262619,23.4472727 L14.8226473,15.5618409 C14.3510238,15.0912841 13.715598,14.8251705 13.0391703,14.8251705 C12.3624352,14.8251705 11.7371573,15.0912841 11.2655338,15.5618409 L0.738109761,26.0553295 C-0.246036587,27.03725 -0.246036587,28.6226818 0.738109761,29.6046023 L1.20942576,30.0748523 C1.68104927,30.5454091 2.31647509,30.8115227 2.99321024,30.8115227 C3.66994539,30.8115227 4.29522325,30.5454091 4.76684676,30.0748523 L13.0391703,21.8212386 L20.942785,29.7069773 C21.414101,30.1775341 22.0498343,30.4433409 22.7262619,30.4433409 C23.4029971,30.4433409 24.028275,30.1775341 24.5100464,29.7069773 L44.3558531,9.90575 L46.6008057,12.1353977 C46.8675226,12.4016136 47.236539,12.7697955 47.8002116,12.7697955 C48.0361771,12.7697955 48.2718351,12.7083295 48.5179486,12.5751705 C48.6817509,12.4833295 48.8253598,12.3809545 48.9485703,12.2583295 C49.3893399,11.8185568 49.4712411,11.2558523 49.4918445,10.8160795 C49.5738481,8.93426136 49.6658972,7.05223864 49.7583564,5.16029545 L49.8914073,2.32703409 C49.9219536,1.73385227 49.7888002,1.27352273 49.4709335,0.946147727 Z" id="Combined-Shape"></path>
        </g>
    </g>
</svg>