<?xml version="1.0" encoding="UTF-8"?>
<svg width="49px" height="48px" viewBox="0 0 49 48" version="1.1" xmlns="http://www.w3.org/2000/svg" xmlns:xlink="http://www.w3.org/1999/xlink">
    <!-- Generator: Sketch 52.5 (67469) - http://www.bohemiancoding.com/sketch -->
    <title>icon_0.3</title>
    <desc>Created with Sketch.</desc>
    <g id="Page-1" stroke="none" stroke-width="1" fill="none" fill-rule="evenodd">
        <g id="icon_0.3" fill="#A9A9A9" fill-rule="nonzero">
            <path d="M0,35.1672063 L22.4083697,47.9958237 L22.4083697,29.199908 L0,16.3665177 L0,35.1672063 Z M41.9324581,10.0126158 L41.9324581,11.9879932 C41.9324581,13.4508822 39.1080278,14.6363473 35.6201226,14.6363473 C32.1358266,14.6363473 29.3095918,13.4508822 29.3095918,11.9879932 L29.3095918,8.72065577 L29.3291411,8.72065577 C29.5414772,10.1006159 32.271469,11.1939046 35.6192204,11.1939046 C39.1080278,11.1939046 41.9324581,10.0075446 41.9324581,8.54972686 C41.9324581,7.08534638 39.1080278,5.90226774 35.6192204,5.90226774 C35.3431234,5.90226774 35.0685301,5.91062029 34.8008544,5.92583386 L30.7394013,3.60054441 L30.7394013,6.08483056 C30.7394013,7.54771952 27.9173771,8.7331846 24.4312765,8.7331846 C22.2411476,8.7331846 20.3117769,8.26484535 19.1779144,7.55279071 C19.0176098,7.38872282 18.8191086,7.22972612 18.5803058,7.0808718 C18.2837572,6.77391569 18.1192418,6.4392172 18.1192418,6.08483056 L18.1192418,3.68078852 L14.1931304,5.9285186 C13.9092137,5.91479656 13.6243946,5.90226774 13.3320566,5.90226774 C9.84776057,5.90226774 7.02152577,7.08534638 7.02152577,8.54972686 C7.02152577,10.0075446 9.84776057,11.1939046 13.3320566,11.1939046 C16.6801088,11.1939046 19.4125067,10.1006159 19.6248427,8.72065577 L19.6425875,8.72065577 L19.6425875,11.9879932 C19.6425875,13.4508822 16.8205633,14.6363473 13.3320566,14.6363473 C9.84776057,14.6363473 7.02152577,13.4508822 7.02152577,11.9879932 L7.02152577,10.0388667 L2.16125607,12.8181767 L24.6454171,25.6891535 L46.9822061,12.9020005 L41.9324581,10.0126158 Z M30.7905304,18.198112 C30.7905304,19.6607026 27.9642956,20.8437813 24.4799995,20.8437813 C20.9938989,20.8437813 18.1676641,19.6607026 18.1676641,18.198112 L18.1676641,14.9298796 L18.1872134,14.9298796 C18.3995495,16.3107346 21.1304436,17.4055149 24.4799995,17.4055149 C27.8280516,17.4055149 30.558645,16.3107346 30.7724848,14.9298796 L30.7905304,14.9298796 L30.7905304,18.198112 Z M26.5883219,29.3666607 L26.5883219,48 L49,35.1672063 L49,16.5347619 L26.5883219,29.3666607 Z M24.4312765,5.29163689 C27.9173771,5.29163689 30.738499,4.10796164 30.738499,2.6459676 C30.738499,1.18457016 27.9173771,0 24.4312765,0 C20.9445744,0 18.1183396,1.18457016 18.1183396,2.6459676 C18.1192418,4.10796164 20.9445744,5.29163689 24.4312765,5.29163689 Z" id="Fill-7"></path>
        </g>
    </g>
</svg>