<?xml version="1.0" encoding="UTF-8"?>
<svg width="56px" height="49px" viewBox="0 0 56 49" version="1.1" xmlns="http://www.w3.org/2000/svg" xmlns:xlink="http://www.w3.org/1999/xlink">
    <!-- Generator: Sketch 52.5 (67469) - http://www.bohemiancoding.com/sketch -->
    <title>icon_0.7</title>
    <desc>Created with Sketch.</desc>
    <g id="Page-1" stroke="none" stroke-width="1" fill="none" fill-rule="evenodd">
        <g id="icon_0.7" fill="#A9A9A9" fill-rule="nonzero">
            <path d="M55.6680421,7.55149605 C55.7791692,7.88049713 55.7569128,8.23551008 55.6015438,8.54589215 L50.9866125,17.7463834 C50.7676096,18.1830305 50.3300682,18.445144 49.8662836,18.445144 C49.7464475,18.445144 49.6249856,18.4276202 49.505072,18.3912427 L44.3776243,16.8565824 L44.3776243,47.727101 C44.3776243,48.4278565 43.813357,48.9998827 43.1196929,48.9998827 L12.6180966,49 C11.9225746,49 11.3565267,48.4282086 11.3565267,47.7272184 L11.3565267,16.856465 L6.23271749,18.3911254 C6.1128039,18.4275029 5.9911098,18.4450267 5.87119622,18.4450267 C5.40652139,18.4450267 4.9671995,18.1829132 4.75125441,17.7462661 L0.137987503,8.5457748 C-0.0212134604,8.23543184 -0.0416119305,7.88037979 0.0713731439,7.55141782 C0.180564954,7.22621095 0.42085661,6.95873866 0.733529933,6.81318961 L11.3564106,1.85587747 C13.6203699,1.08205409 15.9233068,0.470795036 18.248384,0.024056077 C18.3302102,0.007744883 18.4117266,0 18.4920432,0 C19.0673033,0 19.5817937,0.401482241 19.7115775,0.99048454 C20.5604945,4.7683448 23.8697689,7.59640073 27.8686045,7.59640073 C31.8677884,7.59640073 35.1768305,4.76811011 36.0259797,0.99048454 C36.1542153,0.401599587 36.6697121,0 37.2452818,0 C37.3255984,0 37.4071149,0.00786223 37.4889797,0.024056077 C39.8142892,0.470795036 42.1170713,1.08205409 44.3775082,1.85587747 L55.0040273,6.81326784 C55.3147266,6.95897335 55.5533926,7.22628918 55.6680421,7.55149605 Z M27.8687206,4.73740439 C25.4542307,4.73740439 23.3690968,3.18154336 22.6203916,0.89324322 C24.0493683,1.29085302 25.871064,1.53078795 27.8687206,1.53078795 C29.8666094,1.53078795 31.6884212,1.29085302 33.1176301,0.89324322 C32.3684605,3.18177805 30.2830169,4.73740439 27.8687206,4.73740439 Z M20.256685,21.6291125 C20.7680789,21.6291125 21.1825124,22.0480403 21.1825124,22.5647179 C21.1825124,23.0811999 20.7680789,23.5000886 20.256685,23.5000886 C19.7457169,23.5000886 19.3310899,23.0811999 19.3310899,22.5647179 C19.3310899,22.0480403 19.7457169,21.6291125 20.256685,21.6291125 Z M41.5134004,18.7325261 C41.0004583,19.0777993 40.4030192,19.2604299 39.7871557,19.2604299 C39.208412,19.2604299 38.6647367,19.4885128 38.2554899,19.9015341 L37.0182666,21.1517852 L36.5702744,19.3388175 C36.4498189,18.8526109 36.1654403,18.4189757 35.7685797,18.1181378 L35.2855966,17.7521334 C34.8373721,17.4126102 34.4925335,16.9635634 34.2791043,16.4444216 L34.225689,16.5161595 C33.750602,17.1557383 33.4895635,17.947281 33.4895635,18.7460601 C33.4895635,19.5866147 33.7753743,20.4103495 34.2953612,21.0666306 L35.5427644,22.6429882 L35.2434449,22.9455862 C34.5539611,23.6415696 33.5994134,24.041409 32.6246607,24.041409 C31.5398646,24.041409 30.4986137,23.6373452 29.6925064,22.9040064 L28.3862689,21.7168488 C27.0510787,20.5025058 25.343839,19.8150496 23.5541926,19.7508218 L22.6083151,19.7693626 C21.0058547,19.9139338 19.4840204,20.5664598 18.2642925,21.6457758 L18.1304058,21.763631 C17.1794578,22.6041855 16.0899395,23.2353153 14.891152,23.6389098 C14.4904594,23.7737412 14.2024423,24.113147 14.1194937,24.5195187 L15.434479,24.5195187 C17.4154917,24.5195187 19.398672,24.9921913 21.1702036,25.8871947 C21.4888378,26.0484291 21.8168003,26.1942128 22.1487883,26.3309609 C22.1433306,26.2052043 22.13497,26.0804647 22.13497,25.953965 C22.13497,25.4262959 22.5594672,24.997511 23.081428,24.997511 L27.3392119,24.997511 C27.8609405,24.997511 28.2854377,25.4262959 28.2854377,25.953965 L28.2854377,26.1244697 C28.2854377,26.5356135 28.3107906,26.9454274 28.348762,27.353129 C30.362211,27.2227568 32.3507715,26.6547205 34.1265996,25.6884093 L37.1069438,24.0656998 L37.9125866,22.6691565 L38.5574415,22.5067486 C39.3868116,22.2968545 40.1380713,21.8095135 40.6716055,21.1350437 C41.2138487,20.4502474 41.5181227,19.5945942 41.5318249,18.7187965 L41.5134004,18.7325261 Z M29.0192407,21.0060014 L30.3250138,22.1930417 C30.3364323,22.2025859 30.3477346,22.2111131 30.3586113,22.22054 C29.9313659,20.793643 29.7047764,19.3192988 29.7047764,17.8263356 L29.5422854,17.8263356 C28.1591375,17.8263356 26.8482165,18.2990082 25.7874573,19.1654182 C26.9745167,19.5314226 28.0795951,20.1516782 29.0192407,21.0060014 Z M28.4708819,28.3032463 C28.5655586,28.8782843 28.6974326,29.445421 28.8658458,30.0027006 C29.2829113,29.9224354 29.6985446,29.8297315 30.1025272,29.7126195 C32.4338363,29.0394796 34.4549879,27.6623767 35.9505789,25.7827561 L34.5748241,26.5314282 C32.6979326,27.5526184 30.5977804,28.1567976 28.4708819,28.3032463 Z M20.7466741,26.7426523 C19.106281,25.9135977 17.2692188,25.475738 15.434479,25.475738 L14.3353227,25.475738 C14.4736607,25.6582512 14.6639432,25.8016098 14.8913842,25.8786675 L15.6708225,26.140468 C16.3457138,26.3681989 16.9688155,26.7111642 17.524219,27.1605239 C19.1502519,28.4744551 21.052148,29.4023939 23.0730674,29.8815205 C22.6834837,29.1055849 22.407427,28.2701936 22.260496,27.399168 C21.7452702,27.2063283 21.2356955,26.9903321 20.7466741,26.7426523 Z M27.3392119,26.1243915 L27.3392119,25.953965 L23.081428,25.953965 L23.0803442,25.953965 C23.081428,28.9628913 24.8281486,31.7215171 27.5313523,32.9823293 L28.8071663,33.577551 C28.8441313,33.5941751 28.8828768,33.6032499 28.922706,33.6032499 C29.108576,33.6032499 29.2316635,33.4791753 29.2316635,33.3258423 C29.2316635,33.2771825 29.2192773,33.2304785 29.1960146,33.1893681 C27.9805444,31.0412973 27.3392119,28.5981777 27.3392119,26.1243915 Z" id="Fill-2"></path>
        </g>
    </g>
</svg>