<?xml version="1.0" encoding="UTF-8"?>
<svg width="49px" height="49px" viewBox="0 0 49 49" version="1.1" xmlns="http://www.w3.org/2000/svg" xmlns:xlink="http://www.w3.org/1999/xlink">
    <!-- Generator: Sketch 52.5 (67469) - http://www.bohemiancoding.com/sketch -->
    <title>icon_0.9</title>
    <desc>Created with Sketch.</desc>
    <g id="Page-1" stroke="none" stroke-width="1" fill="none" fill-rule="evenodd">
        <g id="icon_0.9" fill="#A9A9A9" fill-rule="nonzero">
            <path d="M27.4386649,14.305136 L29.8593609,14.305136 L29.8593609,16.7303725 L27.4386649,16.7303725 L27.4386649,14.305136 Z M10.6591817,14.305136 L13.0807799,14.305136 L13.0807799,16.7303725 L10.6591817,16.7303725 L10.6591817,14.305136 Z M19.0143419,22.7593328 L21.4353387,22.7593328 L21.4353387,25.1854713 L19.0143419,25.1854713 L19.0143419,22.7593328 Z M35.6906824,22.7593328 L38.1122805,22.7593328 L38.1122805,25.1854713 L35.6906824,25.1854713 L35.6906824,22.7593328 Z M14.1582151,42.3819463 C13.1003259,44.047586 13.2981915,46.2860808 14.7491055,47.7385162 C15.563121,48.5525416 16.6447662,49 17.7955741,49 C18.9469834,49 20.0286286,48.5516395 20.8420426,47.7385162 L24.5013532,44.0764543 L28.1606638,47.7385162 C28.9755813,48.5525416 30.0572265,49 31.2080344,49 C32.3588423,49 33.4404875,48.5516395 34.2545029,47.7385162 C35.7051163,46.2860808 35.9020798,44.047586 34.8450926,42.3819463 L14.1582151,42.3819463 Z M46.1258369,31.1930812 L46.1532013,8.31707242 C47.8101001,7.72647548 49,6.14082493 49,4.28272997 C49,1.92064291 47.0787792,0 44.7176233,0 L4.31214675,0 C1.95008868,0 0.028867928,1.92064291 0.028867928,4.28272997 C0.028867928,6.1399228 1.2172643,7.72467121 2.87326096,8.31707242 L2.84619728,31.1921791 C1.18989991,31.7839788 0,33.3693287 0,35.2277244 C0,37.5895107 1.92122075,39.5110557 4.28237669,39.5110557 L44.6878533,39.5110557 C47.0499113,39.5110557 48.9702299,37.5895107 48.9702299,35.2277244 C48.9702299,33.3702308 47.7827357,31.7854824 46.1258369,31.1930812 Z M40.9834365,25.4591186 C40.9834365,26.8911057 39.8181946,28.0563619 38.3859244,28.0563619 L35.4170385,28.0563619 C33.9841668,28.0563619 32.8198271,26.8911057 32.8198271,25.4591186 L32.8198271,22.4856855 C32.8198271,22.286314 32.8429815,22.0911523 32.8853813,21.9044106 L30.5515898,19.567884 C30.4153692,19.5892345 30.2764423,19.6021651 30.1339069,19.6021651 L27.165021,19.6021651 C27.035416,19.6021651 26.9076153,19.5919409 26.7840244,19.5738983 L24.2755218,22.0833338 C24.2959699,22.2147447 24.306194,22.3485612 24.306194,22.4856855 L24.306194,25.4591186 C24.306194,26.8911057 23.1418542,28.0563619 21.7089826,28.0563619 L18.7397959,28.0563619 C17.3069243,28.0563619 16.1434866,26.8911057 16.1434866,25.4591186 L16.1434866,22.4856855 C16.1434866,22.3196929 16.1588227,22.1558053 16.1885927,21.9982326 L13.7609804,19.5696883 C13.6289698,19.5901367 13.4924486,19.601263 13.3544238,19.601263 L10.3855378,19.601263 C8.95356829,19.601263 7.78832641,18.4360068 7.78832641,17.0040197 L7.78832641,14.0308873 C7.78832641,12.5995017 8.95356829,11.4333434 10.3855378,11.4333434 L13.3544238,11.4333434 C14.7863933,11.4333434 15.9516352,12.5995017 15.9516352,14.0308873 L15.9516352,17.0040197 C15.9516352,17.2178254 15.926075,17.4259176 15.8776611,17.6243871 L18.1970187,19.9455774 C18.3726319,19.9088906 18.5539586,19.8884423 18.7397959,19.8884423 L21.7089826,19.8884423 C21.925492,19.8884423 22.133281,19.9149048 22.3335522,19.9645222 L24.6477978,17.648444 C24.5957754,17.4430582 24.5678096,17.2271475 24.5678096,17.0040197 L24.5678096,14.0308873 C24.5678096,12.5995017 25.7321493,11.4333434 27.165021,11.4333434 L30.1339069,11.4333434 C31.5667786,11.4333434 32.7302162,12.5995017 32.7302162,14.0308873 L32.7302162,17.0040197 C32.7302162,17.2145176 32.7055582,17.4199034 32.6586478,17.6141629 L34.9695856,19.9278354 C35.1154288,19.902275 35.2654818,19.8884423 35.4170385,19.8884423 L38.3859244,19.8884423 C39.8181946,19.8884423 40.9834365,21.0546006 40.9834365,22.4856855 L40.9834365,25.4591186 Z" id="Fill-2"></path>
        </g>
    </g>
</svg>