<?xml version="1.0" encoding="UTF-8"?>
<svg width="39px" height="49px" viewBox="0 0 39 49" version="1.1" xmlns="http://www.w3.org/2000/svg" xmlns:xlink="http://www.w3.org/1999/xlink">
    <!-- Generator: Sketch 52.5 (67469) - http://www.bohemiancoding.com/sketch -->
    <title>icon_0.5</title>
    <desc>Created with Sketch.</desc>
    <g id="Page-1" stroke="none" stroke-width="1" fill="none" fill-rule="evenodd">
        <g id="icon_0.5" fill="#A9A9A9" fill-rule="nonzero">
            <path d="M13.0002668,41.8224904 L26.0005336,41.8224904 L26.0005336,38.7595595 L13.0002668,38.7595595 L13.0002668,41.8224904 Z M28.8887407,41.8224904 L31.7780149,41.8224904 L31.7780149,38.7595595 L28.8887407,38.7595595 L28.8887407,41.8224904 Z M7.22278549,41.8224904 L10.1112593,41.8224904 L10.1112593,38.7595595 L7.22278549,38.7595595 L7.22278549,41.8224904 Z M34.6670224,18.6618432 L34.6670224,33.0176579 L4.33377801,33.0176579 L4.33377801,18.6618432 C1.95064034,18.6618432 0,20.5996753 0,22.9689323 L0,49 L39,49 L39,22.9689323 C39,20.5996753 37.0501601,18.6618432 34.6670224,18.6618432 Z M34.6670224,44.693176 L4.33377801,44.693176 L4.33377801,35.8888739 L34.6670224,35.8888739 L34.6670224,44.693176 Z M7.22278549,0 L7.22278549,24.4045403 L31.7780149,24.4045403 L31.7780149,8.61311759 L23.1112593,8.61311759 L23.1112593,0 L7.22278549,0 Z M29.7350587,5.74163645 L26.0005336,2.03010985 L26.0005336,5.74163645 L29.7350587,5.74163645 Z M7.22278549,30.1464419 L31.7780149,30.1464419 L31.7780149,27.2749608 L7.22278549,27.2749608 L7.22278549,30.1464419 Z" id="Fill-4"></path>
        </g>
    </g>
</svg>