<?xml version="1.0" encoding="UTF-8"?>
<svg width="52px" height="49px" viewBox="0 0 52 49" version="1.1" xmlns="http://www.w3.org/2000/svg" xmlns:xlink="http://www.w3.org/1999/xlink">
    <!-- Generator: Sketch 52.5 (67469) - http://www.bohemiancoding.com/sketch -->
    <title>icon_0.6</title>
    <desc>Created with Sketch.</desc>
    <g id="Page-1" stroke="none" stroke-width="1" fill="none" fill-rule="evenodd">
        <g id="icon_0.6" fill="#A9A9A9" fill-rule="nonzero">
            <path d="M13.0002394,39.1994867 L13.0002394,49 L39.0007181,49 L39.0007181,39.1994867 L39.0007181,32.666132 L13.0002394,32.666132 L13.0002394,39.1994867 Z M16.2500598,35.9329697 L35.7499402,35.9329697 L35.7499402,39.1994867 L16.2500598,39.1994867 L16.2500598,35.9329697 Z M16.2500598,42.4660037 L35.7499402,42.4660037 L35.7499402,45.7325206 L16.2500598,45.7325206 L16.2500598,42.4660037 Z M39.0007181,9.79955086 L39.0007181,0 L13.0002394,0 L13.0002394,9.79955086 L13.0002394,16.3325848 L39.0007181,16.3325848 L39.0007181,9.79955086 Z M45.5003591,9.79955086 L42.2505386,9.79955086 L42.2505386,16.3325848 L42.2505386,19.5991017 L9.75041891,19.5991017 L9.75041891,16.3325848 L9.75041891,9.79955086 L6.50059845,9.79955086 C3.25077798,9.79955086 0,13.0660678 0,16.3325848 L0,32.666132 C0,35.9329697 3.24982047,39.1994867 6.50059845,39.1994867 L9.75041891,39.1994867 L9.75041891,32.666132 L9.75041891,29.399615 L42.2505386,29.399615 L42.2505386,32.666132 L42.2505386,39.1994867 L45.5003591,39.1994867 C48.7501795,39.1994867 52,35.9329697 52,32.666132 L52,16.3325848 C52,13.0660678 48.7501795,9.79955086 45.5003591,9.79955086 Z" id="Fill-5"></path>
        </g>
    </g>
</svg>