<?xml version="1.0" encoding="UTF-8"?>
<svg width="49px" height="49px" viewBox="0 0 49 49" version="1.1" xmlns="http://www.w3.org/2000/svg" xmlns:xlink="http://www.w3.org/1999/xlink">
    <!-- Generator: Sketch 52.5 (67469) - http://www.bohemiancoding.com/sketch -->
    <title>icon_0.2</title>
    <desc>Created with Sketch.</desc>
    <g id="Page-1" stroke="none" stroke-width="1" fill="none" fill-rule="evenodd">
        <g id="icon_0.2" fill="#A9A9A9" fill-rule="nonzero">
            <path d="M43.4831728,17.8837477 C43.4952032,17.6992622 43.5012184,17.5129856 43.5012184,17.3285001 C43.5012184,15.1952749 42.7030033,13.1450382 41.2530429,11.5557167 C40.0439906,10.2305855 38.4701174,9.31771078 36.7437592,8.92754488 C35.989455,6.5402789 34.5211483,4.39600836 32.5442576,2.81444838 C30.2756305,0.999445605 27.4187183,0 24.4995489,0 C21.5803794,0 18.7234672,0.999445605 16.4548401,2.81444838 C14.4761449,4.39600836 13.0099435,6.5402789 12.2553385,8.92754488 C10.5289803,9.31771078 8.9542048,10.2305855 7.74605484,11.5557167 C6.29609443,13.1450382 5.4981801,15.1952749 5.4981801,17.3285001 C5.4981801,17.5129856 5.50389453,17.6992622 5.51502262,17.8837477 C2.25238613,19.1646979 0,22.3499083 0,25.9031942 C0,30.6544416 3.89362943,34.5199795 8.68051387,34.5199795 L16.7029665,34.5199795 L18.6723381,22.3845367 L16.7005604,20.4265427 C16.135133,19.8653247 16.135133,18.9557337 16.7005604,18.3957098 C17.2647848,17.8353874 18.181499,17.8353874 18.7466257,18.3957098 L19.2401716,18.886477 L20.1174864,13.4841571 C20.2810994,12.4763529 20.8020145,11.5557167 21.5839886,10.8924048 C22.3665642,10.2305855 23.3632804,9.86340569 24.3921778,9.86071901 L24.3963884,9.86071901 L24.3990953,9.86071901 L24.4024036,9.86071901 C26.5338845,9.86071901 28.3351318,11.3754105 28.684614,13.4632607 L30.1553268,22.2406499 L33.5400716,18.8822978 C34.1051982,18.3210798 35.0207094,18.3210798 35.5852346,18.8822978 C36.1512635,19.4423216 36.1512635,20.3519127 35.5852346,20.9122351 L30.7394013,25.7237835 L32.2125202,34.5199795 L40.3176816,34.5199795 C45.1048668,34.5199795 49,30.6544416 49,25.9031942 C48.9990977,22.3499083 46.7458093,19.1646979 43.4831728,17.8837477 Z M25.8295063,13.9337285 C25.713714,13.2405646 25.1100902,12.7336773 24.4024036,12.7336773 C24.4015013,12.7336773 24.3996968,12.7336773 24.3990953,12.7336773 C23.6896042,12.7345729 23.0868826,13.246535 22.9743986,13.940296 L17.5529121,47.336347 C17.4855421,47.7509915 17.6049435,48.1751887 17.880439,48.4957994 C18.1550322,48.8155145 18.5574481,49 18.9818194,49 L29.997729,49 C30.4221003,49 30.8254185,48.8149175 31.1009139,48.4925157 C31.3755071,48.1707109 31.4946078,47.7453196 31.4248317,47.328884 L25.8295063,13.9337285 Z" id="Fill-9"></path>
        </g>
    </g>
</svg>