<?xml version="1.0" encoding="UTF-8"?>
<svg width="45px" height="45px" viewBox="0 0 45 45" version="1.1" xmlns="http://www.w3.org/2000/svg" xmlns:xlink="http://www.w3.org/1999/xlink">
    <!-- Generator: Sketch 52.5 (67469) - http://www.bohemiancoding.com/sketch -->
    <title>icon_1.3</title>
    <desc>Created with Sketch.</desc>
    <g id="Page-1" stroke="none" stroke-width="1" fill="none" fill-rule="evenodd">
        <g id="icon_1.3" fill="#A9A9A9" fill-rule="nonzero">
            <path d="M39.6721845,0 L39.6721845,1.45148467 L43.2785463,1.45148467 L43.2785463,5.08061236 L44.7213115,5.08061236 L44.7213115,0 L39.6721845,0 Z M43.2785463,43.5485153 L39.6721845,43.5485153 L39.6721845,45 L44.7213115,45 L44.7213115,39.9193876 L43.2785463,39.9193876 L43.2785463,43.5485153 Z M1.4427652,39.9193876 L0,39.9193876 L0,45 L5.0494026,45 L5.0494026,43.5485153 L1.4427652,43.5485153 L1.4427652,39.9193876 Z M1.4427652,1.45148467 L5.0494026,1.45148467 L5.0494026,0 L0,0 L0,5.08061236 L1.4427652,5.08061236 L1.4427652,1.45148467 Z M23.0820383,27.5804275 L24.5245279,27.5804275 L24.5245279,37.016141 L23.0820383,37.016141 L23.0820383,27.5804275 Z M20.1967835,34.1128943 L21.6392731,34.1128943 L21.6392731,35.564379 L20.1967835,35.564379 L20.1967835,34.1128943 Z M17.3115288,34.1128943 L18.7540183,34.1128943 L18.7540183,35.564379 L17.3115288,35.564379 L17.3115288,34.1128943 Z M11.5410192,27.5804275 L12.9837844,27.5804275 L12.9837844,37.016141 L11.5410192,37.016141 L11.5410192,27.5804275 Z M8.65576438,34.1128943 L10.0985296,34.1128943 L10.0985296,35.564379 L8.65576438,35.564379 L8.65576438,34.1128943 Z M2.88525479,27.5804275 L4.32802,27.5804275 L4.32802,37.016141 L2.88525479,37.016141 L2.88525479,27.5804275 Z M5.77050959,34.1128943 L7.21327479,34.1128943 L7.21327479,35.564379 L5.77050959,35.564379 L5.77050959,34.1128943 Z M31.7378027,27.5804275 L33.1802923,27.5804275 L33.1802923,37.016141 L31.7378027,37.016141 L31.7378027,27.5804275 Z M37.5080367,27.5804275 L38.9508019,27.5804275 L38.9508019,37.016141 L37.5080367,37.016141 L37.5080367,27.5804275 Z M25.2459105,14.5159561 C26.0011941,14.5159561 26.6954743,14.1116 27.0858404,13.4688274 C26.5743864,12.0933328 25.4889132,11.0019229 24.1219428,10.4864475 C23.4838885,10.8789705 23.0820383,11.5789668 23.0820383,12.3385904 C23.0820383,13.5390859 24.0529466,14.5159561 25.2459105,14.5159561 Z M4.58480354,15.2418371 L4.76156616,15.4357874 C7.87944204,18.8592242 11.9097952,21.2714011 16.3059846,22.434826 C14.2770731,20.702215 12.9837844,18.1228044 12.9837844,15.2418371 C12.9837844,12.3608697 14.2770731,9.78182894 16.3059846,8.04912547 C11.9097952,9.21236549 7.88017702,11.6245424 4.76156616,15.0479791 L4.58480354,15.2418371 Z M27.4090477,15.225844 C26.7951559,15.6926007 26.0428123,15.9677181 25.2459105,15.9677181 C23.257331,15.9677181 21.6392731,14.3396628 21.6392731,12.3385904 C21.6392731,11.5367193 21.9126856,10.7796842 22.3765497,10.1620567 C22.3715886,10.1620567 22.3663518,10.1612247 22.3606557,10.1612247 C19.5771956,10.1612247 17.3115288,12.4411123 17.3115288,15.2418371 C17.3115288,18.0426543 19.5771956,20.3224494 22.3606557,20.3224494 C25.1441158,20.3224494 27.4097827,18.0426543 27.4097827,15.2418371 C27.4097827,15.2361055 27.4090477,15.2308361 27.4090477,15.225844 Z M31.7378027,15.2418371 C31.7378027,18.1228044 30.4442384,20.702215 28.4153269,22.434826 C32.8115162,21.2714011 36.8411345,18.8592242 39.9600209,15.4357874 L40.1365079,15.2418371 L39.9600209,15.0479791 C36.8418694,11.6245424 32.8115162,9.21236549 28.4153269,8.04912547 C30.444514,9.7815516 31.7378027,12.3608697 31.7378027,15.2418371 Z M30.2950375,15.2418371 C30.2950375,10.8399586 26.7352551,7.25797803 22.3606557,7.25797803 C17.9860564,7.25797803 14.426274,10.8399586 14.426274,15.2418371 C14.426274,19.643808 17.9860564,23.2256961 22.3606557,23.2256961 C26.7352551,23.2256961 30.2950375,19.643808 30.2950375,15.2418371 Z M22.3606557,21.7742114 C18.7808451,21.7742114 15.8687636,18.8439707 15.8687636,15.2418371 C15.8687636,11.6397034 18.7808451,8.70946271 22.3606557,8.70946271 C25.9404664,8.70946271 28.8525479,11.6397034 28.8525479,15.2418371 C28.8525479,18.8439707 25.9404664,21.7742114 22.3606557,21.7742114 Z M43.2785463,23.2256961 L1.4427652,23.2256961 L1.4427652,21.7742114 L0,21.7742114 L0,26.1289428 L1.4427652,26.1289428 L1.4427652,24.6774581 L2.88525479,24.6774581 L2.88525479,26.1289428 L4.32802,26.1289428 L4.32802,24.6774581 L5.77050959,24.6774581 L5.77050959,32.6613172 L7.21327479,32.6613172 L7.21327479,24.6774581 L8.65576438,24.6774581 L8.65576438,32.6613172 L10.0985296,32.6613172 L10.0985296,24.6774581 L11.5410192,24.6774581 L11.5410192,26.1289428 L12.9837844,26.1289428 L12.9837844,24.6774581 L14.426274,24.6774581 L14.426274,38.4676256 L15.8687636,38.4676256 L15.8687636,24.6774581 L17.3115288,24.6774581 L17.3115288,32.6613172 L18.7540183,32.6613172 L18.7540183,24.6774581 L20.1967835,24.6774581 L20.1967835,32.6613172 L21.6392731,32.6613172 L21.6392731,24.6774581 L23.0820383,24.6774581 L23.0820383,26.1289428 L24.5245279,26.1289428 L24.5245279,24.6774581 L25.9672931,24.6774581 L25.9672931,38.4676256 L27.4097827,38.4676256 L27.4097827,24.6774581 L28.8525479,24.6774581 L28.8525479,38.4676256 L30.2950375,38.4676256 L30.2950375,24.6774581 L31.7378027,24.6774581 L31.7378027,26.1289428 L33.1802923,26.1289428 L33.1802923,24.6774581 L34.6227819,24.6774581 L34.6227819,38.4676256 L36.0655471,38.4676256 L36.0655471,24.6774581 L37.5080367,24.6774581 L37.5080367,26.1289428 L38.9508019,26.1289428 L38.9508019,24.6774581 L40.3932915,24.6774581 L40.3932915,38.4676256 L41.8360567,38.4676256 L41.8360567,24.6774581 L43.2785463,24.6774581 L43.2785463,26.1289428 L44.7213115,26.1289428 L44.7213115,21.7742114 L43.2785463,21.7742114 L43.2785463,23.2256961 Z" id="Combined-Shape"></path>
        </g>
    </g>
</svg>