<?xml version="1.0" encoding="UTF-8"?>
<svg width="50px" height="44px" viewBox="0 0 50 44" version="1.1" xmlns="http://www.w3.org/2000/svg" xmlns:xlink="http://www.w3.org/1999/xlink">
    <!-- Generator: Sketch 52.5 (67469) - http://www.bohemiancoding.com/sketch -->
    <title>icon_1.2</title>
    <desc>Created with Sketch.</desc>
    <g id="Page-1" stroke="none" stroke-width="1" fill="none" fill-rule="evenodd">
        <g id="icon_1.2" fill="#A9A9A9" fill-rule="nonzero">
            <path d="M33.3426266,7.81517045 L28.6354406,1.23023864 C28.4541021,0.976602273 28.1626,0.826159091 27.8520096,0.826159091 C27.5414191,0.826159091 27.2502216,0.976602273 27.0688831,1.23023864 L22.3613925,7.81517045 C22.2431062,7.98075 22.1795464,8.17926136 22.1795464,8.38339773 L22.1795464,8.53854545 L22.1795464,40.0919318 C22.1795464,42.0984205 23.7999165,43.7305909 25.7918986,43.7305909 L29.9124251,43.7305909 C31.9041026,43.7305909 33.5247774,42.0984205 33.5247774,40.0919318 L33.5244728,8.53854545 L33.5244728,8.38339773 C33.5244728,8.17926136 33.461116,7.98044318 33.3426266,7.81517045 Z M27.8523142,3.46254545 L30.7859162,7.56613636 L24.9186106,7.56613636 L27.8523142,3.46254545 Z M24.1102023,9.51085227 L28.6936192,9.51085227 L28.6936192,34.6959205 L27.0105014,34.6959205 L27.0105014,16.1232955 C27.0107045,15.5861591 26.5784772,15.1509886 26.0454273,15.1509886 C25.5120728,15.1509886 25.0801501,15.5861591 25.0801501,16.1232955 L25.0801501,34.6956136 L24.1102023,34.6956136 L24.1102023,9.51085227 Z M31.5941214,40.0919318 C31.5941214,41.0260909 30.8397289,41.785875 29.9124251,41.785875 L25.7918986,41.785875 C24.8647979,41.785875 24.1102023,41.0260909 24.1102023,40.0919318 L24.1102023,36.6403295 L31.5941214,36.6403295 L31.5941214,40.0919318 Z M31.5941214,34.6959205 L30.6241736,34.6959205 L30.6241736,9.51085227 L31.5941214,9.51085227 L31.5941214,34.6959205 Z M26.9914132,12.0283977 C26.9791277,11.9672386 26.9606486,11.9057727 26.9364837,11.8466591 C26.9123187,11.7883636 26.8823664,11.7318068 26.8475405,11.6793409 C26.8130191,11.62575 26.7724058,11.5764545 26.7278327,11.5314545 C26.6834626,11.4868636 26.6343205,11.4459545 26.5813201,11.4100568 C26.5289289,11.3749773 26.4730856,11.345625 26.4140948,11.3212841 C26.3562208,11.2969432 26.2955038,11.2778182 26.2336701,11.2650341 C26.1089871,11.2406932 25.980649,11.2406932 25.8563723,11.2650341 C25.7953507,11.2775114 25.7346338,11.2969432 25.675846,11.3212841 C25.617769,11.345625 25.5619257,11.3749773 25.5098391,11.4100568 C25.4565341,11.4459545 25.4073919,11.4868636 25.3630219,11.5314545 C25.3186518,11.5761477 25.2778354,11.62575 25.2420957,11.6793409 C25.2075744,11.7318068 25.1777236,11.7883636 25.1534571,11.8466591 C25.1292922,11.9057727 25.1109147,11.9672386 25.0985276,12.0283977 C25.0858359,12.0916023 25.0801501,12.1559318 25.0801501,12.2191364 C25.0801501,12.4748182 25.1831049,12.7255909 25.3630219,12.9065114 C25.5423297,13.0874318 25.791594,13.1915455 26.0454273,13.1915455 C26.1081749,13.1915455 26.1717347,13.1845909 26.2336701,13.1718068 C26.2955038,13.1593295 26.3562208,13.1408182 26.4140948,13.116375 C26.4730856,13.0920341 26.5289289,13.0619659 26.5810155,13.0268864 C26.6343205,12.9920114 26.6834626,12.9512045 26.7278327,12.9065114 C26.7721012,12.8616136 26.8127145,12.8120114 26.8475405,12.7587273 C26.8823664,12.7059545 26.9123187,12.6497045 26.9364837,12.5902841 C26.9606486,12.5319886 26.9788231,12.4708295 26.9914132,12.4084432 C27.0041048,12.3461591 27.0107045,12.2820341 27.0107045,12.2188295 C27.0107045,12.1559318 27.0041048,12.0916023 26.9914132,12.0283977 Z M9.38898863,19.0363295 L9.38868403,18.8881364 C9.38868403,18.1219091 10.0077326,17.4983523 10.7684202,17.4983523 C10.7822288,17.4983523 10.7957327,17.4980455 10.8092366,17.4975341 L13.7495399,17.37225 C15.4666713,17.3600795 16.8599114,15.949125 16.8599114,14.2169318 C16.8599114,12.4768636 15.4545888,11.0616136 13.7274056,11.0616136 L7.15779405,11.0616136 C6.49498458,11.0616136 5.95594421,10.5185455 5.95594421,9.85090909 C5.95594421,9.52793182 6.08225165,9.22469318 6.31192001,8.99682955 C6.53214577,8.77857955 6.81989118,8.65881818 7.12418652,8.65881818 C7.13505059,8.65881818 7.14662539,8.659125 7.15779405,8.659125 L12.9056965,8.659125 C15.0495724,8.659125 16.7937117,6.90197727 16.7937117,4.74248864 C16.7937117,2.58289773 15.0495724,0.825852273 12.9056965,0.825852273 L6.36695107,0.825852273 C5.83390117,0.825852273 5.40157232,1.26122727 5.40157232,1.79815909 C5.40157232,2.33539773 5.83390117,2.77046591 6.36695107,2.77046591 L12.9056965,2.77046591 C13.9853002,2.77046591 14.8633603,3.65502273 14.8633603,4.74248864 C14.8633603,5.82964773 13.9849956,6.71410227 12.9056965,6.71410227 L7.16469832,6.71440909 C6.33781101,6.70285227 5.55184162,7.02143182 4.9574656,7.61082955 C4.35628685,8.20718182 4.02528824,9.00265909 4.02528824,9.85090909 C4.02528824,11.5909773 5.43071238,13.0062273 7.15779405,13.0062273 L13.727101,13.0062273 C14.3899105,13.0062273 14.9290524,13.5492955 14.9290524,14.2169318 C14.9290524,14.8845682 14.3899105,15.4278409 13.727101,15.4278409 C13.7135971,15.4278409 13.7000932,15.4278409 13.6862846,15.4287614 L10.746286,15.5539432 C8.93107338,15.5658068 7.45802806,17.0571477 7.45802806,18.8901818 L7.45833266,19.0369432 C3.26663132,19.5216136 0,23.1170114 0,27.4673864 L0,35.2600568 C0,39.93975 3.77978069,43.7471591 8.42564055,43.7471591 C13.0715004,43.7471591 16.8509765,39.93975 16.8509765,35.2600568 L16.8509765,27.4673864 C16.8512811,23.1158864 13.5829237,19.5192614 9.38898863,19.0363295 Z M1.93065597,27.4673864 C1.93065597,24.1902614 4.33496485,21.468375 7.46036333,20.9973068 L7.46036333,28.9276364 L1.93065597,28.9276364 L1.93065597,27.4673864 Z M14.9206251,35.2600568 C14.9206251,38.8677273 12.0068221,41.8024432 8.42564055,41.8024432 C4.84435749,41.8024432 1.93065597,38.8677273 1.93065597,35.2600568 L1.93065597,30.8726591 L14.9206251,30.8726591 L14.9206251,35.2600568 Z M14.9206251,28.9276364 L9.39091776,28.9276364 L9.39091776,20.9973068 C12.5163162,21.468375 14.9206251,24.1902614 14.9206251,27.4673864 L14.9206251,28.9276364 Z M3.59671612,1.60803409 C3.58412599,1.54677273 3.56564693,1.48540909 3.541482,1.42619318 C3.51731707,1.36769318 3.48736474,1.31144318 3.45284342,1.25897727 C3.41801749,1.20528409 3.37770876,1.15578409 3.33313564,1.11109091 C3.15352321,0.930170455 2.90456352,0.826159091 2.65073023,0.826159091 C2.39689695,0.826159091 2.14763266,0.930170455 1.96832483,1.11109091 C1.92365017,1.15578409 1.88313838,1.20528409 1.84861705,1.25897727 C1.81287733,1.31144318 1.7838388,1.36769318 1.75967387,1.42619318 C1.73459514,1.48540909 1.71652221,1.54677273 1.70352595,1.60803409 C1.69113888,1.67123864 1.68535148,1.73526136 1.68535148,1.79846591 C1.68535148,1.86167045 1.69113888,1.926 1.70352595,1.98807955 C1.71621761,2.05036364 1.73459514,2.11152273 1.75967387,2.170125 C1.7838388,2.22923864 1.81287733,2.28579545 1.84831245,2.33826136 C1.88313838,2.39185227 1.92365017,2.44114773 1.96802023,2.48614773 C2.01259335,2.53073864 2.06183701,2.57164773 2.115142,2.60672727 C2.16722859,2.64180682 2.22307191,2.67197727 2.28084437,2.69631818 C2.33983523,2.72035227 2.40055215,2.73896591 2.46248747,2.75164773 C2.52432126,2.764125 2.58798265,2.77107955 2.65073023,2.77107955 C2.90456352,2.77107955 3.15382781,2.66706818 3.33313564,2.48614773 C3.37770876,2.44145455 3.41832209,2.39185227 3.45284342,2.33826136 C3.48766934,2.28579545 3.51762167,2.22954545 3.5417866,2.170125 C3.56595153,2.11182955 3.58412599,2.05036364 3.59671612,1.98838636 C3.60940779,1.926 3.61600745,1.86197727 3.61600745,1.79877273 C3.61600745,1.73526136 3.60910319,1.67123864 3.59671612,1.60803409 Z M49.4156548,10.5278523 C49.3091464,8.23356818 48.1617184,7.09793182 47.2394913,6.18565909 C46.242028,5.19821591 45.6398339,4.60217045 46.2086236,2.64906818 C46.465909,1.765125 46.1113546,1.30070455 45.8770158,1.10270455 C45.5855136,0.856227273 45.0651554,0.648715909 44.2405018,1.05975 C43.1724729,1.59228409 41.5511889,3.15838636 40.2980647,4.86767045 C39.1476923,6.43694318 37.7985176,8.78727273 37.9047215,11.071125 C37.9841205,12.7786705 38.7030779,14.3447727 39.8764984,15.4461477 C39.2965401,16.2346705 38.9528499,17.2093295 38.9528499,18.2637614 C38.9528499,18.9325227 39.0881938,19.5700909 39.334209,20.1489545 L39.334209,39.1504091 C39.334209,41.4628977 41.2021174,43.3444091 43.4979887,43.3444091 C45.79386,43.3444091 47.6617684,41.4628977 47.6617684,39.1504091 L47.6617684,20.7766023 C48.1118655,20.0466818 48.3689479,19.1847273 48.3689479,18.2634545 C48.3689479,17.2218068 48.0330757,16.2581932 47.4657075,15.4750909 C48.774675,14.2510909 49.5049026,12.4455682 49.4156548,10.5278523 Z M45.731417,39.1501023 C45.731417,40.3905682 44.7294862,41.3997955 43.4982933,41.3997955 C42.2666942,41.3997955 41.2651696,40.3905682 41.2651696,39.1501023 L41.264865,22.3523182 C41.7662365,22.6479886 42.3297464,22.8552955 42.9382355,22.9497955 C42.98687,22.9575682 43.0360121,22.9613523 43.0852558,22.9613523 L44.236542,22.9613523 C44.2859887,22.9613523 44.3352324,22.9575682 44.3838668,22.9497955 C44.4475282,22.939875 44.5104789,22.928625 44.5738357,22.9158409 C44.6141444,22.9080682 44.6535393,22.8990682 44.6935434,22.8900682 C44.7108041,22.8862841 44.7280648,22.8825 44.7451224,22.8785114 C45.0918586,22.797 45.4217404,22.6784659 45.731417,22.5277159 L45.731417,39.1501023 Z M44.9658558,20.7317045 C44.9614899,20.73375 44.9575301,20.7357955 44.9537733,20.7380455 C44.9258517,20.752875 44.8976254,20.7670909 44.8693991,20.7813068 C44.8558952,20.7879545 44.8423913,20.7942955 44.8287858,20.8007386 C44.8072608,20.8108636 44.7856342,20.8206818 44.7638045,20.8306023 C44.7430917,20.8395 44.7223789,20.8481932 44.7016661,20.8566818 C44.6846085,20.8636364 44.6679571,20.8705909 44.651001,20.8772386 C44.6253131,20.8873636 44.5991175,20.8966705 44.5729219,20.9059773 C44.5594179,20.9105795 44.5462186,20.9154886 44.5327147,20.9200909 C44.503067,20.9300114 44.4734192,20.9390114 44.4437715,20.9480114 C44.4325013,20.9514886 44.4213326,20.9549659 44.4097578,20.9581364 C44.3772672,20.9674432 44.3447765,20.9758295 44.3118797,20.9836023 C44.3024371,20.9859545 44.2935022,20.9885114 44.2842627,20.9905568 C44.2420248,21.0004773 44.1996854,21.0094773 44.1570414,21.0169432 L43.165264,21.0169432 C43.1644517,21.0169432 43.1635379,21.0166364 43.1624211,21.0164318 C43.1158173,21.0079432 43.0697212,20.9978182 43.0239296,20.9867727 C43.0055521,20.9824773 42.9873776,20.977875 42.9693047,20.9728636 C42.9419922,20.9659091 42.9145782,20.9584432 42.8875704,20.9505682 C42.8648269,20.9436136 42.8420835,20.9372727 42.81934,20.9297045 C42.8023839,20.9244886 42.7853263,20.9183523 42.7683703,20.912625 C41.6669369,20.5327841 40.8838104,19.4680227 40.8838104,18.2637614 C40.8838104,17.3618182 41.3097427,16.5590795 41.9694046,16.0467955 C41.994788,16.0270568 42.020679,16.0079318 42.0465699,15.9894205 C42.0908385,15.9572045 42.1363254,15.9262159 42.1827261,15.8969659 C42.2028297,15.883875 42.2232379,15.8710909 42.2437476,15.8586136 C42.3079167,15.8203636 42.3732026,15.7844659 42.4406207,15.751125 C42.4472204,15.7479545 42.4535155,15.7444773 42.4601151,15.7412045 C42.499307,15.7220795 42.5387019,15.7041818 42.5784014,15.687 C42.5851026,15.6844432 42.5917023,15.6817841 42.598302,15.6792273 C42.6676492,15.6501818 42.7382149,15.6241023 42.8104051,15.6006818 C42.8325393,15.5934205 42.8549782,15.5867727 42.8775186,15.5800227 C42.926153,15.5656023 42.9755998,15.5525114 43.0254526,15.5406477 C43.0634261,15.5316477 43.1017041,15.5232614 43.1402868,15.516 C43.1664824,15.5110909 43.1923734,15.5060795 43.2187721,15.5017841 C43.2792859,15.4921705 43.3400028,15.4840909 43.401532,15.4785682 C43.418285,15.4768295 43.4349365,15.4760114 43.4516895,15.4745795 C43.5210367,15.4695682 43.5906886,15.4657841 43.6611527,15.4657841 C43.7325306,15.4657841 43.8030963,15.4695682 43.8732558,15.4750909 C43.8900088,15.4763182 43.9066603,15.4771364 43.9231087,15.478875 C43.9846378,15.4843977 44.0456594,15.4927841 44.1061732,15.5023977 C44.1334857,15.507 44.1604935,15.5119091 44.1879075,15.517125 C44.2264902,15.5243864 44.2649713,15.5333864 44.3032494,15.5423864 C44.3539145,15.5545568 44.4037674,15.5678523 44.4529095,15.5826818 C44.4734192,15.5887159 44.4938274,15.5951591 44.5142356,15.6018068 C44.5832783,15.6244091 44.6515087,15.6496705 44.7183176,15.6771818 C44.7280648,15.6812727 44.7379135,15.6849545 44.7479653,15.6893523 C44.8648301,15.7394659 44.9776337,15.7980682 45.0855636,15.8633182 C45.1097285,15.8777386 45.1330812,15.892875 45.1566369,15.9082159 C45.2003978,15.9363409 45.2429402,15.9655909 45.284975,15.996375 C45.3143181,16.0175455 45.3431536,16.0395341 45.3718875,16.0621364 C46.0203808,16.5750341 46.4385965,17.3708182 46.4385965,18.2637614 C46.4385965,19.31175 45.845642,20.2545 44.9658558,20.7317045 Z M46.0266759,14.1632386 C46.0056585,14.1510682 45.9838288,14.1406364 45.9628114,14.1287727 C45.9124509,14.1000341 45.8611766,14.0725227 45.8096992,14.0458295 C45.7835036,14.0322273 45.757308,14.0183182 45.7305032,14.0050227 C45.5587088,13.9200341 45.3808225,13.8455795 45.1980625,13.7820682 C45.1877061,13.7782841 45.1776543,13.7751136 45.1679071,13.7716364 C45.0760194,13.7403409 44.9836241,13.7112955 44.8896043,13.6858295 C44.8892997,13.6858295 44.8886905,13.6858295 44.8883859,13.6855227 C44.698214,13.6336705 44.50327,13.5938864 44.3041632,13.566375 C44.2862933,13.5637159 44.2679158,13.5617727 44.2497413,13.5594205 C44.1728806,13.5498068 44.0958168,13.5420341 44.0177377,13.5362045 C43.9944866,13.5341591 43.9711339,13.5321136 43.9480859,13.5306818 C43.8531522,13.5249545 43.7576094,13.5211705 43.6611527,13.5211705 C43.5659145,13.5211705 43.4711839,13.5249545 43.3773671,13.530375 C43.3549282,13.5319091 43.3324894,13.5341591 43.3100505,13.5355909 C43.2328852,13.5414205 43.1560245,13.5489886 43.0800776,13.5585 C43.0622077,13.5605455 43.0444394,13.5628977 43.0265695,13.5654545 C42.7321229,13.6055455 42.446002,13.6733523 42.1711513,13.7658068 C42.1634348,13.7684659 42.1556167,13.7713295 42.1479002,13.7738864 C42.0606831,13.80375 41.9745828,13.8356591 41.8900056,13.8704318 C41.8827967,13.8733977 41.8758924,13.8759545 41.8686836,13.8789205 C41.7803496,13.9159432 41.6931325,13.9548068 41.6073368,13.9968409 C41.5886547,14.0061477 41.5704802,14.0159659 41.5521027,14.0255795 C41.4934165,14.0551364 41.4352379,14.0856136 41.3782777,14.1177273 C41.3615247,14.1270341 41.344264,14.1351136 41.3276125,14.1447273 C40.4400083,13.3840227 39.892033,12.2403068 39.8332452,10.9797955 C39.7685685,9.58592045 40.5796166,7.67802273 42.058957,5.74557955 C42.8003533,4.77695455 43.5146401,4.0455 44.0799776,3.54865909 C43.9199611,5.62581818 44.9937775,6.68832955 45.8868645,7.57257955 C46.7073552,8.38452273 47.4162608,9.08611364 47.4873341,10.6185682 C47.552417,12.0200114 47.0027156,13.3271591 46.0266759,14.1632386 Z" id="Combined-Shape"></path>
        </g>
    </g>
</svg>