<?xml version="1.0" encoding="UTF-8"?>
<svg width="53px" height="49px" viewBox="0 0 53 49" version="1.1" xmlns="http://www.w3.org/2000/svg" xmlns:xlink="http://www.w3.org/1999/xlink">
    <!-- Generator: Sketch 52.5 (67469) - http://www.bohemiancoding.com/sketch -->
    <title>icon_0.1</title>
    <desc>Created with Sketch.</desc>
    <g id="Page-1" stroke="none" stroke-width="1" fill="none" fill-rule="evenodd">
        <g id="icon_0.1" fill="#A9A9A9" fill-rule="nonzero">
            <path d="M35.0235636,19.6485017 L35.0235636,9.94167923 L17.9452814,9.94167923 L17.9452814,19.6485017 C17.9452814,23.7896909 20.9581185,27.2433796 24.9237052,27.9735544 L24.9237052,36.0490351 L20.9195456,36.0490351 L20.9195456,39.143964 L32.0495961,39.143964 L32.0495961,36.0490351 L28.0442496,36.0490351 L28.0442496,27.9735544 C32.0098364,27.2433796 35.0235636,23.7896909 35.0235636,19.6485017 Z M53,13.1446187 L45.0204621,10.8296024 L42.6873975,18.7432144 L45.6815416,19.6125963 L46.5681239,16.6091968 C47.5790296,19.1193384 48.1048073,21.8134216 48.1048073,24.5437045 C48.1048073,36.3218574 38.4434927,45.9041882 26.5680959,45.9041882 C22.6529506,45.9041882 18.8199952,44.8520418 15.4843329,42.8622344 L13.8770315,45.5154091 C17.6981184,47.7954028 22.0868197,49 26.5680959,49 C33.1545602,49 39.3458009,46.4563075 44.0036222,41.8362814 C48.6608499,37.216844 51.2253517,31.0752524 51.2253517,24.5437045 C51.2253517,21.3701957 50.6046254,18.2411273 49.412724,15.3295514 L52.1235059,16.1162331 L53,13.1446187 Z M11.3261786,9.28184368 C15.3893843,5.29016235 20.7673312,3.09581184 26.4805652,3.09581184 C26.5152808,3.09581184 26.5496996,3.09581184 26.5841185,3.09581184 C30.4992638,3.11435316 34.3271751,4.18386359 37.6536392,6.1883863 L39.2734026,3.54404089 C35.4632942,1.24638874 31.0805271,0.0217786934 26.5983608,0 C26.5588978,0 26.5203249,0 26.4805652,0 C19.9386081,0 13.7803026,2.51279033 9.12989929,7.08278426 C4.45101135,11.6813259 1.858025,17.8105566 1.82687,24.3426931 C1.81262771,27.5138474 2.41911176,30.6473305 3.59736428,33.5653811 L0.889252784,32.7663385 L0,35.7329497 L7.96677919,38.08446 L10.3378232,30.1808545 L7.346943,29.2991117 L6.4470085,32.2957422 C5.44856485,29.7803031 4.93376553,27.0856312 4.94741439,24.3568198 C4.97411867,18.6513907 7.23923571,13.2979525 11.3261786,9.28184368 Z" id="Fill-8"></path>
        </g>
    </g>
</svg>