<?xml version="1.0" encoding="UTF-8"?>
<svg width="47px" height="49px" viewBox="0 0 47 49" version="1.1" xmlns="http://www.w3.org/2000/svg" xmlns:xlink="http://www.w3.org/1999/xlink">
    <!-- Generator: Sketch 52.5 (67469) - http://www.bohemiancoding.com/sketch -->
    <title>icon_0.4</title>
    <desc>Created with Sketch.</desc>
    <g id="Page-1" stroke="none" stroke-width="1" fill="none" fill-rule="evenodd">
        <g id="icon_0.4" fill="#A9A9A9" fill-rule="nonzero">
            <path d="M29.0830663,42.8195141 L29.0830663,44.2516276 C29.0830663,45.3905311 28.2462372,46.3388481 27.157871,46.4995706 L26.8053934,47.8002826 C26.6140949,48.5058869 25.9786041,49 25.2432582,49 L21.746702,49 C21.0105421,49 20.3761366,48.5058869 20.1845668,47.8002826 L19.842129,46.4995706 C18.7439943,46.3288029 17.9068939,45.3905311 17.9068939,44.2407679 L17.9068939,42.8094689 C17.9068939,42.0430507 18.5214911,41.4281242 19.2877704,41.4281242 L27.7024612,41.4281242 C28.4676551,41.4381694 29.0830663,42.0536388 29.0830663,42.8195141 Z M35.562522,23.5222262 C35.562522,26.7782143 34.2725462,29.7328476 32.1766747,31.9007009 C30.5844202,33.5538078 29.5560213,35.6616616 29.2138548,37.9096047 C29.0621727,38.8777405 28.2261577,39.59339 27.2384606,39.59339 L19.7514996,39.59339 C18.7738423,39.59339 17.9269735,38.8877857 17.7861452,37.9196498 C17.4331249,35.6717068 16.3955003,33.5337175 14.8035171,31.8906557 C12.7475334,29.7526664 11.4675973,26.8490733 11.437478,23.6530847 C11.3674709,16.9385766 16.7078188,11.5036042 23.4195461,11.4536499 C30.1206909,11.4028811 35.562522,16.8275369 35.562522,23.5222262 Z M24.8603899,16.2120675 C24.8603899,15.4662825 24.2558325,14.8513561 23.499593,14.8513561 C18.7030212,14.8513561 14.7934773,18.7532205 14.7934773,23.5621354 C14.7934773,24.3087348 15.3980348,24.9236612 16.1540029,24.9236612 C16.8993886,24.9236612 17.5139858,24.31878 17.5139858,23.5621354 C17.5139858,20.2553786 20.2046464,17.5733219 23.499593,17.5733219 C24.2558325,17.5733219 24.8603899,16.9684406 24.8603899,16.2120675 Z M23.499593,7.49124304 C24.2457927,7.49124304 24.8603899,6.88609026 24.8603899,6.12971715 L24.8603899,1.36071142 C24.8603899,0.614926448 24.2558325,0 23.499593,0 C22.7444389,0 22.1396101,0.604881292 22.1396101,1.36071142 L22.1396101,6.12971715 C22.1396101,6.88609026 22.7542073,7.49124304 23.499593,7.49124304 Z M7.48696099,23.5121811 C7.48696099,22.7658531 6.88240354,22.1509267 6.12724942,22.1509267 L1.36079695,22.1509267 C0.614597225,22.1509267 0,22.755808 0,23.5121811 C0,24.257966 0.604557447,24.8728925 1.36079695,24.8728925 L6.12724942,24.8728925 C6.88240354,24.8728925 7.48696099,24.2680112 7.48696099,23.5121811 Z M45.6394744,22.1509267 L40.8727506,22.1509267 C40.1276362,22.1509267 39.512225,22.755808 39.512225,23.5121811 C39.512225,24.257966 40.1175965,24.8728925 40.8727506,24.8728925 L45.6394744,24.8728925 C46.3854028,24.8728925 47,24.2680112 47,23.5121811 C47,22.7658531 46.3954426,22.1509267 45.6394744,22.1509267 Z M10.2584824,34.8442031 L6.88240354,38.2220905 C6.34866723,38.7569272 6.34866723,39.6134803 6.88240354,40.148317 C7.1447945,40.4097626 7.4978148,40.5414356 7.84025264,40.5414356 C8.18323317,40.5414356 8.53543944,40.4097626 8.79783039,40.148317 L12.1736379,36.7704297 C12.7073742,36.235593 12.7073742,35.3790398 12.1736379,34.8442031 C11.6491274,34.3101809 10.782993,34.3101809 10.2584824,34.8442031 Z M35.7839398,12.5827797 C36.1263777,12.5827797 36.479398,12.4519212 36.7415176,12.1893897 L40.1175965,8.81177383 C40.6513328,8.27775161 40.6513328,7.42038397 40.1175965,6.88609026 C39.5830461,6.35125357 38.7269515,6.35125357 38.1924012,6.88609026 L34.8163223,10.2639776 C34.282586,10.7979998 34.282586,11.654553 34.8163223,12.1893897 C35.088753,12.4519212 35.4309195,12.5827797 35.7839398,12.5827797 Z M10.2584824,12.1793445 C10.520602,12.4410616 10.8736223,12.5727346 11.2160602,12.5727346 C11.5582267,12.5727346 11.911247,12.4410616 12.1736379,12.1793445 C12.7073742,11.6445079 12.7073742,10.7879547 12.1736379,10.253118 L8.79783039,6.87631659 C8.26328005,6.3414799 7.40718546,6.3414799 6.87263511,6.87631659 C6.33862745,7.41033881 6.33862745,8.26770646 6.87263511,8.80172868 L10.2584824,12.1793445 Z M36.7415176,34.8442031 C36.2069672,34.3101809 35.3508726,34.3101809 34.8163223,34.8442031 C34.282586,35.3790398 34.282586,36.235593 34.8163223,36.7704297 L38.1924012,40.148317 C38.4545208,40.4097626 38.8067271,40.5414356 39.1499789,40.5414356 C39.4921454,40.5414356 39.8451657,40.4097626 40.1067426,40.148317 C40.641293,39.6134803 40.641293,38.7569272 40.1067426,38.2220905 L36.7415176,34.8442031 Z" id="Fill-6"></path>
        </g>
    </g>
</svg>