<?xml version="1.0" encoding="UTF-8"?>
<svg width="36px" height="50px" viewBox="0 0 36 50" version="1.1" xmlns="http://www.w3.org/2000/svg" xmlns:xlink="http://www.w3.org/1999/xlink">
    <!-- Generator: Sketch 52.5 (67469) - http://www.bohemiancoding.com/sketch -->
    <title>icon_0.8</title>
    <desc>Created with Sketch.</desc>
    <g id="Page-1" stroke="none" stroke-width="1" fill="none" fill-rule="evenodd">
        <g id="icon_0.8" fill="#A9A9A9" fill-rule="nonzero">
            <path d="M10.2385365,7.58292249 C10.2385365,5.47741508 11.3868098,3.50885312 12.4630163,2.43864558 C14.1086228,0.802281802 15.764393,0.2138 18.1805649,0.2138 C21.256153,0.2138 24.0999309,2.61613762 24.9638111,5.20091571 C25.5826106,7.05247947 25.4528215,9.00400957 25.4528215,11.028232 L34.0646983,11.028232 L34.164188,13.4169901 C34.169174,13.8212669 34.1384142,14.2665506 34.1599307,14.6653802 C34.1839402,15.1101268 34.2609162,15.2552813 34.2583081,15.8111571 C34.2457281,18.5018473 34.6319888,22.5835503 34.635594,25.3869808 C34.6362461,25.9405933 34.7230023,26.039102 34.7376534,26.5290751 C34.7498499,26.9384538 34.7256103,27.3686236 34.7307114,27.7800737 C34.7372315,28.3117059 34.8274779,28.3893466 34.8339981,28.9209405 C34.838984,29.3252556 34.8082243,29.7704242 34.8297408,30.1693689 C34.8537886,30.6141155 34.9307646,30.75927 34.9281565,31.3151457 L35.3048672,40.8913915 C35.3113873,41.4230236 35.4015954,41.5006644 35.4081539,42.0322582 C35.4132549,42.4438234 35.3890153,42.8738781 35.4011735,43.2834102 C35.415863,43.7733834 35.5026192,43.871892 35.5032712,44.4253511 C35.5054573,46.0648987 35.691358,47.6283017 35.691358,49.2138 L0,49.2138 L0.0994896562,46.8250802 C0.127756378,44.5252791 0.394430079,41.6449366 0.382578767,39.6433083 C0.37180136,37.8467529 0.569668413,35.5730749 0.670231974,33.7103867 C0.691978557,33.3079513 0.65458364,32.8682298 0.666665075,32.4626488 C0.681354565,31.9726757 0.768110773,31.874167 0.768762787,31.3205545 L1.14601038,21.7447307 C1.14359409,21.1890852 1.22037832,21.0435854 1.24438778,20.599069 C1.26590424,20.2001242 1.23514452,19.7548406 1.2400538,19.3506789 C1.246689,18.8190467 1.33682034,18.7414059 1.34345554,18.2098121 C1.34844153,17.805497 1.31756675,17.3602517 1.33908321,16.9613837 C1.44148776,15.0649003 1.62665971,12.9258278 1.62665971,11.028232 L10.2385365,11.028232 L10.2385365,7.58292249 Z M13.2048164,7.39154411 L13.2048164,11.028232 L22.4865033,11.028232 L22.4865033,7.6785925 C22.4865033,4.47126886 18.9441116,2.10299499 15.9450009,3.52864691 C14.4327121,4.24751459 13.2048164,5.77723738 13.2048164,7.39154411 Z M17.9025768,17.7756145 L7.38290723,28.2970139 C6.85811272,28.8217797 6.85811272,29.6728745 7.38290723,30.1977553 L7.78213153,30.5970453 L6.25158634,32.1278421 C4.64111192,33.738543 4.64111192,36.3594563 6.25158634,37.9701572 L8.84322669,40.5622621 C10.4535861,42.1728479 13.0741451,42.1728479 14.6845045,40.5622621 L16.2150497,39.0314652 L18.5016242,41.3183007 C19.0263037,41.8431815 19.8772586,41.8431815 20.4020531,41.3183007 L30.9217227,30.7969012 C31.4465172,30.2720204 31.4465172,29.4210407 30.9217227,28.8961598 L19.8030057,17.7756145 C19.2782112,17.2507337 18.4274864,17.2507337 17.9025768,17.7756145 Z M9.42758459,32.242884 L14.5695966,37.3857032 L13.0390131,38.9165001 C12.3359503,39.6197168 11.1917809,39.6197168 10.4886797,38.9165001 L7.8970394,36.3244336 C7.19393825,35.6211401 7.19393825,34.4767825 7.8970394,33.7735658 L9.42758459,32.242884 Z M19.2680091,26.0259445 C19.2680091,24.91941 20.1740783,24.024623 21.2846115,24.0432277 C22.3717105,24.061372 23.2334044,24.971081 23.2334044,26.0586656 L23.2334044,29.6882953 C23.2334044,29.8560822 23.097517,29.992107 22.9297577,29.992107 L19.3006098,29.9920303 C18.213319,29.9920303 17.3036445,29.1302713 17.2855032,28.0429169 C17.2670166,26.9321627 18.1616565,26.0259445 19.2680091,26.0259445 Z M16.3293055,29.5375018 C16.5481521,29.7563844 16.5481521,30.1112917 16.3293055,30.3301743 C16.0770912,30.5823534 16.0770912,30.991195 16.3293055,31.2434891 L17.5171599,32.4316539 C17.7692975,32.6837946 18.1781869,32.6837946 18.4303246,32.4316539 C18.6491711,32.2126562 19.0040201,32.2126562 19.2228667,32.4316539 L19.5233684,32.7320899 C19.742215,32.9509725 19.742215,33.3058798 19.5233684,33.5248774 L17.5171599,35.5313008 C17.2983133,35.7502984 16.9434643,35.7502984 16.7245027,35.5313008 L16.424116,35.2308648 C16.2052695,35.0119822 16.2052695,34.6570749 16.424116,34.4381539 C16.6763304,34.1858981 16.6763304,33.7770565 16.424116,33.5248774 L15.2362617,32.3367127 C14.984009,32.0844569 14.5752346,32.0844569 14.3230203,32.3367127 C14.1041354,32.5555953 13.7492864,32.5555953 13.5304398,32.3367127 L13.2300532,32.0361616 C13.0110915,31.817279 13.0110915,31.4623717 13.2300532,31.2434891 L15.2362617,29.2369507 C15.4551083,29.0180681 15.8098422,29.0180681 16.0288038,29.2369507 L16.3293055,29.5375018 Z" id="Fill-1"></path>
        </g>
    </g>
</svg>