<?xml version="1.0" encoding="UTF-8"?>
<svg width="30px" height="30px" viewBox="0 0 30 30" version="1.1" xmlns="http://www.w3.org/2000/svg" xmlns:xlink="http://www.w3.org/1999/xlink">
    <!-- Generator: Sketch 52.5 (67469) - http://www.bohemiancoding.com/sketch -->
    <title>instagram</title>
    <desc>Created with Sketch.</desc>
    <g id="Page-1" stroke="none" stroke-width="1" fill="none" fill-rule="evenodd">
        <g id="instagram" fill="#B3B3B3" fill-rule="nonzero">
            <path d="M4.39453125,30 L25.6054688,30 C28.0286408,30 30,28.0286408 30,25.6054688 L30,4.39453125 C30,1.97135924 28.0286408,0 25.6054688,0 L4.39453125,0 C1.97135924,0 0,1.97135924 0,4.39453125 L0,25.6054688 C0,28.0286408 1.97135924,30 4.39453125,30 Z M1.7578125,4.39453125 C1.7578125,2.94067383 2.94067383,1.7578125 4.39453125,1.7578125 L25.6054688,1.7578125 C27.0593262,1.7578125 28.2421875,2.94067383 28.2421875,4.39453125 L28.2421875,25.6054688 C28.2421875,27.0593262 27.0593262,28.2421875 25.6054688,28.2421875 L4.39453125,28.2421875 C2.94067383,28.2421875 1.7578125,27.0593262 1.7578125,25.6054688 L1.7578125,4.39453125 Z" id="Shape"></path>
            <path d="M15,22.9101562 C19.3615723,22.9101562 22.9101562,19.3615723 22.9101562,15 C22.9101562,10.6384277 19.3615723,7.08984375 15,7.08984375 C10.6384277,7.08984375 7.08984375,10.6384277 7.08984375,15 C7.08984375,19.3615723 10.6384277,22.9101562 15,22.9101562 Z M15,8.84765625 C18.3924866,8.84765625 21.1523438,11.6075134 21.1523438,15 C21.1523438,18.3924866 18.3924866,21.1523438 15,21.1523438 C11.6075134,21.1523438 8.84765625,18.3924866 8.84765625,15 C8.84765625,11.6075134 11.6075134,8.84765625 15,8.84765625 Z" id="Shape"></path>
            <path d="M23.7890625,8.84765625 C25.2429199,8.84765625 26.4257812,7.66479492 26.4257812,6.2109375 C26.4257812,4.75708008 25.2429199,3.57421875 23.7890625,3.57421875 C22.3352051,3.57421875 21.1523438,4.75708008 21.1523438,6.2109375 C21.1523438,7.66479492 22.3352051,8.84765625 23.7890625,8.84765625 Z M23.7890625,5.33203125 C24.2736053,5.33203125 24.6679688,5.72639467 24.6679688,6.2109375 C24.6679688,6.69548033 24.2736053,7.08984375 23.7890625,7.08984375 C23.3045197,7.08984375 22.9101562,6.69548033 22.9101562,6.2109375 C22.9101562,5.72639467 23.3045197,5.33203125 23.7890625,5.33203125 Z" id="Shape"></path>
        </g>
    </g>
</svg>