<?xml version="1.0" encoding="UTF-8"?>
<!DOCTYPE svg PUBLIC "-//W3C//DTD SVG 1.1//EN" "http://www.w3.org/Graphics/SVG/1.1/DTD/svg11.dtd">
<!-- Creator: CorelDRAW 2017 -->
<svg xmlns="http://www.w3.org/2000/svg" xml:space="preserve" width="479px" height="181px" version="1.1" style="shape-rendering:geometricPrecision; text-rendering:geometricPrecision; image-rendering:optimizeQuality; fill-rule:evenodd; clip-rule:evenodd"
viewBox="0 0 159.88 60.57"
 xmlns:xlink="http://www.w3.org/1999/xlink">
 <defs>
  <style type="text/css">
   <![CDATA[
    .fil0 {fill:none}
    .fil5 {fill:black}
    .fil2 {fill:#FFC800}
    .fil3 {fill:white}
    .fil4 {fill:black;fill-rule:nonzero}
    .fil1 {fill:#FFC800;fill-opacity:0.800000}
   ]]>
  </style>
   <clipPath id="id0">
    <rect x="3.04" y="0.64" width="59.45" height="59.45"/>
   </clipPath>
 </defs>
 <g id="Layer_x0020_1">
  <metadata id="CorelCorpID_0Corel-Layer"/>
  <polygon class="fil0" points="0,0 159.88,0 159.88,60.57 0,60.57 "/>
  <polygon class="fil1" points="0,0 159.88,0 91.48,25.91 "/>
  <polygon class="fil2" points="0,60.57 0,0 91.48,25.92 "/>
  <g style="clip-path:url(#id0)">
   <image x="3.04" y="0.64" width="59.45" height="59.45" xlink:href="11548-logo-125bfc2c-dbb0-471d-89c2-44627286d53e_Images\11548-logo-125bfc2c-dbb0-471d-89c2-44627286d53e_ImgID1.png"/>
  </g>
  <circle class="fil3" cx="32.84" cy="30.29" r="25.88"/>
  <circle class="fil2" cx="32.84" cy="24.83" r="7.26"/>
  <path class="fil4" d="M29.23 21.14c-0.01,-0.01 -0.02,-0.03 -0.03,-0.06 0,-0.03 -0.01,-0.06 -0.02,-0.1 -0.02,-0.07 -0.03,-0.16 -0.04,-0.25 -0.01,-0.1 -0.02,-0.2 -0.02,-0.3 0,-0.02 0,-0.04 0,-0.06 0,-0.02 0,-0.04 0,-0.07 0.02,-0.18 0.07,-0.36 0.15,-0.52 0.08,-0.17 0.22,-0.29 0.41,-0.37 0.1,-0.04 0.19,-0.07 0.29,-0.09 0.09,-0.02 0.17,-0.03 0.25,-0.02 0.27,0 0.52,0.09 0.73,0.27 0.22,0.17 0.39,0.43 0.52,0.76l0.86 2.17c0.06,0.16 0.18,0.3 0.36,0.4 0.18,0.11 0.37,0.16 0.57,0.16 0.03,0 0.06,0 0.08,-0.01 0.03,0 0.06,0 0.09,-0.01 0.06,0 0.11,-0.02 0.17,-0.05 0.05,-0.02 0.11,-0.05 0.16,-0.08 0.17,-0.11 0.29,-0.24 0.36,-0.39 0.07,-0.15 0.11,-0.31 0.11,-0.47 0,-0.04 -0.01,-0.08 -0.01,-0.12 -0.01,-0.04 -0.01,-0.08 -0.01,-0.12 -0.01,-0.03 -0.02,-0.07 -0.03,-0.11 -0.01,-0.04 -0.03,-0.08 -0.04,-0.12l-0.27 -0.68c-0.01,-0.03 -0.02,-0.06 -0.03,-0.09 -0.01,-0.03 -0.02,-0.06 -0.03,-0.1 0,-0.03 -0.01,-0.07 -0.01,-0.1 0,-0.03 -0.01,-0.06 -0.01,-0.09 0.01,-0.29 0.13,-0.54 0.36,-0.75 0.22,-0.21 0.47,-0.35 0.73,-0.42 0.05,-0.01 0.1,-0.02 0.15,-0.02 0.05,-0.01 0.1,-0.01 0.15,-0.01 0.05,0 0.1,0 0.16,0.01 0.05,0.01 0.11,0.02 0.17,0.03 0.26,0.07 0.51,0.22 0.73,0.43 0.23,0.22 0.33,0.47 0.32,0.76 0,0.03 0,0.06 0,0.09 0,0.04 0,0.06 -0.01,0.08 0,0.03 -0.01,0.06 -0.02,0.09 -0.01,0.03 -0.02,0.06 -0.03,0.09l-3.28 9.01c0,0.01 0,0.02 -0.01,0.03 0,0.01 -0.01,0.02 -0.02,0.03 -0.04,0.1 -0.09,0.19 -0.14,0.27 -0.05,0.08 -0.12,0.12 -0.22,0.12 -0.11,0 -0.2,-0.04 -0.25,-0.13 -0.06,-0.09 -0.11,-0.2 -0.16,-0.32l-3.19 -8.77z"/>
  <path class="fil4" d="M18.56 41.1l0 -3.94c0,-0.18 0.04,-0.31 0.13,-0.41 0.08,-0.09 0.18,-0.14 0.32,-0.14 0.14,0 0.25,0.05 0.33,0.14 0.09,0.09 0.13,0.23 0.13,0.41l0 3.94c0,0.18 -0.04,0.32 -0.13,0.41 -0.08,0.09 -0.19,0.14 -0.33,0.14 -0.13,0 -0.24,-0.05 -0.32,-0.14 -0.08,-0.1 -0.13,-0.24 -0.13,-0.41z"/>
  <path class="fil4" d="M21.32 38.5l0 3.08c0,0.22 -0.01,0.4 -0.02,0.54 -0.02,0.13 -0.04,0.23 -0.06,0.3 -0.15,0.38 -0.47,0.58 -0.96,0.58 -0.28,0 -0.48,-0.04 -0.63,-0.12 -0.14,-0.07 -0.21,-0.18 -0.21,-0.33 0,-0.1 0.03,-0.19 0.1,-0.26 0.06,-0.07 0.15,-0.1 0.25,-0.1 0.01,0 0.03,0 0.06,0.01 0.03,0 0.08,0 0.14,0.01 0.06,0 0.1,0 0.12,0 0.12,0 0.2,-0.04 0.24,-0.14 0.04,-0.09 0.06,-0.26 0.06,-0.51l0 -3.06c0,-0.18 0.05,-0.31 0.13,-0.4 0.08,-0.09 0.2,-0.14 0.33,-0.14 0.13,0 0.24,0.05 0.32,0.14 0.09,0.08 0.13,0.22 0.13,0.4z"/>
  <path class="fil4" d="M24.54 41.14c-0.22,0.17 -0.43,0.3 -0.63,0.38 -0.21,0.09 -0.44,0.13 -0.69,0.13 -0.23,0 -0.44,-0.05 -0.62,-0.14 -0.17,-0.09 -0.31,-0.22 -0.4,-0.37 -0.1,-0.16 -0.15,-0.33 -0.15,-0.51 0,-0.25 0.08,-0.46 0.24,-0.64 0.16,-0.17 0.37,-0.29 0.65,-0.35 0.06,-0.01 0.2,-0.04 0.43,-0.09 0.23,-0.05 0.42,-0.09 0.58,-0.13 0.17,-0.04 0.34,-0.08 0.53,-0.14 -0.01,-0.24 -0.06,-0.41 -0.14,-0.53 -0.09,-0.11 -0.26,-0.16 -0.53,-0.16 -0.23,0 -0.41,0.03 -0.52,0.09 -0.12,0.07 -0.22,0.16 -0.3,0.29 -0.08,0.13 -0.14,0.21 -0.18,0.26 -0.03,0.04 -0.1,0.06 -0.22,0.06 -0.1,0 -0.19,-0.04 -0.26,-0.1 -0.07,-0.07 -0.11,-0.15 -0.11,-0.25 0,-0.16 0.05,-0.32 0.17,-0.47 0.11,-0.15 0.29,-0.27 0.53,-0.37 0.23,-0.1 0.53,-0.15 0.89,-0.15 0.4,0 0.71,0.05 0.94,0.15 0.23,0.09 0.39,0.24 0.48,0.44 0.1,0.21 0.14,0.48 0.14,0.81 0,0.22 0,0.4 0,0.55 0,0.14 0,0.31 0,0.49 0,0.17 0.03,0.35 0.08,0.53 0.06,0.19 0.09,0.31 0.09,0.36 0,0.09 -0.05,0.18 -0.13,0.25 -0.09,0.08 -0.19,0.12 -0.3,0.12 -0.09,0 -0.19,-0.04 -0.28,-0.13 -0.09,-0.09 -0.18,-0.22 -0.29,-0.38zm-0.06 -1.31c-0.13,0.04 -0.32,0.1 -0.58,0.15 -0.25,0.05 -0.42,0.09 -0.52,0.12 -0.1,0.03 -0.19,0.08 -0.28,0.15 -0.09,0.07 -0.13,0.18 -0.13,0.31 0,0.14 0.05,0.25 0.15,0.35 0.11,0.1 0.24,0.15 0.41,0.15 0.18,0 0.35,-0.04 0.5,-0.12 0.15,-0.08 0.26,-0.18 0.33,-0.31 0.08,-0.13 0.12,-0.36 0.12,-0.68l0 -0.12z"/>
  <path class="fil4" d="M38.83 38.95l-1.66 1.85 1.77 0c0.15,0 0.26,0.04 0.33,0.1 0.07,0.07 0.11,0.16 0.11,0.26 0,0.11 -0.04,0.19 -0.11,0.25 -0.07,0.07 -0.18,0.1 -0.33,0.1l-2.46 0c-0.17,0 -0.3,-0.04 -0.38,-0.11 -0.09,-0.08 -0.13,-0.18 -0.13,-0.31 0,-0.08 0.03,-0.16 0.09,-0.24 0.06,-0.07 0.18,-0.22 0.37,-0.43 0.2,-0.22 0.38,-0.42 0.54,-0.6 0.17,-0.18 0.32,-0.35 0.46,-0.5 0.14,-0.16 0.25,-0.29 0.35,-0.4 0.09,-0.11 0.16,-0.2 0.22,-0.28l-1.35 0c-0.19,0 -0.33,-0.02 -0.42,-0.05 -0.1,-0.03 -0.15,-0.12 -0.15,-0.26 0,-0.11 0.04,-0.19 0.11,-0.25 0.07,-0.06 0.18,-0.09 0.31,-0.09l2.08 0c0.19,0 0.34,0.03 0.44,0.08 0.11,0.06 0.16,0.16 0.16,0.3 0,0.05 -0.01,0.1 -0.03,0.16 -0.02,0.05 -0.04,0.09 -0.07,0.12 -0.02,0.04 -0.06,0.08 -0.1,0.12 -0.04,0.05 -0.09,0.11 -0.15,0.18z"/>
  <path class="fil4" d="M40.73 38.41l0 0.11c0.16,-0.21 0.34,-0.37 0.52,-0.47 0.19,-0.1 0.41,-0.15 0.66,-0.15 0.24,0 0.45,0.06 0.64,0.16 0.19,0.1 0.33,0.25 0.42,0.44 0.06,0.11 0.1,0.23 0.12,0.36 0.02,0.13 0.02,0.29 0.02,0.49l0 1.69c0,0.18 -0.04,0.32 -0.12,0.41 -0.08,0.1 -0.19,0.14 -0.32,0.14 -0.14,0 -0.25,-0.05 -0.33,-0.14 -0.09,-0.1 -0.13,-0.23 -0.13,-0.41l0 -1.51c0,-0.3 -0.04,-0.53 -0.13,-0.69 -0.08,-0.15 -0.24,-0.23 -0.49,-0.23 -0.16,0 -0.31,0.04 -0.44,0.14 -0.14,0.1 -0.23,0.23 -0.3,0.4 -0.04,0.13 -0.06,0.38 -0.06,0.76l0 1.13c0,0.19 -0.05,0.32 -0.13,0.41 -0.09,0.1 -0.2,0.14 -0.33,0.14 -0.13,0 -0.24,-0.05 -0.32,-0.14 -0.09,-0.1 -0.13,-0.23 -0.13,-0.41l0 -2.62c0,-0.17 0.04,-0.3 0.12,-0.39 0.07,-0.08 0.17,-0.13 0.3,-0.13 0.08,0 0.16,0.02 0.22,0.06 0.06,0.04 0.11,0.1 0.15,0.17 0.04,0.08 0.06,0.17 0.06,0.28z"/>
  <path class="fil4" d="M44.93 38.42l0 2.62c0,0.18 -0.05,0.32 -0.13,0.41 -0.09,0.1 -0.2,0.14 -0.33,0.14 -0.13,0 -0.24,-0.05 -0.32,-0.14 -0.09,-0.1 -0.13,-0.23 -0.13,-0.41l0 -2.59c0,-0.18 0.04,-0.32 0.13,-0.41 0.08,-0.09 0.19,-0.14 0.32,-0.14 0.13,0 0.24,0.05 0.33,0.14 0.08,0.09 0.13,0.22 0.13,0.38z"/>
  <path class="fil4" d="M48.16 41.08c-0.22,0.17 -0.44,0.3 -0.64,0.39 -0.21,0.08 -0.44,0.12 -0.69,0.12 -0.23,0 -0.44,-0.04 -0.61,-0.14 -0.18,-0.09 -0.31,-0.21 -0.41,-0.37 -0.1,-0.16 -0.14,-0.33 -0.14,-0.51 0,-0.25 0.07,-0.46 0.23,-0.63 0.16,-0.18 0.38,-0.3 0.65,-0.36 0.06,-0.01 0.2,-0.04 0.43,-0.09 0.23,-0.04 0.42,-0.08 0.59,-0.12 0.16,-0.04 0.34,-0.09 0.53,-0.15 -0.02,-0.23 -0.06,-0.41 -0.15,-0.52 -0.08,-0.11 -0.26,-0.17 -0.53,-0.17 -0.23,0 -0.4,0.03 -0.52,0.1 -0.12,0.06 -0.22,0.16 -0.3,0.29 -0.08,0.12 -0.14,0.21 -0.17,0.25 -0.04,0.04 -0.11,0.06 -0.22,0.06 -0.11,0 -0.2,-0.03 -0.27,-0.1 -0.07,-0.06 -0.11,-0.15 -0.11,-0.25 0,-0.16 0.06,-0.31 0.17,-0.46 0.11,-0.15 0.29,-0.28 0.53,-0.38 0.24,-0.09 0.53,-0.14 0.89,-0.14 0.4,0 0.71,0.05 0.94,0.14 0.23,0.09 0.39,0.24 0.49,0.45 0.09,0.2 0.14,0.47 0.14,0.81 0,0.21 0,0.39 -0.01,0.54 0,0.15 0,0.31 0,0.49 0,0.17 0.03,0.35 0.09,0.54 0.05,0.18 0.08,0.3 0.08,0.35 0,0.1 -0.04,0.18 -0.13,0.26 -0.09,0.07 -0.19,0.11 -0.3,0.11 -0.09,0 -0.18,-0.04 -0.28,-0.13 -0.09,-0.09 -0.18,-0.21 -0.28,-0.38zm-0.06 -1.31c-0.14,0.05 -0.33,0.1 -0.58,0.15 -0.26,0.06 -0.43,0.1 -0.53,0.12 -0.1,0.03 -0.19,0.08 -0.28,0.15 -0.09,0.08 -0.13,0.18 -0.13,0.31 0,0.14 0.05,0.26 0.16,0.36 0.1,0.09 0.23,0.14 0.4,0.14 0.18,0 0.35,-0.04 0.5,-0.12 0.15,-0.08 0.26,-0.18 0.33,-0.3 0.08,-0.14 0.13,-0.37 0.13,-0.68l0 -0.13z"/>
  <path class="fil4" d="M52.17 41.18l-0.8 -1.32 -0.5 0.47 0 0.72c0,0.17 -0.04,0.31 -0.14,0.4 -0.09,0.1 -0.19,0.14 -0.31,0.14 -0.14,0 -0.25,-0.04 -0.33,-0.14 -0.08,-0.09 -0.12,-0.23 -0.12,-0.41l0 -3.86c0,-0.21 0.04,-0.36 0.12,-0.46 0.07,-0.11 0.18,-0.16 0.33,-0.16 0.14,0 0.25,0.05 0.33,0.14 0.08,0.1 0.12,0.24 0.12,0.42l0 2.2 1.02 -1.07c0.13,-0.13 0.23,-0.22 0.29,-0.27 0.07,-0.05 0.15,-0.08 0.24,-0.08 0.12,0 0.21,0.04 0.29,0.11 0.07,0.08 0.11,0.16 0.11,0.27 0,0.14 -0.12,0.31 -0.37,0.54l-0.48 0.44 0.93 1.46c0.07,0.11 0.12,0.19 0.15,0.25 0.03,0.05 0.04,0.11 0.04,0.16 0,0.14 -0.04,0.25 -0.12,0.34 -0.07,0.08 -0.18,0.12 -0.31,0.12 -0.11,0 -0.19,-0.03 -0.25,-0.09 -0.06,-0.06 -0.14,-0.17 -0.24,-0.32z"/>
  <path class="fil4" d="M28.07 37.08c-0.01,0 -0.01,-0.01 -0.01,-0.03 -0.01,-0.01 -0.01,-0.03 -0.02,-0.06 -0.01,-0.03 -0.01,-0.08 -0.02,-0.13 -0.01,-0.05 -0.01,-0.1 -0.01,-0.16 0,-0.01 0,-0.02 0,-0.03 0,-0.01 0,-0.02 0,-0.04 0.01,-0.1 0.04,-0.19 0.08,-0.28 0.05,-0.09 0.12,-0.15 0.22,-0.2 0.06,-0.02 0.11,-0.04 0.16,-0.05 0.04,-0.01 0.09,-0.01 0.13,0 0.15,0 0.28,0.04 0.4,0.14 0.11,0.09 0.2,0.23 0.27,0.41l0.46 1.16c0.04,0.09 0.1,0.16 0.2,0.22 0.1,0.05 0.2,0.08 0.31,0.08 0.01,0 0.03,0 0.04,0 0.01,0 0.03,0 0.04,0 0.04,-0.01 0.07,-0.02 0.1,-0.03 0.03,-0.02 0.06,-0.03 0.08,-0.05 0.1,-0.06 0.16,-0.13 0.2,-0.21 0.03,-0.08 0.05,-0.16 0.05,-0.25 0,-0.02 0,-0.04 0,-0.06 0,-0.03 0,-0.05 0,-0.07 -0.01,-0.01 -0.02,-0.03 -0.02,-0.06 -0.01,-0.02 -0.02,-0.04 -0.02,-0.06l-0.15 -0.37c0,-0.01 -0.01,-0.03 -0.01,-0.04 -0.01,-0.02 -0.02,-0.04 -0.02,-0.06 0,-0.02 0,-0.03 0,-0.05 -0.01,-0.02 -0.01,-0.03 -0.01,-0.05 0.01,-0.15 0.07,-0.29 0.19,-0.4 0.12,-0.12 0.25,-0.19 0.39,-0.23 0.03,-0.01 0.06,-0.01 0.08,-0.01 0.03,0 0.06,-0.01 0.09,-0.01 0.02,0 0.05,0.01 0.08,0.01 0.03,0.01 0.06,0.01 0.09,0.02 0.14,0.04 0.28,0.11 0.4,0.23 0.12,0.12 0.18,0.25 0.17,0.41 0,0.01 0,0.03 0,0.05 0,0.01 0,0.03 -0.01,0.04 0,0.01 0,0.03 -0.01,0.05 0,0.01 -0.01,0.03 -0.01,0.04l-1.77 4.84c0,0.01 0,0.02 0,0.02 0,0.01 -0.01,0.01 -0.01,0.02 -0.02,0.05 -0.05,0.1 -0.08,0.14 -0.02,0.05 -0.06,0.07 -0.12,0.07 -0.06,0 -0.1,-0.03 -0.13,-0.08 -0.03,-0.04 -0.06,-0.1 -0.09,-0.17l-1.71 -4.71z"/>
  <path class="fil5" d="M15.12 36.47c1.39,0 2.52,1.13 2.52,2.52 0,1.39 -1.13,2.52 -2.52,2.52 -1.4,0 -2.53,-1.13 -2.53,-2.52 0,-1.39 1.13,-2.52 2.53,-2.52zm0 0.88c0.9,0 1.64,0.73 1.64,1.64 0,0.91 -0.74,1.64 -1.64,1.64 -0.91,0 -1.64,-0.73 -1.64,-1.64 0,-0.91 0.73,-1.64 1.64,-1.64z"/>
  <path class="fil5" d="M33.86 38.64c0.61,0 1.11,0.49 1.11,1.11 0,0.61 -0.5,1.11 -1.11,1.11 -0.62,0 -1.11,-0.5 -1.11,-1.11 0,-0.62 0.49,-1.11 1.11,-1.11zm0 -0.74c1.02,0 1.84,0.83 1.84,1.85 0,1.02 -0.82,1.85 -1.84,1.85 -1.02,0 -1.85,-0.83 -1.85,-1.85 0,-1.02 0.83,-1.85 1.85,-1.85z"/>
  <path class="fil5" d="M20.85 36.63c0.25,0 0.45,0.2 0.45,0.44 0,0.25 -0.2,0.45 -0.45,0.45 -0.24,0 -0.44,-0.2 -0.44,-0.45 0,-0.24 0.2,-0.44 0.44,-0.44z"/>
  <path class="fil5" d="M44.47 36.59c0.24,0 0.44,0.2 0.44,0.45 0,0.25 -0.2,0.45 -0.44,0.45 -0.25,0 -0.45,-0.2 -0.45,-0.45 0,-0.25 0.2,-0.45 0.45,-0.45z"/>
 </g>
</svg>
