<?xml version="1.0" encoding="UTF-8"?>
<svg width="30px" height="36px" viewBox="0 0 30 36" version="1.1" xmlns="http://www.w3.org/2000/svg" xmlns:xlink="http://www.w3.org/1999/xlink">
    <!-- Generator: Sketch 52.5 (67469) - http://www.bohemiancoding.com/sketch -->
    <title>pinterest</title>
    <desc>Created with Sketch.</desc>
    <g id="Page-1" stroke="none" stroke-width="1" fill="none" fill-rule="evenodd">
        <g id="pinterest" fill="#B3B3B3" fill-rule="nonzero">
            <path d="M3.91161882,20.9750977 L5.14569754,21.7743531 L5.61250372,20.0415344 C6.43864777,16.995575 6.35117374,17.1301575 6.43392697,16.7920532 C6.40032583,16.6022644 5.53058353,14.3138123 6.13623739,11.5334473 L6.14817832,11.4694519 C6.97598858,6.06362913 16.1227229,4.59228516 20.3700755,8.10983278 C22.2023104,9.62731934 22.8918284,11.9045105 22.3633738,14.6953125 C21.9840418,16.6994934 21.321738,18.1939087 20.2795468,19.3982849 C18.8408064,21.0610657 17.0313426,21.1961975 15.959438,20.618042 C15.5603895,20.4029846 14.676207,19.7558899 15.0860856,18.3993531 C15.6723008,16.4577942 16.7314314,13.5335083 16.8566721,11.4128723 C16.9683057,9.52377321 15.8164248,7.98623655 13.9902992,7.58688356 C11.9547911,7.14166256 9.609375,8.22821048 8.59523104,10.7624817 C7.86544727,12.5853882 7.86739116,14.4799805 8.60134038,16.552002 C8.62522216,17.0631409 8.09926692,18.9906922 7.6749482,20.5458069 C6.39227268,25.247406 4.63529325,31.6859436 6.34645294,34.9645386 L6.88712602,36 L7.87461121,35.3647156 C10.6968306,33.5500488 12.3455087,28.2713928 13.2491299,24.9829102 C15.6278695,26.7250672 18.9985375,26.8720093 22.3325496,25.2616883 C27.6848527,22.6763305 31.2551836,16.506958 29.4662693,9.63830566 C27.4724155,1.98275759 19.7341528,-0.984649641 11.9400733,0.283172625 C5.51503258,1.32797243 1.42874332,5.44427494 0.344064739,10.5177613 C-0.570941943,14.7983093 0.862799929,19.0008545 3.91161882,20.9750977 Z M2.42983564,10.9539184 C3.39871521,6.42123415 7.08317908,3.20993044 12.2858042,2.36370853 C18.5339529,1.34747311 25.6312944,3.36538695 27.4018809,10.1642761 C29.0394513,16.4517517 25.4371853,21.4156494 21.3969935,23.3670959 C18.9185612,24.5640564 15.5503925,24.9189148 13.5296023,22.324768 L12.2111041,20.6323242 L11.6551577,22.6966553 C10.9209309,25.420166 9.73350491,30.0437622 7.82601455,32.5148621 C7.45140327,29.458191 8.84404621,24.3531189 9.73294948,21.095398 C10.5815869,17.9854431 10.9145438,16.6920777 10.630739,15.9043579 C10.0567425,14.3110657 10.0392476,12.8831176 10.5771438,11.5383911 C11.1797431,10.0329895 12.4649178,9.41253666 13.52988,9.64544681 C13.9144883,9.72976683 14.80117,10.058258 14.7284138,11.2898254 C14.6206679,13.1116333 13.5920838,15.9787903 13.0433575,17.7959289 C12.4671394,19.7034301 13.2110856,21.5378723 14.938907,22.4695129 C16.8805539,23.5162354 19.7955235,23.2001037 21.8990669,20.7693787 C23.1942387,19.2724914 24.0076088,17.4657898 24.4585863,15.0834045 C24.8073719,13.2415466 24.7246186,11.5480041 24.2128258,10.0491943 C23.7368558,8.6550293 22.9043246,7.45861816 21.7385589,6.49291992 C16.2374111,1.93716429 5.16485858,4.02951052 4.04546801,11.1209106 C3.64697495,12.9748535 3.71223341,14.904602 4.23902175,16.8612671 C4.15432464,17.2282105 4.03408251,17.6981506 3.90662026,18.1812744 C2.4228932,16.4555969 1.83362339,13.7438965 2.42983564,10.9539184 Z" id="Shape"></path>
        </g>
    </g>
</svg>