<?xml version="1.0" encoding="UTF-8"?>
<svg width="30px" height="25px" viewBox="0 0 30 25" version="1.1" xmlns="http://www.w3.org/2000/svg" xmlns:xlink="http://www.w3.org/1999/xlink">
    <!-- Generator: Sketch 52.5 (67469) - http://www.bohemiancoding.com/sketch -->
    <title>twitter</title>
    <desc>Created with Sketch.</desc>
    <g id="Page-1" stroke="none" stroke-width="1" fill="none" fill-rule="evenodd">
        <g id="twitter" fill="#B3B3B3" fill-rule="nonzero">
            <path d="M30,3.33124071 C28.1128693,3.41959637 28.154068,3.41238839 27.9407501,3.43052452 L29.0583802,0.188104524 C29.0583802,0.188104524 25.5697632,1.49181548 24.6853638,1.72502792 C22.3626709,-0.395740357 18.9102173,-0.48944381 16.4419556,1.05166482 C14.4207001,2.3139881 13.3358002,4.48172435 13.6976624,7.01543899 C9.76387025,6.46089101 6.44943234,4.56659226 3.83262633,1.37323286 L3.00498961,0.363420774 L2.38655092,1.51715958 C1.60491943,2.97502792 1.34536746,4.64192708 1.6555023,6.210705 C1.78276061,6.85430619 1.99905398,7.46814548 2.29866029,8.04292226 L1.58866881,7.76343935 L1.50444029,8.96856399 C1.41906738,10.1927548 1.82029723,11.6217913 2.57789613,12.7908761 C2.791214,13.1201172 3.06587221,13.4816779 3.41400146,13.8383557 L3.04710387,13.781157 L3.49479674,15.1620629 C4.08325195,16.9763765 5.30548096,18.3800688 6.89163211,19.1603887 C5.30754088,19.843285 4.02786258,20.2790179 1.92443848,20.9819104 L-5.68434189e-14,21.6245815 L1.77749637,22.6118396 C2.45521547,22.9882813 4.85000613,24.2454892 7.21618652,24.6226283 C12.4758911,25.460612 18.3977508,24.7781808 22.3844147,21.1307199 C25.7423401,18.0585007 26.8441772,13.6883836 26.6152954,9.140625 C26.5807342,8.45214845 26.7663574,7.79506137 27.1380615,7.29073661 C27.8826141,6.28092446 29.9954224,3.33798363 30,3.33124071 Z M25.7324982,6.22116815 C25.1152038,7.05845423 24.8059845,8.12779018 24.8613739,9.23177083 C25.0923157,13.8190569 23.863678,17.3765346 21.2093353,19.80492 C18.1086731,22.641834 13.1073761,23.7553479 7.48832701,22.859933 C6.4707184,22.6978702 5.41900635,22.3349144 4.54856871,21.9724237 C6.31210324,21.3560268 7.6739502,20.8065941 9.87327574,19.7491164 L12.9434967,18.2728795 L9.5537567,18.0524554 C7.93006898,17.9468936 6.57806396,17.1475074 5.746994,15.8496094 C6.18827818,15.8235677 6.61376953,15.7510231 7.03742982,15.6310454 L10.2703857,14.7163318 L7.01042174,13.9053199 C5.42633057,13.5112072 4.52339174,12.5483631 4.0447998,11.8098958 C3.73054506,11.3246373 3.52523801,10.8275205 3.40209961,10.3692336 C3.72894287,10.4582868 4.11003111,10.5217634 4.72457883,10.5836124 L7.74192809,10.8868118 L5.35125732,8.99228048 C3.62869266,7.62741815 2.93838504,5.5768694 3.44444273,3.60560827 C8.8204193,9.27013577 15.1325226,8.84440107 15.7678986,8.9941406 C15.6280518,7.61416482 15.6243896,7.61090958 15.5877686,7.47953869 C14.7740936,4.55752417 16.557312,3.07384673 17.3616028,2.57161458 C19.0415954,1.52273994 21.7082977,1.36462982 23.5553742,3.09268042 C23.9543152,3.46563429 24.4937897,3.61235119 24.998703,3.48493304 C25.451889,3.37053571 25.823822,3.24939548 26.187973,3.11755952 L25.4299164,5.31668524 L26.3976288,5.3173828 C26.2149811,5.56617375 25.9959411,5.8640253 25.7324982,6.22116815 Z" id="Shape"></path>
        </g>
    </g>
</svg>