<?xml version="1.0" encoding="UTF-8"?>
<svg width="31px" height="31px" viewBox="0 0 31 31" version="1.1" xmlns="http://www.w3.org/2000/svg" xmlns:xlink="http://www.w3.org/1999/xlink">
    <!-- Generator: Sketch 52.5 (67469) - http://www.bohemiancoding.com/sketch -->
    <title>viber</title>
    <desc>Created with Sketch.</desc>
    <g id="Page-1" stroke="none" stroke-width="1" fill="none" fill-rule="evenodd">
        <g id="viber" transform="translate(1.000000, 0.000000)">
            <path d="M9.24089889,20.7243073 C12.6119121,24.0953206 16.7295425,26.7135551 21.5068057,28.6594716 C24.823816,30.0106314 27.6250805,28.5996698 28.7707394,25.1931379 C28.9762403,24.5817091 28.9903753,23.9829655 28.7692896,23.3820474 C28.2350596,21.9294056 23.1714722,18.2506846 21.6564917,18.1680493 C20.4945232,18.1049855 19.8653351,18.8943701 19.3332796,19.6783183 C18.3278834,21.1581427 17.0531975,21.1664788 15.6313628,20.5340286 C14.2008296,19.8972294 12.9489771,19.0806621 11.9167606,18.0484456 C10.8841817,17.0158666 10.0676144,15.7640142 9.43117754,14.333481 C8.79836499,12.9116463 8.80670103,11.6373228 10.2868879,10.6315641 C11.0704736,10.0998711 11.8602207,9.47068299 11.7967944,8.30871452 C11.7145216,6.79373394 8.03580056,1.73014661 6.5831588,1.19591654 C5.98187827,0.974830887 5.38313462,0.988965897 4.77170589,1.19446679 C1.36517397,2.34012569 -0.0454252577,5.14139016 1.30573454,8.45840047 C3.25165107,13.2356637 5.86988561,17.3532941 9.24089889,20.7243073 Z" id="Path" stroke="#B3B3B3" stroke-width="2" stroke-linejoin="round"></path>
            <path d="M15.803882,2.89501447 C16.5461501,2.77722294 17.3087145,2.75076516 18.0694668,2.8170908 C20.414425,3.02005472 22.6455783,4.0722052 24.3522874,5.77891435 C26.007893,7.43452002 27.026337,9.57542685 27.2198776,11.8073051 C27.2858408,12.5695071 27.2539465,13.3342461 27.124557,14.0790512 C27.0324984,14.608932 27.3876853,15.1134423 27.917566,15.205501 C27.974106,15.2152867 28.0302835,15.2199984 28.0853737,15.2199984 C28.5503786,15.2199984 28.9617429,14.8861953 29.0440158,14.412492 C29.2024001,13.5020538 29.2415432,12.5687822 29.1610825,11.6387726 C28.9280364,8.95095043 27.7095281,6.3805573 25.7302674,4.40129669 C23.6995409,2.37057019 21.0389015,1.11871778 18.2379994,0.875523495 C17.3192252,0.796150082 16.3975515,0.828044412 15.4987113,0.97048166 C14.9673808,1.05492912 14.6049453,1.55400288 14.6890303,2.08533346 C14.7731154,2.61666396 15.2718267,2.97909953 15.803882,2.89501447 Z" id="Path" fill="#B3B3B3"></path>
            <path d="M24.8053319,14.3639256 C24.8470119,14.3689997 24.8883296,14.3715367 24.9296472,14.3715367 C25.4127738,14.3715367 25.8321118,14.0120006 25.8948131,13.5201756 C25.9615013,12.9931943 25.9720119,12.454615 25.9256201,11.9196601 C25.7585374,9.99186538 24.8734697,8.13728252 23.4338757,6.69768844 C21.9428157,5.20662857 19.9979865,4.28785438 17.9574742,4.11098582 C17.3833763,4.06133218 16.8067413,4.07256761 16.2435165,4.1443299 C15.7096489,4.21246778 15.3323534,4.70066852 15.4004913,5.23417367 C15.4686292,5.76804124 15.9582796,6.14497423 16.4903351,6.07719875 C16.9161969,6.02283346 17.3532941,6.01449742 17.7893041,6.05219072 C19.37351,6.18955382 20.8888531,6.90790107 22.0558956,8.0753061 C23.1718348,9.19124514 23.8568379,10.6163418 23.9844152,12.0878302 C24.0188466,12.4854221 24.0112355,12.8844636 23.9619443,13.2744443 C23.8938064,13.8083119 24.2718267,14.2957877 24.8053319,14.3639256 Z" id="Path" fill="#B3B3B3"></path>
            <path d="M21.6593912,13.7854784 C21.6818621,13.7872906 21.7039707,13.7880155 21.7264417,13.7880155 C22.2342139,13.7880155 22.6626128,13.394048 22.6974066,12.879752 C22.7126289,12.6568541 22.7104542,12.4281572 22.6905203,12.1998228 C22.4741463,9.70336658 20.2719877,7.57115821 17.6769491,7.34644815 C17.4652867,7.32796392 17.2532619,7.32325228 17.0466737,7.33158823 C16.5088193,7.35369687 16.090931,7.8074662 16.1130396,8.34495816 C16.1355106,8.88281245 16.5900049,9.29997581 17.1267719,9.27822968 C17.2510873,9.27315563 17.379752,9.27641753 17.5087789,9.28765305 C19.1328528,9.42827805 20.616664,10.8392397 20.7493154,12.3683554 C20.7605509,12.4966575 20.7620006,12.6242348 20.7536646,12.7474629 C20.7166962,13.28423 21.1222616,13.7492348 21.6593912,13.7854784 Z" id="Path" fill="#B3B3B3"></path>
        </g>
    </g>
</svg>