<?xml version="1.0" encoding="UTF-8"?>
<svg width="30px" height="30px" viewBox="0 0 30 30" version="1.1" xmlns="http://www.w3.org/2000/svg" xmlns:xlink="http://www.w3.org/1999/xlink">
    <!-- Generator: Sketch 52.5 (67469) - http://www.bohemiancoding.com/sketch -->
    <title>whatsapp</title>
    <desc>Created with Sketch.</desc>
    <g id="Page-1" stroke="none" stroke-width="1" fill="none" fill-rule="evenodd">
        <g id="whatsapp" fill="#B3B3B3" fill-rule="nonzero">
            <path d="M7.25578307,27.8592682 C9.57366943,29.2540741 12.2238922,29.9892425 14.9468994,29.9892425 C23.1983185,29.9892425 30,23.2559967 30,14.9945068 C30,6.74263002 23.2079315,0 14.9468994,0 C6.7110443,0 0.0107574609,6.72660826 0.0107574609,14.9945068 C0.0107574609,17.7539062 0.746154785,20.4242706 2.1407318,22.743988 L0,30 L7.25578307,27.8592682 Z M1.76811217,14.9945068 C1.76811217,7.69546512 7.68013002,1.75712584 14.9468994,1.75712584 C22.2782135,1.75712584 28.2428742,7.69546512 28.2428742,14.9945068 C28.2428742,22.2937775 22.2782135,28.2318878 14.9468994,28.2318878 C12.4241638,28.2318878 9.97261049,27.5173187 7.85797119,26.1650848 L7.5201416,25.9492493 L2.59895326,27.4012757 L4.0507507,22.4798584 L3.83491518,22.1422577 C2.48268129,20.0271606 1.76811217,17.5556946 1.76811217,14.9945068 Z" id="Shape"></path>
            <path d="M7.30247496,12.2316742 C7.59269713,13.7557983 8.45420836,16.6873169 10.9625244,19.1956329 C13.4708405,21.7039489 16.402359,22.5656891 17.9267121,22.8559113 C19.6721649,23.1882477 22.2335815,23.2383728 23.4853363,21.986618 L24.183197,21.2887573 C24.5354462,20.9365082 24.7295379,20.467987 24.7295379,19.9697113 C24.7295379,19.4714355 24.5354462,19.0031433 24.183197,18.6508942 L21.3924408,15.860138 C21.0399628,15.5076599 20.5716705,15.313797 20.0733948,15.313797 C19.575119,15.313797 19.1068268,15.5076599 18.7543488,15.860138 L18.0567169,16.5577698 C17.6305389,16.9839478 16.8260193,16.9857788 16.396637,16.563034 L13.6129761,13.6626434 C13.6088562,13.6582946 13.6047363,13.6539459 13.6003876,13.649826 C13.1735229,13.2229614 13.1735229,12.528305 13.6003876,12.1014404 L14.2980194,11.4038086 C15.027237,10.6745911 15.027237,9.49470521 14.2980194,8.76571652 L11.5072632,5.97496031 C10.7801056,5.24780273 9.59678648,5.24780273 8.86940004,5.97496031 L8.1717682,6.67282102 L8.1717682,6.67259215 C7.17269895,7.67189027 6.83967592,9.80186461 7.30247496,12.2316742 Z M9.41436768,7.91542055 C10.1467896,7.19970703 10.1076507,7.18597412 10.188446,7.18597412 C10.2161408,7.18597412 10.2438354,7.19650266 10.2648926,7.21755984 C13.2055664,10.1740265 13.0874634,10.0003052 13.0874634,10.0849915 C13.0874634,10.1145172 13.0767059,10.1403809 13.0558777,10.161438 L12.358017,10.8590698 C11.2467956,11.9702912 11.2424469,13.7690735 12.3509216,14.8853302 L15.1361847,17.7875519 C15.1405335,17.7916717 15.1446533,17.7960205 15.1490021,17.8003693 C16.2599945,18.9113617 18.1846618,18.9150238 19.2993164,17.8003693 L19.9969482,17.1027374 C20.0390625,17.0606232 20.1077271,17.0606232 20.1498413,17.1027374 C23.0905151,20.0589752 22.9724121,19.8852539 22.9724121,19.9699402 C22.9724121,19.9996948 22.9616546,20.0253296 22.9408264,20.0463867 L22.2429657,20.7440186 C21.7648315,21.2221527 20.2418518,21.508255 18.2553864,21.1299134 C16.9297028,20.8772278 14.3806458,20.1287842 12.2051239,17.9532623 C10.0296021,15.7777405 9.28115848,13.2286835 9.0287018,11.9029999 C8.65013121,9.91653445 8.93623354,8.39332582 9.41436768,7.91542055 Z" id="Shape"></path>
        </g>
    </g>
</svg>