<?xml version="1.0" encoding="UTF-8"?>
<svg width="30px" height="23px" viewBox="0 0 30 23" version="1.1" xmlns="http://www.w3.org/2000/svg" xmlns:xlink="http://www.w3.org/1999/xlink">
    <!-- Generator: Sketch 52.5 (67469) - http://www.bohemiancoding.com/sketch -->
    <title>youtube</title>
    <desc>Created with Sketch.</desc>
    <g id="Page-1" stroke="none" stroke-width="1" fill="none" fill-rule="evenodd">
        <g id="youtube" fill="#B3B3B3" fill-rule="nonzero">
            <path d="M4.39453125,23 L25.6054688,23 C28.0286408,23 30,21.0158354 30,18.5769231 L30,4.42307692 C30,1.98416465 28.0286408,0 25.6054688,0 L4.39453125,0 C1.97135924,0 0,1.98416465 0,4.42307692 L0,18.5769231 C0,21.0158354 1.97135924,23 4.39453125,23 Z M1.7578125,4.42307692 C1.7578125,2.95977564 2.94067383,1.76923077 4.39453125,1.76923077 L25.6054688,1.76923077 C27.0593262,1.76923077 28.2421875,2.95977564 28.2421875,4.42307692 L28.2421875,18.5769231 C28.2421875,20.0402244 27.0593262,21.2307692 25.6054688,21.2307692 L4.39453125,21.2307692 C2.94067383,21.2307692 1.7578125,20.0402244 1.7578125,18.5769231 L1.7578125,4.42307692 Z" id="Shape"></path>
            <path d="M10.6054688,5.57353763 L10.6054688,17.5983173 L21.1816406,11.4873297 L10.6054688,5.57353763 Z M12.3632812,8.58030852 L17.6074219,11.5126703 L12.3632812,14.5427083 L12.3632812,8.58030852 Z" id="Shape"></path>
        </g>
    </g>
</svg>